<svg width="300" height="300" viewBox="0 0 300 300" fill="none" xmlns="http://www.w3.org/2000/svg">
<rect width="300" height="300" fill="#384C93"/>
<path fill-rule="evenodd" clip-rule="evenodd" d="M131.352 62.5C117.621 62.5 106.489 73.2783 106.489 86.5741V103.241H149.522V107.87H87.3634C73.6317 107.87 62.5 118.649 62.5 131.944V168.056C62.5 181.351 73.6317 192.129 87.3634 192.129H101.708V171.759C101.708 158.464 112.839 147.685 126.571 147.685H172.472C184.092 147.685 193.511 138.565 193.511 127.315V86.5741C193.511 73.2783 182.379 62.5 168.647 62.5H131.352ZM125.615 92.1296C130.368 92.1296 134.221 88.3986 134.221 83.7963C134.221 79.1939 130.368 75.4629 125.615 75.4629C120.861 75.4629 117.008 79.1939 117.008 83.7963C117.008 88.3986 120.861 92.1296 125.615 92.1296Z" fill="url(#paint0_linear_59_52)"/>
<path fill-rule="evenodd" clip-rule="evenodd" d="M168.646 237.5C182.378 237.5 193.51 226.722 193.51 213.426V196.759H150.477V192.13H212.636C226.367 192.13 237.499 181.351 237.499 168.056V131.944C237.499 118.649 226.367 107.87 212.636 107.87H198.291V128.241C198.291 141.537 187.159 152.315 173.428 152.315H127.526C115.907 152.315 106.488 161.435 106.488 172.685V213.426C106.488 226.722 117.62 237.5 131.351 237.5H168.646ZM174.384 207.871C169.631 207.871 165.777 211.601 165.777 216.204C165.777 220.806 169.631 224.537 174.384 224.537C179.137 224.537 182.991 220.806 182.991 216.204C182.991 211.601 179.137 207.871 174.384 207.871Z" fill="url(#paint1_linear_59_52)"/>
<defs>
<linearGradient id="paint0_linear_59_52" x1="128.006" y1="62.5" x2="128.006" y2="192.129" gradientUnits="userSpaceOnUse">
<stop stop-color="#327EBD"/>
<stop offset="1" stop-color="#1565A7"/>
</linearGradient>
<linearGradient id="paint1_linear_59_52" x1="171.994" y1="107.87" x2="171.994" y2="237.5" gradientUnits="userSpaceOnUse">
<stop stop-color="#FFDA4B"/>
<stop offset="1" stop-color="#F9C600"/>
</linearGradient>
</defs>
</svg>
