<svg width="300" height="300" viewBox="0 0 300 300" fill="none" xmlns="http://www.w3.org/2000/svg">
<rect width="300" height="300" fill="#FBFBFB" fill-opacity="0.8"/>
<path d="M150.311 102.754C191.486 70.7879 170.354 50 170.354 50C173.499 83.0461 136.331 90.8489 126.368 113.558C119.57 129.053 131.024 142.621 150.297 159.721C148.593 155.934 145.965 152.254 143.305 148.528C134.231 135.821 124.778 122.583 150.311 102.754Z" fill="#E76F00"/>
<path d="M156.884 166.731C156.884 166.731 169.272 156.737 159.462 145.63C126.207 107.949 195.833 90.8489 195.833 90.8489C153.323 111.328 159.669 123.484 170.354 138.251C181.794 154.086 156.884 166.731 156.884 166.731Z" fill="#E76F00"/>
<path d="M193.356 196.535C231.514 177.036 213.872 158.299 201.557 160.823C198.539 161.441 197.193 161.976 197.193 161.976C197.193 161.976 198.314 160.25 200.454 159.503C224.816 151.081 243.551 184.343 192.589 197.518C192.589 197.518 193.18 196.999 193.356 196.535Z" fill="#5382A1"/>
<path d="M113.956 171.856C90.082 168.721 127.047 160.087 127.047 160.087C127.047 160.087 112.692 159.135 95.037 167.527C74.1611 177.457 146.676 181.974 184.212 172.266C188.115 169.645 193.509 167.374 193.509 167.374C193.509 167.374 178.148 170.071 162.851 171.341C144.132 172.882 124.037 173.183 113.956 171.856Z" fill="#5382A1"/>
<path d="M123.04 190.474C109.727 189.12 118.444 182.774 118.444 182.774C83.9936 194.018 137.611 206.769 185.749 192.926C180.633 191.153 177.379 187.908 177.379 187.908C153.852 192.363 140.256 192.221 123.04 190.474Z" fill="#5382A1"/>
<path d="M128.841 210.619C115.537 209.116 123.309 204.671 123.309 204.671C92.0371 213.264 142.331 231.016 182.146 214.236C175.624 211.742 170.955 208.863 170.955 208.863C153.194 212.168 144.957 212.428 128.841 210.619Z" fill="#5382A1"/>
<path d="M212.117 220.867C212.117 220.867 217.868 225.527 205.782 229.132C182.801 235.979 110.131 238.046 89.9434 229.406C82.6865 226.301 96.2952 221.993 100.576 221.089C105.04 220.137 107.592 220.314 107.592 220.314C99.5212 214.724 55.4281 231.292 85.1944 236.037C166.372 248.982 233.173 230.207 212.117 220.867Z" fill="#5382A1"/>
<path d="M225 231.049C223.668 248.092 167.423 251.677 130.796 249.371C106.902 247.864 102.113 244.099 102.043 244.044C124.912 247.751 163.468 248.426 194.73 242.641C222.439 237.51 225 231.049 225 231.049Z" fill="#5382A1"/>
</svg>
