<svg width="300" height="300" viewBox="0 0 300 300" fill="none" xmlns="http://www.w3.org/2000/svg">
<rect width="300" height="300" fill="#9B60F2"/>
<path d="M223.092 193.749C224.269 191.636 225 189.254 225 187.116V112.883C225 110.745 224.269 108.364 223.092 106.25L150 150L223.092 193.749Z" fill="#7F3A86"/>
<path d="M156.497 235.896L218.507 198.779C220.293 197.71 221.917 195.864 223.094 193.75L150.002 150L76.9104 193.75C78.0874 195.864 79.7114 197.711 81.4972 198.779L143.507 235.896C147.079 238.034 152.925 238.034 156.497 235.896Z" fill="#662579"/>
<path d="M223.092 106.25C221.915 104.136 220.291 102.289 218.505 101.22L156.495 64.1039C152.923 61.9654 147.077 61.9654 143.505 64.1039L81.4951 101.22C77.9226 103.358 75 108.607 75 112.883V187.116C75 189.254 75.7309 191.636 76.9083 193.75L150 150L223.092 106.25Z" fill="#9A5196"/>
<path d="M150.241 200C122.538 200 100 177.57 100 150C100 122.43 122.538 100 150.241 100C167.786 100 184.171 109.223 193.244 124.136L171.728 137.041C167.182 129.6 158.999 125 150.241 125C136.389 125 125.121 136.215 125.121 150C125.121 163.785 136.389 175 150.241 175C158.976 175 167.138 170.426 171.692 163.02L193.253 175.849C184.182 190.771 167.792 200 150.241 200Z" fill="white"/>
<path fill-rule="evenodd" clip-rule="evenodd" d="M206.251 131.25V137.484H193.749V131.25H187.501V137.484H181.25V143.75H187.501V156.218H181.25V162.5H187.501V168.75H193.749L193.75 162.5H206.251V168.75H212.499V162.5H218.75V156.25H212.499V143.75H218.75V137.484H212.499V131.25H206.251ZM206.251 156.25V143.75H193.749V156.218L206.251 156.25Z" fill="white"/>
</svg>
