<svg width="508" height="329" viewBox="0 0 508 329" fill="none" xmlns="http://www.w3.org/2000/svg">
<g clip-path="url(#clip0_52_2328)" filter="url(#filter0_b_52_2328)">
<rect width="508" height="329" fill="url(#paint0_linear_52_2328)"/>
<g filter="url(#filter1_f_52_2328)">
<path d="M360.5 319.281C360.5 371.748 317.967 414.281 265.5 414.281C213.033 414.281 24 359.967 24 307.5C24 255.033 213.033 173.5 265.5 173.5C317.967 173.5 671 359 360.5 319.281Z" fill="#F59259" fill-opacity="0.8"/>
</g>
<rect x="60.8027" y="214.294" width="0.444685" height="0.464455" rx="0.222342" fill="#D9D9D9"/>
<rect x="86.5947" y="257.488" width="0.444685" height="0.464455" rx="0.222342" fill="#D9D9D9"/>
<rect x="152.854" y="220.796" width="0.444685" height="0.464455" rx="0.222342" fill="#D9D9D9"/>
<rect x="140.401" y="245.412" width="0.444685" height="0.464455" rx="0.222342" fill="#D9D9D9"/>
<rect x="70.5859" y="289.535" width="0.444685" height="0.464455" rx="0.222342" fill="#D9D9D9"/>
<rect x="36.3447" y="282.104" width="0.444685" height="0.464455" rx="0.222342" fill="#D9D9D9" fill-opacity="0.6"/>
<rect x="182.646" y="273.744" width="0.444685" height="0.464455" rx="0.222342" fill="#D9D9D9" fill-opacity="0.1"/>
<rect x="195.987" y="260.739" width="0.444685" height="0.464455" rx="0.222342" fill="#D9D9D9" fill-opacity="0.1"/>
<rect x="163.08" y="251.45" width="2.22342" height="2.32227" rx="1.11171" fill="#D9D9D9" fill-opacity="0.7"/>
<rect x="187.094" y="236.588" width="1.77874" height="1.85782" rx="0.889369" fill="#D9D9D9" fill-opacity="0.75"/>
<rect x="103.492" y="206.398" width="1.77874" height="2.32227" rx="0.889369" fill="#D9D9D9" fill-opacity="0.8"/>
<rect x="95.9326" y="271.422" width="1.77874" height="1.85782" rx="0.889369" fill="#D9D9D9" fill-opacity="0.72"/>
<rect x="131.062" y="263.99" width="1.77874" height="2.32227" rx="0.889369" fill="#D9D9D9" fill-opacity="0.5"/>
<rect x="211.996" y="257.952" width="1.77874" height="1.85782" rx="0.889369" fill="#D9D9D9" fill-opacity="0.1"/>
<rect x="194.208" y="269.564" width="1.77874" height="1.85782" rx="0.889369" fill="#D9D9D9" fill-opacity="0.75"/>
<rect x="212.44" y="237.981" width="2.22342" height="2.32227" rx="1.11171" fill="#D9D9D9" fill-opacity="0.1"/>
<rect x="198.655" y="220.796" width="1.77874" height="1.85782" rx="0.889369" fill="#D9D9D9" fill-opacity="0.8"/>
<rect x="218.222" y="287.677" width="1.77874" height="1.85782" rx="0.889369" fill="#D9D9D9"/>
<rect x="20.3359" y="259.81" width="1.77874" height="2.32227" rx="0.889369" fill="#D9D9D9"/>
<rect x="30.1191" y="234.73" width="2.22342" height="2.32227" rx="1.11171" fill="#D9D9D9"/>
<rect x="15" y="214.294" width="1.77874" height="1.85782" rx="0.889369" fill="#D9D9D9" fill-opacity="0.5"/>
<rect x="69.252" y="192" width="1.77874" height="1.85782" rx="0.889369" fill="#D9D9D9" fill-opacity="0.8"/>
<rect x="51.4639" y="251.915" width="0.444685" height="0.464455" rx="0.222342" fill="#D9D9D9"/>
<rect x="93.2646" y="234.73" width="0.444685" height="0.464455" rx="0.222342" fill="#D9D9D9"/>
<rect x="115.499" y="261.204" width="0.444685" height="0.464455" rx="0.222342" fill="#D9D9D9"/>
<rect x="105.271" y="237.981" width="0.444685" height="0.464455" rx="0.222342" fill="#D9D9D9" fill-opacity="0.55"/>
<rect x="121.28" y="229.156" width="0.444685" height="0.464455" rx="0.222342" fill="#D9D9D9" fill-opacity="0.55"/>
<rect x="105.271" y="221.725" width="0.444685" height="0.464455" rx="0.222342" fill="#D9D9D9" fill-opacity="0.8"/>
<rect x="71.9199" y="242.626" width="0.444685" height="0.464455" rx="0.222342" fill="#D9D9D9"/>
<rect x="388.803" y="199.294" width="0.444685" height="0.464455" rx="0.222342" fill="#D9D9D9"/>
<rect x="414.595" y="242.488" width="0.444685" height="0.464455" rx="0.222342" fill="#D9D9D9"/>
<rect x="480.854" y="205.796" width="0.444685" height="0.464455" rx="0.222342" fill="#D9D9D9"/>
<rect x="468.401" y="230.412" width="0.444685" height="0.464455" rx="0.222342" fill="#D9D9D9"/>
<rect x="398.586" y="274.535" width="0.444685" height="0.464455" rx="0.222342" fill="#D9D9D9"/>
<rect x="364.345" y="267.104" width="0.444685" height="0.464455" rx="0.222342" fill="#D9D9D9" fill-opacity="0.6"/>
<rect x="491.08" y="236.45" width="2.22342" height="2.32227" rx="1.11171" fill="#D9D9D9" fill-opacity="0.7"/>
<rect x="431.492" y="191.398" width="1.77874" height="2.32227" rx="0.889369" fill="#D9D9D9" fill-opacity="0.8"/>
<rect x="423.933" y="256.422" width="1.77874" height="1.85782" rx="0.889369" fill="#D9D9D9" fill-opacity="0.72"/>
<rect x="459.062" y="248.99" width="1.77874" height="2.32227" rx="0.889369" fill="#D9D9D9" fill-opacity="0.5"/>
<rect x="348.336" y="244.81" width="1.77874" height="2.32227" rx="0.889369" fill="#D9D9D9"/>
<rect x="358.119" y="219.73" width="2.22342" height="2.32227" rx="1.11171" fill="#D9D9D9"/>
<rect x="343" y="199.294" width="1.77874" height="1.85782" rx="0.889369" fill="#D9D9D9" fill-opacity="0.5"/>
<rect x="397.252" y="177" width="1.77874" height="1.85782" rx="0.889369" fill="#D9D9D9" fill-opacity="0.8"/>
<rect x="379.464" y="236.915" width="0.444685" height="0.464455" rx="0.222342" fill="#D9D9D9"/>
<rect x="421.265" y="219.73" width="0.444685" height="0.464455" rx="0.222342" fill="#D9D9D9"/>
<rect x="443.499" y="246.204" width="0.444685" height="0.464455" rx="0.222342" fill="#D9D9D9"/>
<rect x="433.271" y="222.981" width="0.444685" height="0.464455" rx="0.222342" fill="#D9D9D9" fill-opacity="0.55"/>
<rect x="449.28" y="214.156" width="0.444685" height="0.464455" rx="0.222342" fill="#D9D9D9" fill-opacity="0.55"/>
<rect x="433.271" y="206.725" width="0.444685" height="0.464455" rx="0.222342" fill="#D9D9D9" fill-opacity="0.8"/>
<rect x="399.92" y="227.626" width="0.444685" height="0.464455" rx="0.222342" fill="#D9D9D9"/>
<rect x="45.8027" y="88.2939" width="0.444685" height="0.464455" rx="0.222342" fill="#D9D9D9"/>
<rect x="71.5947" y="131.488" width="0.444685" height="0.464455" rx="0.222342" fill="#D9D9D9"/>
<rect x="137.854" y="94.7961" width="0.444685" height="0.464455" rx="0.222342" fill="#D9D9D9"/>
<rect x="125.401" y="119.412" width="0.444685" height="0.464455" rx="0.222342" fill="#D9D9D9"/>
<rect x="55.5859" y="163.535" width="0.444685" height="0.464455" rx="0.222342" fill="#D9D9D9"/>
<rect x="21.3447" y="156.104" width="0.444685" height="0.464455" rx="0.222342" fill="#D9D9D9" fill-opacity="0.6"/>
<rect x="167.646" y="147.744" width="0.444685" height="0.464455" rx="0.222342" fill="#D9D9D9" fill-opacity="0.1"/>
<rect x="180.987" y="134.739" width="0.444685" height="0.464455" rx="0.222342" fill="#D9D9D9" fill-opacity="0.1"/>
<rect x="148.08" y="125.45" width="2.22342" height="2.32227" rx="1.11171" fill="#D9D9D9" fill-opacity="0.7"/>
<rect x="172.094" y="110.588" width="1.77874" height="1.85782" rx="0.889369" fill="#D9D9D9" fill-opacity="0.75"/>
<rect x="88.4922" y="80.3982" width="1.77874" height="2.32227" rx="0.889369" fill="#D9D9D9" fill-opacity="0.8"/>
<rect x="80.9326" y="145.422" width="1.77874" height="1.85782" rx="0.889369" fill="#D9D9D9" fill-opacity="0.72"/>
<rect x="116.062" y="137.99" width="1.77874" height="2.32227" rx="0.889369" fill="#D9D9D9" fill-opacity="0.5"/>
<rect x="196.996" y="131.952" width="1.77874" height="1.85782" rx="0.889369" fill="#D9D9D9" fill-opacity="0.1"/>
<rect x="179.208" y="143.564" width="1.77874" height="1.85782" rx="0.889369" fill="#D9D9D9" fill-opacity="0.75"/>
<rect x="197.44" y="111.981" width="2.22342" height="2.32227" rx="1.11171" fill="#D9D9D9" fill-opacity="0.1"/>
<rect x="183.655" y="94.7961" width="1.77874" height="1.85782" rx="0.889369" fill="#D9D9D9" fill-opacity="0.8"/>
<rect x="203.222" y="161.677" width="1.77874" height="1.85782" rx="0.889369" fill="#D9D9D9"/>
<rect x="5.33594" y="133.81" width="1.77874" height="2.32227" rx="0.889369" fill="#D9D9D9"/>
<rect x="15.1191" y="108.73" width="2.22342" height="2.32227" rx="1.11171" fill="#D9D9D9"/>
<rect y="88.2939" width="1.77874" height="1.85782" rx="0.889369" fill="#D9D9D9" fill-opacity="0.5"/>
<rect x="54.252" y="66" width="1.77874" height="1.85782" rx="0.889369" fill="#D9D9D9" fill-opacity="0.8"/>
<rect x="36.4639" y="125.915" width="0.444685" height="0.464455" rx="0.222342" fill="#D9D9D9"/>
<rect x="78.2646" y="108.73" width="0.444685" height="0.464455" rx="0.222342" fill="#D9D9D9"/>
<rect x="100.499" y="135.204" width="0.444685" height="0.464455" rx="0.222342" fill="#D9D9D9"/>
<rect x="90.2705" y="111.981" width="0.444685" height="0.464455" rx="0.222342" fill="#D9D9D9" fill-opacity="0.55"/>
<rect x="109" y="99" width="0.444685" height="0.464455" rx="0.222342" fill="#D9D9D9" fill-opacity="0.55"/>
<rect x="90.2705" y="95.7249" width="0.444685" height="0.464455" rx="0.222342" fill="#D9D9D9" fill-opacity="0.8"/>
<rect x="56.9199" y="116.626" width="0.444685" height="0.464455" rx="0.222342" fill="#D9D9D9"/>
<rect x="384.803" y="40.2939" width="0.444685" height="0.464455" rx="0.222342" fill="#D9D9D9"/>
<rect x="410.595" y="83.4883" width="0.444685" height="0.464455" rx="0.222342" fill="#D9D9D9"/>
<rect x="476.854" y="46.7961" width="0.444685" height="0.464455" rx="0.222342" fill="#D9D9D9"/>
<rect x="464.401" y="71.4124" width="0.444685" height="0.464455" rx="0.222342" fill="#D9D9D9"/>
<rect x="394.586" y="115.535" width="0.444685" height="0.464455" rx="0.222342" fill="#D9D9D9"/>
<rect x="360.345" y="108.104" width="0.444685" height="0.464455" rx="0.222342" fill="#D9D9D9" fill-opacity="0.6"/>
<rect x="506.646" y="99.7439" width="0.444685" height="0.464455" rx="0.222342" fill="#D9D9D9" fill-opacity="0.1"/>
<rect x="487.08" y="77.4502" width="2.22342" height="2.32227" rx="1.11171" fill="#D9D9D9" fill-opacity="0.7"/>
<rect x="427.492" y="32.3982" width="1.77874" height="2.32227" rx="0.889369" fill="#D9D9D9" fill-opacity="0.8"/>
<rect x="419.933" y="97.4219" width="1.77874" height="1.85782" rx="0.889369" fill="#D9D9D9" fill-opacity="0.72"/>
<rect x="455.062" y="89.9905" width="1.77874" height="2.32227" rx="0.889369" fill="#D9D9D9" fill-opacity="0.5"/>
<rect x="344.336" y="85.8103" width="1.77874" height="2.32227" rx="0.889369" fill="#D9D9D9"/>
<rect x="354.119" y="60.7297" width="2.22342" height="2.32227" rx="1.11171" fill="#D9D9D9"/>
<rect x="339" y="40.2939" width="1.77874" height="1.85782" rx="0.889369" fill="#D9D9D9" fill-opacity="0.5"/>
<rect x="393.252" y="18" width="1.77874" height="1.85782" rx="0.889369" fill="#D9D9D9" fill-opacity="0.8"/>
<rect x="375.464" y="77.9148" width="0.444685" height="0.464455" rx="0.222342" fill="#D9D9D9"/>
<rect x="417.265" y="60.7297" width="0.444685" height="0.464455" rx="0.222342" fill="#D9D9D9"/>
<rect x="439.499" y="87.2039" width="0.444685" height="0.464455" rx="0.222342" fill="#D9D9D9"/>
<rect x="429.271" y="63.981" width="0.444685" height="0.464455" rx="0.222342" fill="#D9D9D9" fill-opacity="0.55"/>
<rect x="448" y="51" width="0.444685" height="0.464455" rx="0.222342" fill="#D9D9D9" fill-opacity="0.55"/>
<rect x="429.271" y="47.7249" width="0.444685" height="0.464455" rx="0.222342" fill="#D9D9D9" fill-opacity="0.8"/>
<rect x="395.92" y="68.6257" width="0.444685" height="0.464455" rx="0.222342" fill="#D9D9D9"/>
<rect x="185.803" y="15.2939" width="0.444685" height="0.464455" rx="0.222342" fill="#D9D9D9"/>
<rect x="211.595" y="58.4883" width="0.444685" height="0.464455" rx="0.222342" fill="#D9D9D9"/>
<rect x="277.854" y="21.7961" width="0.444685" height="0.464455" rx="0.222342" fill="#D9D9D9"/>
<rect x="265.401" y="46.4124" width="0.444685" height="0.464455" rx="0.222342" fill="#D9D9D9"/>
<rect x="195.586" y="90.5354" width="0.444685" height="0.464455" rx="0.222342" fill="#D9D9D9"/>
<rect x="161.345" y="83.104" width="0.444685" height="0.464455" rx="0.222342" fill="#D9D9D9" fill-opacity="0.6"/>
<rect x="307.646" y="74.7439" width="0.444685" height="0.464455" rx="0.222342" fill="#D9D9D9" fill-opacity="0.1"/>
<rect x="320.987" y="61.7393" width="0.444685" height="0.464455" rx="0.222342" fill="#D9D9D9" fill-opacity="0.1"/>
<rect x="288.08" y="52.4502" width="2.22342" height="2.32227" rx="1.11171" fill="#D9D9D9" fill-opacity="0.7"/>
<rect x="312.094" y="37.5876" width="1.77874" height="1.85782" rx="0.889369" fill="#D9D9D9" fill-opacity="0.75"/>
<rect x="228.492" y="7.39819" width="1.77874" height="2.32227" rx="0.889369" fill="#D9D9D9" fill-opacity="0.8"/>
<rect x="220.933" y="72.4219" width="1.77874" height="1.85782" rx="0.889369" fill="#D9D9D9" fill-opacity="0.72"/>
<rect x="256.062" y="64.9905" width="1.77874" height="2.32227" rx="0.889369" fill="#D9D9D9" fill-opacity="0.5"/>
<rect x="336.996" y="58.9524" width="1.77874" height="1.85782" rx="0.889369" fill="#D9D9D9" fill-opacity="0.1"/>
<rect x="319.208" y="70.564" width="1.77874" height="1.85782" rx="0.889369" fill="#D9D9D9" fill-opacity="0.75"/>
<rect x="337.44" y="38.981" width="2.22342" height="2.32227" rx="1.11171" fill="#D9D9D9" fill-opacity="0.1"/>
<rect x="323.655" y="21.7961" width="1.77874" height="1.85782" rx="0.889369" fill="#D9D9D9" fill-opacity="0.8"/>
<rect x="343.222" y="88.6775" width="1.77874" height="1.85782" rx="0.889369" fill="#D9D9D9"/>
<rect x="145.336" y="60.8103" width="1.77874" height="2.32227" rx="0.889369" fill="#D9D9D9"/>
<rect x="155.119" y="35.7297" width="2.22342" height="2.32227" rx="1.11171" fill="#D9D9D9"/>
<rect x="140" y="15.2939" width="1.77874" height="1.85782" rx="0.889369" fill="#D9D9D9" fill-opacity="0.5"/>
<rect x="176.464" y="52.9148" width="0.444685" height="0.464455" rx="0.222342" fill="#D9D9D9"/>
<rect x="218.265" y="35.7297" width="0.444685" height="0.464455" rx="0.222342" fill="#D9D9D9"/>
<rect x="240.499" y="62.2039" width="0.444685" height="0.464455" rx="0.222342" fill="#D9D9D9"/>
<rect x="230.271" y="38.981" width="0.444685" height="0.464455" rx="0.222342" fill="#D9D9D9" fill-opacity="0.55"/>
<rect x="249" y="26" width="0.444685" height="0.464455" rx="0.222342" fill="#D9D9D9" fill-opacity="0.55"/>
<rect x="230.271" y="22.7249" width="0.444685" height="0.464455" rx="0.222342" fill="#D9D9D9" fill-opacity="0.8"/>
<rect x="196.92" y="43.6257" width="0.444685" height="0.464455" rx="0.222342" fill="#D9D9D9"/>
<g filter="url(#filter2_f_52_2328)">
<path d="M369 435.5C369 487.967 326.467 530.5 274 530.5C221.533 530.5 32.5 476.186 32.5 423.719C32.5 371.252 221.533 289.719 274 289.719C326.467 289.719 679.5 475.219 369 435.5Z" fill="#F59259" fill-opacity="0.8"/>
</g>
</g>
<defs>
<filter id="filter0_b_52_2328" x="-10" y="-10" width="528" height="349" filterUnits="userSpaceOnUse" color-interpolation-filters="sRGB">
<feFlood flood-opacity="0" result="BackgroundImageFix"/>
<feGaussianBlur in="BackgroundImageFix" stdDeviation="5"/>
<feComposite in2="SourceAlpha" operator="in" result="effect1_backgroundBlur_52_2328"/>
<feBlend mode="normal" in="SourceGraphic" in2="effect1_backgroundBlur_52_2328" result="shape"/>
</filter>
<filter id="filter1_f_52_2328" x="-176" y="-26.5" width="862.828" height="640.781" filterUnits="userSpaceOnUse" color-interpolation-filters="sRGB">
<feFlood flood-opacity="0" result="BackgroundImageFix"/>
<feBlend mode="normal" in="SourceGraphic" in2="BackgroundImageFix" result="shape"/>
<feGaussianBlur stdDeviation="100" result="effect1_foregroundBlur_52_2328"/>
</filter>
<filter id="filter2_f_52_2328" x="-167.5" y="89.719" width="862.828" height="640.781" filterUnits="userSpaceOnUse" color-interpolation-filters="sRGB">
<feFlood flood-opacity="0" result="BackgroundImageFix"/>
<feBlend mode="normal" in="SourceGraphic" in2="BackgroundImageFix" result="shape"/>
<feGaussianBlur stdDeviation="100" result="effect1_foregroundBlur_52_2328"/>
</filter>
<linearGradient id="paint0_linear_52_2328" x1="184.5" y1="117" x2="363.5" y2="593" gradientUnits="userSpaceOnUse">
<stop stop-color="#1A0303"/>
<stop offset="1" stop-color="#6952F4" stop-opacity="0"/>
</linearGradient>
<clipPath id="clip0_52_2328">
<rect width="508" height="329" fill="white"/>
</clipPath>
</defs>
</svg>
