<svg width="950" height="693" viewBox="0 0 950 693" fill="none" xmlns="http://www.w3.org/2000/svg">
<g clip-path="url(#clip0_52_2328)" filter="url(#filter0_b_52_2328)">
<rect width="950" height="693" fill="url(#paint0_linear_52_2328)"/>
<rect x="60.8027" y="214.294" width="0.444685" height="0.464455" rx="0.222342" fill="#D9D9D9"/>
<rect x="86.5947" y="257.488" width="0.444685" height="0.464455" rx="0.222342" fill="#D9D9D9"/>
<rect x="152.854" y="220.796" width="0.444685" height="0.464455" rx="0.222342" fill="#D9D9D9"/>
<rect x="140.401" y="245.412" width="0.444685" height="0.464455" rx="0.222342" fill="#D9D9D9"/>
<rect x="70.5859" y="289.535" width="0.444685" height="0.464455" rx="0.222342" fill="#D9D9D9"/>
<rect x="36.3447" y="282.104" width="0.444685" height="0.464455" rx="0.222342" fill="#D9D9D9" fill-opacity="0.6"/>
<rect x="182.646" y="273.744" width="0.444685" height="0.464455" rx="0.222342" fill="#D9D9D9" fill-opacity="0.1"/>
<rect x="195.987" y="260.739" width="0.444685" height="0.464455" rx="0.222342" fill="#D9D9D9" fill-opacity="0.1"/>
<rect x="163.08" y="251.45" width="2.22342" height="2.32227" rx="1.11171" fill="#D9D9D9" fill-opacity="0.7"/>
<rect x="187.094" y="236.587" width="1.77874" height="1.85782" rx="0.889369" fill="#D9D9D9" fill-opacity="0.75"/>
<rect x="103.492" y="206.398" width="1.77874" height="2.32227" rx="0.889369" fill="#D9D9D9" fill-opacity="0.8"/>
<rect x="95.9326" y="271.422" width="1.77874" height="1.85782" rx="0.889369" fill="#D9D9D9" fill-opacity="0.72"/>
<rect x="131.062" y="263.99" width="1.77874" height="2.32227" rx="0.889369" fill="#D9D9D9" fill-opacity="0.5"/>
<rect x="211.996" y="257.953" width="1.77874" height="1.85782" rx="0.889369" fill="#D9D9D9" fill-opacity="0.1"/>
<rect x="194.208" y="269.564" width="1.77874" height="1.85782" rx="0.889369" fill="#D9D9D9" fill-opacity="0.75"/>
<rect x="212.44" y="237.981" width="2.22342" height="2.32227" rx="1.11171" fill="#D9D9D9" fill-opacity="0.1"/>
<rect x="198.655" y="220.796" width="1.77874" height="1.85782" rx="0.889369" fill="#D9D9D9" fill-opacity="0.8"/>
<rect x="218.222" y="287.677" width="1.77874" height="1.85782" rx="0.889369" fill="#D9D9D9"/>
<rect x="20.3359" y="259.811" width="1.77874" height="2.32227" rx="0.889369" fill="#D9D9D9"/>
<rect x="30.1191" y="234.729" width="2.22342" height="2.32227" rx="1.11171" fill="#D9D9D9"/>
<rect x="15" y="214.294" width="1.77874" height="1.85782" rx="0.889369" fill="#D9D9D9" fill-opacity="0.5"/>
<rect x="69.252" y="192" width="1.77874" height="1.85782" rx="0.889369" fill="#D9D9D9" fill-opacity="0.8"/>
<rect x="51.4639" y="251.915" width="0.444685" height="0.464455" rx="0.222342" fill="#D9D9D9"/>
<rect x="93.2646" y="234.729" width="0.444685" height="0.464455" rx="0.222342" fill="#D9D9D9"/>
<rect x="115.499" y="261.204" width="0.444685" height="0.464455" rx="0.222342" fill="#D9D9D9"/>
<rect x="105.271" y="237.981" width="0.444685" height="0.464455" rx="0.222342" fill="#D9D9D9" fill-opacity="0.55"/>
<rect x="121.28" y="229.156" width="0.444685" height="0.464455" rx="0.222342" fill="#D9D9D9" fill-opacity="0.55"/>
<rect x="105.271" y="221.725" width="0.444685" height="0.464455" rx="0.222342" fill="#D9D9D9" fill-opacity="0.8"/>
<rect x="71.9199" y="242.625" width="0.444685" height="0.464455" rx="0.222342" fill="#D9D9D9"/>
<rect x="388.803" y="199.294" width="0.444685" height="0.464455" rx="0.222342" fill="#D9D9D9"/>
<rect x="414.595" y="242.488" width="0.444685" height="0.464455" rx="0.222342" fill="#D9D9D9"/>
<rect x="480.854" y="205.796" width="0.444685" height="0.464455" rx="0.222342" fill="#D9D9D9"/>
<rect x="468.401" y="230.412" width="0.444685" height="0.464455" rx="0.222342" fill="#D9D9D9"/>
<rect x="398.586" y="274.535" width="0.444685" height="0.464455" rx="0.222342" fill="#D9D9D9"/>
<rect x="364.345" y="267.104" width="0.444685" height="0.464455" rx="0.222342" fill="#D9D9D9" fill-opacity="0.6"/>
<rect x="510.646" y="258.744" width="0.444685" height="0.464455" rx="0.222342" fill="#D9D9D9" fill-opacity="0.1"/>
<rect x="523.987" y="245.739" width="0.444685" height="0.464455" rx="0.222342" fill="#D9D9D9" fill-opacity="0.1"/>
<rect x="491.08" y="236.45" width="2.22342" height="2.32227" rx="1.11171" fill="#D9D9D9" fill-opacity="0.7"/>
<rect x="515.094" y="221.587" width="1.77874" height="1.85782" rx="0.889369" fill="#D9D9D9" fill-opacity="0.75"/>
<rect x="431.492" y="191.398" width="1.77874" height="2.32227" rx="0.889369" fill="#D9D9D9" fill-opacity="0.8"/>
<rect x="423.933" y="256.422" width="1.77874" height="1.85782" rx="0.889369" fill="#D9D9D9" fill-opacity="0.72"/>
<rect x="459.062" y="248.99" width="1.77874" height="2.32227" rx="0.889369" fill="#D9D9D9" fill-opacity="0.5"/>
<rect x="539.996" y="242.953" width="1.77874" height="1.85782" rx="0.889369" fill="#D9D9D9" fill-opacity="0.1"/>
<rect x="522.208" y="254.564" width="1.77874" height="1.85782" rx="0.889369" fill="#D9D9D9" fill-opacity="0.75"/>
<rect x="540.44" y="222.981" width="2.22342" height="2.32227" rx="1.11171" fill="#D9D9D9" fill-opacity="0.1"/>
<rect x="526.655" y="205.796" width="1.77874" height="1.85782" rx="0.889369" fill="#D9D9D9" fill-opacity="0.8"/>
<rect x="546.222" y="272.677" width="1.77874" height="1.85782" rx="0.889369" fill="#D9D9D9"/>
<rect x="348.336" y="244.811" width="1.77874" height="2.32227" rx="0.889369" fill="#D9D9D9"/>
<rect x="358.119" y="219.729" width="2.22342" height="2.32227" rx="1.11171" fill="#D9D9D9"/>
<rect x="343" y="199.294" width="1.77874" height="1.85782" rx="0.889369" fill="#D9D9D9" fill-opacity="0.5"/>
<rect x="397.252" y="177" width="1.77874" height="1.85782" rx="0.889369" fill="#D9D9D9" fill-opacity="0.8"/>
<rect x="379.464" y="236.915" width="0.444685" height="0.464455" rx="0.222342" fill="#D9D9D9"/>
<rect x="421.265" y="219.729" width="0.444685" height="0.464455" rx="0.222342" fill="#D9D9D9"/>
<rect x="443.499" y="246.204" width="0.444685" height="0.464455" rx="0.222342" fill="#D9D9D9"/>
<rect x="433.271" y="222.981" width="0.444685" height="0.464455" rx="0.222342" fill="#D9D9D9" fill-opacity="0.55"/>
<rect x="449.28" y="214.156" width="0.444685" height="0.464455" rx="0.222342" fill="#D9D9D9" fill-opacity="0.55"/>
<rect x="433.271" y="206.725" width="0.444685" height="0.464455" rx="0.222342" fill="#D9D9D9" fill-opacity="0.8"/>
<rect x="399.92" y="227.625" width="0.444685" height="0.464455" rx="0.222342" fill="#D9D9D9"/>
<rect x="126.202" y="106.512" width="0.963122" height="1.26066" rx="0.481561" fill="#D9D9D9"/>
<rect x="182.063" y="223.754" width="0.963122" height="1.26066" rx="0.481561" fill="#D9D9D9"/>
<rect x="325.57" y="124.161" width="0.963122" height="1.26066" rx="0.481561" fill="#D9D9D9"/>
<rect x="298.601" y="190.976" width="0.963122" height="1.26066" rx="0.481561" fill="#D9D9D9"/>
<rect x="147.391" y="310.738" width="0.963122" height="1.26066" rx="0.481561" fill="#D9D9D9"/>
<rect x="73.2295" y="290.568" width="0.963122" height="1.26066" rx="0.481561" fill="#D9D9D9" fill-opacity="0.6"/>
<rect x="390.098" y="267.877" width="0.963122" height="1.26066" rx="0.481561" fill="#D9D9D9" fill-opacity="0.1"/>
<rect x="418.992" y="232.578" width="0.963122" height="1.26066" rx="0.481561" fill="#D9D9D9" fill-opacity="0.1"/>
<rect x="347.72" y="207.365" width="4.81561" height="6.30331" rx="2.40781" fill="#D9D9D9" fill-opacity="0.7"/>
<rect x="399.729" y="167.023" width="3.85249" height="5.04265" rx="1.92624" fill="#D9D9D9" fill-opacity="0.75"/>
<rect x="218.661" y="85.0808" width="3.85249" height="6.30331" rx="1.92624" fill="#D9D9D9" fill-opacity="0.8"/>
<rect x="202.288" y="261.574" width="3.85249" height="5.04265" rx="1.92624" fill="#D9D9D9" fill-opacity="0.72"/>
<rect x="278.374" y="241.402" width="3.85249" height="6.30331" rx="1.92624" fill="#D9D9D9" fill-opacity="0.5"/>
<rect x="453.665" y="225.014" width="3.85249" height="5.04265" rx="1.92624" fill="#D9D9D9" fill-opacity="0.1"/>
<rect x="415.139" y="256.531" width="3.85249" height="5.04265" rx="1.92624" fill="#D9D9D9" fill-opacity="0.75"/>
<rect x="454.627" y="170.806" width="4.81561" height="6.30331" rx="2.40781" fill="#D9D9D9" fill-opacity="0.1"/>
<rect x="424.771" y="124.161" width="3.85249" height="5.04265" rx="1.92624" fill="#D9D9D9" fill-opacity="0.8"/>
<rect x="467.148" y="305.695" width="3.85249" height="5.04265" rx="1.92624" fill="#D9D9D9"/>
<rect x="38.5566" y="230.057" width="3.85249" height="6.30331" rx="1.92624" fill="#D9D9D9"/>
<rect x="59.7461" y="161.98" width="4.81561" height="6.30331" rx="2.40781" fill="#D9D9D9"/>
<rect x="27" y="106.512" width="3.85249" height="5.04265" rx="1.92624" fill="#D9D9D9" fill-opacity="0.5"/>
<rect x="144.502" y="46" width="3.85249" height="5.04265" rx="1.92624" fill="#D9D9D9" fill-opacity="0.8"/>
<rect x="105.976" y="208.626" width="0.963122" height="1.26066" rx="0.481561" fill="#D9D9D9"/>
<rect x="196.51" y="161.98" width="0.963122" height="1.26066" rx="0.481561" fill="#D9D9D9"/>
<rect x="244.666" y="233.838" width="0.963122" height="1.26066" rx="0.481561" fill="#D9D9D9"/>
<rect x="222.513" y="170.806" width="0.963122" height="1.26066" rx="0.481561" fill="#D9D9D9" fill-opacity="0.55"/>
<rect x="263.078" y="135.571" width="0.963122" height="1.26066" rx="0.481561" fill="#D9D9D9" fill-opacity="0.55"/>
<rect x="222.513" y="126.683" width="0.963122" height="1.26066" rx="0.481561" fill="#D9D9D9" fill-opacity="0.8"/>
<rect x="150.28" y="183.412" width="0.963122" height="1.26066" rx="0.481561" fill="#D9D9D9"/>
<rect x="244.486" y="167.917" width="0.963122" height="1.26066" rx="0.481561" transform="rotate(86.2827 244.486 167.917)" fill="#D9D9D9"/>
<rect x="131.113" y="231.262" width="0.963122" height="1.26066" rx="0.481561" transform="rotate(86.2827 131.113 231.262)" fill="#D9D9D9"/>
<rect x="239.801" y="368.01" width="0.963122" height="1.26066" rx="0.481561" transform="rotate(86.2827 239.801 368.01)" fill="#D9D9D9"/>
<rect x="171.378" y="345.429" width="0.963122" height="1.26066" rx="0.481561" transform="rotate(86.2827 171.378 345.429)" fill="#D9D9D9"/>
<rect x="42.0635" y="202.302" width="0.963122" height="1.26066" rx="0.481561" transform="rotate(86.2827 42.0635 202.302)" fill="#D9D9D9"/>
<rect x="57.3828" y="126.989" width="0.963122" height="1.26066" rx="0.481561" transform="rotate(86.2827 57.3828 126.989)" fill="#D9D9D9" fill-opacity="0.6"/>
<rect x="100.57" y="441.719" width="0.963122" height="1.26066" rx="0.481561" transform="rotate(86.2827 100.57 441.719)" fill="#D9D9D9" fill-opacity="0.1"/>
<rect x="137.668" y="468.264" width="0.963122" height="1.26066" rx="0.481561" transform="rotate(86.2827 137.668 468.264)" fill="#D9D9D9" fill-opacity="0.1"/>
<rect x="158.208" y="395.507" width="4.81561" height="6.30331" rx="2.40781" transform="rotate(86.2827 158.208 395.507)" fill="#D9D9D9" fill-opacity="0.7"/>
<rect x="201.837" y="444.792" width="3.85249" height="5.04265" rx="1.92624" transform="rotate(86.2827 201.837 444.792)" fill="#D9D9D9" fill-opacity="0.75"/>
<rect x="271.867" y="258.792" width="3.85249" height="6.30331" rx="1.92624" transform="rotate(86.2827 271.867 258.792)" fill="#D9D9D9" fill-opacity="0.8"/>
<rect x="94.6836" y="253.896" width="3.85249" height="5.04265" rx="1.92624" transform="rotate(86.2827 94.6836 253.896)" fill="#D9D9D9" fill-opacity="0.72"/>
<rect x="119.746" y="328.514" width="3.85249" height="6.30331" rx="1.92624" transform="rotate(86.2827 119.746 328.514)" fill="#D9D9D9" fill-opacity="0.5"/>
<rect x="147.464" y="502.373" width="3.85249" height="5.04265" rx="1.92624" transform="rotate(86.2827 147.464 502.373)" fill="#D9D9D9" fill-opacity="0.1"/>
<rect x="113.517" y="465.971" width="3.85249" height="5.04265" rx="1.92624" transform="rotate(86.2827 113.517 465.971)" fill="#D9D9D9" fill-opacity="0.75"/>
<rect x="201.621" y="499.819" width="4.81561" height="6.30331" rx="2.40781" transform="rotate(86.2827 201.621 499.819)" fill="#D9D9D9" fill-opacity="0.1"/>
<rect x="246.231" y="467.001" width="3.85249" height="5.04265" rx="1.92624" transform="rotate(86.2827 246.231 467.001)" fill="#D9D9D9" fill-opacity="0.8"/>
<rect x="67.8271" y="521.06" width="3.85249" height="5.04265" rx="1.92624" transform="rotate(86.2827 67.8271 521.06)" fill="#D9D9D9"/>
<rect x="115.519" y="88.4656" width="3.85249" height="6.30331" rx="1.92624" transform="rotate(86.2827 115.519 88.4656)" fill="#D9D9D9"/>
<rect x="184.826" y="105.196" width="4.81561" height="6.30331" rx="2.40781" transform="rotate(86.2827 184.826 105.196)" fill="#D9D9D9"/>
<rect x="238.055" y="68.9233" width="3.85249" height="5.04265" rx="1.92624" transform="rotate(86.2827 238.055 68.9233)" fill="#D9D9D9" fill-opacity="0.5"/>
<rect x="306.058" y="182.254" width="3.85249" height="5.04265" rx="1.92624" transform="rotate(86.2827 306.058 182.254)" fill="#D9D9D9" fill-opacity="0.8"/>
<rect x="141.275" y="154.353" width="0.963122" height="1.26066" rx="0.481561" transform="rotate(86.2827 141.275 154.353)" fill="#D9D9D9"/>
<rect x="193.693" y="241.672" width="0.963122" height="1.26066" rx="0.481561" transform="rotate(86.2827 193.693 241.672)" fill="#D9D9D9"/>
<rect x="125.108" y="294.387" width="0.963122" height="1.26066" rx="0.481561" transform="rotate(86.2827 125.108 294.387)" fill="#D9D9D9"/>
<rect x="186.572" y="268.193" width="0.963122" height="1.26066" rx="0.481561" transform="rotate(86.2827 186.572 268.193)" fill="#D9D9D9" fill-opacity="0.55"/>
<rect x="224.362" y="306.389" width="0.963122" height="1.26066" rx="0.481561" transform="rotate(86.2827 224.362 306.389)" fill="#D9D9D9" fill-opacity="0.55"/>
<rect x="230.603" y="265.333" width="0.963122" height="1.26066" rx="0.481561" transform="rotate(86.2827 230.603 265.333)" fill="#D9D9D9" fill-opacity="0.8"/>
<rect x="169.31" y="196.93" width="0.963122" height="1.26066" rx="0.481561" transform="rotate(86.2827 169.31 196.93)" fill="#D9D9D9"/>
<rect x="384.803" y="40.2939" width="0.444685" height="0.464455" rx="0.222342" fill="#D9D9D9"/>
<rect x="410.595" y="83.4883" width="0.444685" height="0.464455" rx="0.222342" fill="#D9D9D9"/>
<rect x="476.854" y="46.7961" width="0.444685" height="0.464455" rx="0.222342" fill="#D9D9D9"/>
<rect x="464.401" y="71.4124" width="0.444685" height="0.464455" rx="0.222342" fill="#D9D9D9"/>
<rect x="394.586" y="115.535" width="0.444685" height="0.464455" rx="0.222342" fill="#D9D9D9"/>
<rect x="360.345" y="108.104" width="0.444685" height="0.464455" rx="0.222342" fill="#D9D9D9" fill-opacity="0.6"/>
<rect x="506.646" y="99.7441" width="0.444685" height="0.464455" rx="0.222342" fill="#D9D9D9" fill-opacity="0.1"/>
<rect x="519.987" y="86.7393" width="0.444685" height="0.464455" rx="0.222342" fill="#D9D9D9" fill-opacity="0.1"/>
<rect x="487.08" y="77.4502" width="2.22342" height="2.32227" rx="1.11171" fill="#D9D9D9" fill-opacity="0.7"/>
<rect x="511.094" y="62.5876" width="1.77874" height="1.85782" rx="0.889369" fill="#D9D9D9" fill-opacity="0.75"/>
<rect x="427.492" y="32.3982" width="1.77874" height="2.32227" rx="0.889369" fill="#D9D9D9" fill-opacity="0.8"/>
<rect x="419.933" y="97.4219" width="1.77874" height="1.85782" rx="0.889369" fill="#D9D9D9" fill-opacity="0.72"/>
<rect x="455.062" y="89.9905" width="1.77874" height="2.32227" rx="0.889369" fill="#D9D9D9" fill-opacity="0.5"/>
<rect x="535.996" y="83.9524" width="1.77874" height="1.85782" rx="0.889369" fill="#D9D9D9" fill-opacity="0.1"/>
<rect x="518.208" y="95.564" width="1.77874" height="1.85782" rx="0.889369" fill="#D9D9D9" fill-opacity="0.75"/>
<rect x="536.44" y="63.981" width="2.22342" height="2.32227" rx="1.11171" fill="#D9D9D9" fill-opacity="0.1"/>
<rect x="522.655" y="46.7961" width="1.77874" height="1.85782" rx="0.889369" fill="#D9D9D9" fill-opacity="0.8"/>
<rect x="542.222" y="113.677" width="1.77874" height="1.85782" rx="0.889369" fill="#D9D9D9"/>
<rect x="344.336" y="85.8103" width="1.77874" height="2.32227" rx="0.889369" fill="#D9D9D9"/>
<rect x="354.119" y="60.7297" width="2.22342" height="2.32227" rx="1.11171" fill="#D9D9D9"/>
<rect x="339" y="40.2939" width="1.77874" height="1.85782" rx="0.889369" fill="#D9D9D9" fill-opacity="0.5"/>
<rect x="393.252" y="18" width="1.77874" height="1.85782" rx="0.889369" fill="#D9D9D9" fill-opacity="0.8"/>
<rect x="375.464" y="77.9148" width="0.444685" height="0.464455" rx="0.222342" fill="#D9D9D9"/>
<rect x="417.265" y="60.7297" width="0.444685" height="0.464455" rx="0.222342" fill="#D9D9D9"/>
<rect x="439.499" y="87.2039" width="0.444685" height="0.464455" rx="0.222342" fill="#D9D9D9"/>
<rect x="429.271" y="63.981" width="0.444685" height="0.464455" rx="0.222342" fill="#D9D9D9" fill-opacity="0.55"/>
<rect x="448" y="51" width="0.444685" height="0.464455" rx="0.222342" fill="#D9D9D9" fill-opacity="0.55"/>
<rect x="429.271" y="47.7249" width="0.444685" height="0.464455" rx="0.222342" fill="#D9D9D9" fill-opacity="0.8"/>
<rect x="395.92" y="68.6257" width="0.444685" height="0.464455" rx="0.222342" fill="#D9D9D9"/>
<rect x="185.803" y="15.2939" width="0.444685" height="0.464455" rx="0.222342" fill="#D9D9D9"/>
<rect x="211.595" y="58.4883" width="0.444685" height="0.464455" rx="0.222342" fill="#D9D9D9"/>
<rect x="277.854" y="21.7961" width="0.444685" height="0.464455" rx="0.222342" fill="#D9D9D9"/>
<rect x="265.401" y="46.4124" width="0.444685" height="0.464455" rx="0.222342" fill="#D9D9D9"/>
<rect x="195.586" y="90.5354" width="0.444685" height="0.464455" rx="0.222342" fill="#D9D9D9"/>
<rect x="161.345" y="83.104" width="0.444685" height="0.464455" rx="0.222342" fill="#D9D9D9" fill-opacity="0.6"/>
<rect x="307.646" y="74.7439" width="0.444685" height="0.464455" rx="0.222342" fill="#D9D9D9" fill-opacity="0.1"/>
<rect x="320.987" y="61.7393" width="0.444685" height="0.464455" rx="0.222342" fill="#D9D9D9" fill-opacity="0.1"/>
<rect x="288.08" y="52.4502" width="2.22342" height="2.32227" rx="1.11171" fill="#D9D9D9" fill-opacity="0.7"/>
<rect x="312.094" y="37.5876" width="1.77874" height="1.85782" rx="0.889369" fill="#D9D9D9" fill-opacity="0.75"/>
<rect x="228.492" y="7.39819" width="1.77874" height="2.32227" rx="0.889369" fill="#D9D9D9" fill-opacity="0.8"/>
<rect x="220.933" y="72.4219" width="1.77874" height="1.85782" rx="0.889369" fill="#D9D9D9" fill-opacity="0.72"/>
<rect x="256.062" y="64.9905" width="1.77874" height="2.32227" rx="0.889369" fill="#D9D9D9" fill-opacity="0.5"/>
<rect x="336.996" y="58.9524" width="1.77874" height="1.85782" rx="0.889369" fill="#D9D9D9" fill-opacity="0.1"/>
<rect x="319.208" y="70.564" width="1.77874" height="1.85782" rx="0.889369" fill="#D9D9D9" fill-opacity="0.75"/>
<rect x="337.44" y="38.981" width="2.22342" height="2.32227" rx="1.11171" fill="#D9D9D9" fill-opacity="0.1"/>
<rect x="323.655" y="21.7961" width="1.77874" height="1.85782" rx="0.889369" fill="#D9D9D9" fill-opacity="0.8"/>
<rect x="343.222" y="88.6775" width="1.77874" height="1.85782" rx="0.889369" fill="#D9D9D9"/>
<rect x="145.336" y="60.8103" width="1.77874" height="2.32227" rx="0.889369" fill="#D9D9D9"/>
<rect x="155.119" y="35.7297" width="2.22342" height="2.32227" rx="1.11171" fill="#D9D9D9"/>
<rect x="140" y="15.2939" width="1.77874" height="1.85782" rx="0.889369" fill="#D9D9D9" fill-opacity="0.5"/>
<rect x="176.464" y="52.9148" width="0.444685" height="0.464455" rx="0.222342" fill="#D9D9D9"/>
<rect x="218.265" y="35.7297" width="0.444685" height="0.464455" rx="0.222342" fill="#D9D9D9"/>
<rect x="240.499" y="62.2039" width="0.444685" height="0.464455" rx="0.222342" fill="#D9D9D9"/>
<rect x="230.271" y="38.981" width="0.444685" height="0.464455" rx="0.222342" fill="#D9D9D9" fill-opacity="0.55"/>
<rect x="249" y="26" width="0.444685" height="0.464455" rx="0.222342" fill="#D9D9D9" fill-opacity="0.55"/>
<rect x="230.271" y="22.7249" width="0.444685" height="0.464455" rx="0.222342" fill="#D9D9D9" fill-opacity="0.8"/>
<rect x="196.92" y="43.6257" width="0.444685" height="0.464455" rx="0.222342" fill="#D9D9D9"/>
<g clip-path="url(#clip1_52_2328)">
<path d="M114.393 146.391C85.4288 172.072 94.8374 220.806 133.233 230.637C151.005 235.226 170.967 229.303 183.763 213.846C190.618 205.562 194.476 195.525 195.231 185.584C198.623 142.303 147.89 116.658 114.393 146.391Z" fill="url(#paint1_radial_52_2328)"/>
<path d="M177.265 160.141C178.543 161.926 179.641 163.793 180.558 165.71C181.048 166.743 181.494 167.787 181.891 168.847C184.05 174.674 184.681 180.886 183.888 186.934C183.603 189.129 183.126 191.301 182.46 193.428C181.852 195.389 181.084 197.314 180.166 199.175C178.921 201.695 177.394 204.095 175.596 206.335C173.496 208.95 171.021 211.329 168.192 213.404C166.894 214.357 165.558 215.214 164.196 215.978C152.799 222.394 139.311 222.441 128.369 216.803C124.102 214.609 120.227 211.557 117.008 207.684C116.435 206.999 115.884 206.287 115.36 205.555C112.059 200.944 109.965 195.817 109.008 190.54C108.153 185.825 108.216 180.988 109.138 176.309C109.989 171.979 111.581 167.771 113.882 163.902C116.502 159.493 120.041 155.514 124.433 152.292C137.78 142.501 155.122 142.492 167.837 150.997C171.003 153.117 173.878 155.757 176.345 158.913C176.658 159.307 176.963 159.718 177.265 160.141Z" fill="url(#paint2_radial_52_2328)"/>
<path d="M128.362 216.808C127.854 216.546 127.342 216.266 126.844 215.976C123.193 213.874 119.873 211.12 117.047 207.737C117.033 207.717 117.023 207.704 117.002 207.688C117.57 207.149 118.628 206.802 120.498 208.082C122.926 209.75 130.638 212.497 128.362 216.808Z" fill="#BCBCBC"/>
<path d="M148.956 193.776C149.093 194.054 149.173 194.354 149.198 194.664C149.461 197.132 146.643 200.51 142.349 202.667C138.609 204.541 134.836 204.934 132.768 203.871C132.161 203.559 131.705 203.125 131.434 202.557C130.245 200.071 133.612 196.793 138.456 194.375C143.29 191.945 147.768 191.29 148.956 193.776Z" fill="#BCBCBC"/>
<path d="M129.368 185.954L129.366 185.966C129.422 187.869 125.914 188.662 121.37 188.934C117.662 189.157 114.685 188.853 113.674 187.701C113.445 187.439 113.314 187.126 113.298 186.769C113.232 184.852 116.569 182.271 121.124 182C125.68 181.729 129.302 184.037 129.368 185.954Z" fill="#BCBCBC"/>
<path d="M177.135 179.615C176.106 183.523 173.48 186.258 171.277 185.715C171.163 185.686 171.056 185.652 170.95 185.606C168.987 184.805 168.187 181.369 169.168 177.67C170.162 173.901 172.634 171.227 174.785 171.523C174.866 171.535 174.947 171.547 175.021 171.564C177.225 172.107 178.176 175.709 177.135 179.615Z" fill="#BCBCBC"/>
<path d="M146.903 175.946C145.785 179.786 143.991 182.771 141.199 182.014C140.931 181.944 140.681 181.841 140.435 181.714C138.161 180.537 137.15 177.154 138.165 173.676C139.283 169.835 142.076 166.364 146.545 167.579C146.573 167.589 146.608 167.595 146.629 167.61C149.318 168.411 148.016 172.14 146.903 175.946Z" fill="#BCBCBC"/>
<path d="M156.568 211.03C156.451 211.648 155.863 212.377 154.682 213.161C150.364 216.052 142.212 214.355 142.326 211.805C142.327 211.763 142.333 211.728 142.339 211.693C142.605 209.255 147.803 209.476 150.114 209.111C153.923 208.508 156.882 209.397 156.568 211.03Z" fill="#BCBCBC"/>
<path d="M170.338 195.268C171.027 196.216 170.436 198.185 168.431 199.789C164.766 202.723 162.097 203.586 160.636 202.631C160.48 202.53 160.341 202.407 160.205 202.261C158.863 200.778 162.521 198.515 164.276 197.084C167.566 194.394 169.63 194.293 170.338 195.268Z" fill="#BCBCBC"/>
<path d="M166.444 165.419C166.466 166.334 165.962 167.339 164.921 168.102C161.644 170.506 155.6 171.377 154.604 168.812C154.487 168.519 154.429 168.234 154.413 167.98C154.295 166.019 156.889 165.109 159.243 164.037C163.951 161.894 166.404 163.452 166.444 165.419Z" fill="#BCBCBC"/>
<path d="M144.44 157.352C144.332 157.288 144.235 157.195 144.139 157.091C143.399 156.231 143.356 154.216 144.799 152.421C145.735 151.252 147.335 150.14 148.73 150.018C149.346 149.965 149.911 150.103 150.382 150.515C151.538 151.551 146.041 158.357 144.44 157.352Z" fill="#BCBCBC"/>
<path d="M123.709 168.199C123.574 168.503 123.273 168.662 122.774 168.588C119.351 168.079 116.858 164.974 117.562 163.639C117.836 163.11 118.162 162.768 118.506 162.567C120.855 161.213 124.379 166.643 123.709 168.199Z" fill="#BCBCBC"/>
<path d="M166.147 154.315C166.053 154.487 165.892 154.625 165.675 154.713C164.774 155.077 162.955 154.65 161.411 153.131C160.511 152.236 160.326 150.877 160.779 150.074C161.277 149.177 162.568 148.967 164.505 150.862C165.613 151.932 166.622 153.414 166.147 154.315Z" fill="#BCBCBC"/>
<path d="M183.888 186.934C183.335 191.158 182.081 195.303 180.161 199.168C179.694 199.255 179.203 199.236 178.826 198.97C178.492 198.734 178.251 198.296 178.219 197.542C178.073 194.629 177.165 190.638 179.945 188.322C180.757 187.644 181.502 187.251 182.174 187.045C182.825 186.854 183.398 186.843 183.888 186.934Z" fill="#BCBCBC"/>
<path d="M175.585 206.333C173.485 208.949 171.009 211.328 168.181 213.403C166.882 214.355 165.547 215.213 164.185 215.976C163.926 215.614 163.715 215.174 163.704 214.681C163.696 214.206 163.873 213.686 164.398 213.159C166.321 211.195 166.387 208.956 169.61 206.867C171.282 205.784 172.957 205.733 174.171 205.937C174.777 206.046 175.255 206.207 175.585 206.333Z" fill="#BCBCBC"/>
<path d="M131.767 153.556C132.159 154.436 131.043 155.673 130.204 155.849C130.025 155.888 129.861 155.876 129.729 155.808C128.848 155.359 130.287 152.256 131.452 153.173C131.598 153.291 131.701 153.42 131.767 153.556Z" fill="#BCBCBC"/>
<path d="M151.196 200.917C150.091 201.113 149.226 201.266 150.568 202.749C151.909 204.232 153.44 203.662 154.535 202.859C155.623 202.06 152.183 200.746 151.196 200.917Z" fill="#9B9B9B"/>
<path d="M135.312 210.931C134.455 211.283 135.358 212.545 135.713 214.199C136.068 215.853 137.439 216.219 138.527 215.421C139.621 214.618 137.022 210.219 135.312 210.931Z" fill="#9B9B9B"/>
<path d="M120.452 197.153C119.526 197.351 118.483 197.502 118.813 198.355C119.144 199.208 122.2 199.986 123.111 199.317C124.022 198.649 123.095 196.586 120.452 197.153Z" fill="#9B9B9B"/>
<path d="M177.266 160.141C178.544 161.926 179.642 163.793 180.558 165.71C180.221 165.804 179.819 165.823 179.332 165.75C176.222 165.288 175.776 161.725 175.598 160.535C175.396 159.209 175.948 158.938 176.34 158.906C176.658 159.307 176.963 159.718 177.266 160.141Z" fill="#9B9B9B"/>
<path d="M159.926 175.871C158.781 176.517 158.802 177.791 160.954 177.307C163.112 176.83 161.511 174.985 159.926 175.871Z" fill="#9B9B9B"/>
<path d="M114.988 196.503C114.671 197.104 115.342 198.156 116.488 197.05C117.63 195.936 115.691 195.169 114.988 196.503Z" fill="#9B9B9B"/>
<path d="M131.841 164.957C131.427 165.537 131.084 166.607 132.484 165.855C133.88 165.097 132.255 164.377 131.841 164.957Z" fill="#9B9B9B"/>
<path d="M134.934 162.687C133.994 162.793 135.235 164.657 136.293 164.976C137.351 165.295 138.015 162.341 134.934 162.687Z" fill="#9B9B9B"/>
<path d="M171.256 201.012C170.925 201.388 171.226 202.129 172.573 201.693C173.922 201.246 172.635 199.448 171.256 201.012Z" fill="#9B9B9B"/>
<path d="M157.601 215.688C157.187 216.268 156.891 217.027 158.244 216.587C159.593 216.139 158.015 215.108 157.601 215.688Z" fill="#9B9B9B"/>
<path d="M139.596 188.595C138.705 189.32 141.589 189.047 142.263 188.829C142.936 188.611 143.287 185.61 139.596 188.595Z" fill="#9B9B9B"/>
<path d="M166.113 162.017C165.907 162.7 168.152 164.083 168.75 163.368C169.348 162.654 166.848 159.553 166.113 162.017Z" fill="#9B9B9B"/>
<path d="M160.486 185.359C160.625 185.727 160.74 186.104 160.83 186.448C161.304 188.239 158.563 191.089 157.273 191.053C157.243 191.055 157.208 191.05 157.173 191.045C155.931 190.86 155.346 188.536 155.095 187.359C154.74 185.705 156.829 182.8 157.995 182.488C158.946 182.251 159.903 183.791 160.486 185.359Z" fill="#BCBCBC"/>
<path d="M113.679 187.708C113.45 187.446 113.319 187.132 113.302 186.776C113.237 184.859 116.574 182.278 121.129 182.007C125.684 181.736 129.307 184.044 129.372 185.961L129.37 185.972C128.856 185.152 127.735 184.296 125.472 183.612C119.581 181.843 113.068 184.522 113.679 187.708Z" fill="#9B9B9B"/>
<path d="M148.956 193.777C149.093 194.055 149.173 194.355 149.198 194.664C148.902 194.41 146.494 192.481 142.702 193.717C138.771 195.004 133.82 197.214 132.687 201.064C132.323 202.294 132.442 203.199 132.763 203.865C132.156 203.552 131.701 203.119 131.429 202.551C130.24 200.065 133.607 196.786 138.451 194.369C143.29 191.945 147.768 191.291 148.956 193.777Z" fill="#9B9B9B"/>
<path d="M140.481 171.219C137.922 174.857 138.839 179.18 140.435 181.714C138.161 180.537 137.15 177.154 138.165 173.676C139.283 169.835 142.076 166.364 146.545 167.579C146.573 167.589 146.608 167.595 146.629 167.61C145.052 167.579 142.638 168.162 140.481 171.219Z" fill="#9B9B9B"/>
<path d="M160.486 185.359C159.52 184.082 158.141 182.851 157.059 184.28C155.952 185.747 156.159 189.455 157.279 191.049C157.249 191.05 157.215 191.045 157.18 191.04C155.938 190.855 155.353 188.531 155.101 187.354C154.747 185.7 156.836 182.795 158.002 182.483C158.946 182.251 159.903 183.791 160.486 185.359Z" fill="#9B9B9B"/>
<path d="M166.444 165.419C165.162 162.746 160.766 164.803 158.347 165.524C155.953 166.236 154.821 167.435 154.406 167.985C154.288 166.024 156.882 165.114 159.236 164.042C163.951 161.894 166.404 163.452 166.444 165.419Z" fill="#9B9B9B"/>
<path d="M144.439 157.352C144.331 157.287 144.234 157.195 144.139 157.091C145.826 157 148.333 154.229 149.439 152.312C150.227 150.936 149.489 150.31 148.734 150.024C149.35 149.972 149.915 150.11 150.386 150.522C151.538 151.55 146.041 158.357 144.439 157.352Z" fill="#9B9B9B"/>
<path d="M123.709 168.199C123.574 168.503 123.273 168.662 122.774 168.588C119.351 168.079 116.858 164.974 117.562 163.639C117.836 163.11 118.162 162.768 118.506 162.567C118.122 162.972 117.716 163.854 118.85 165.438C120.156 167.263 122.119 168.106 123.709 168.199Z" fill="#9B9B9B"/>
<path d="M131.767 153.556C131.485 153.292 131.029 153.176 130.364 153.971C129.82 154.616 129.924 155.297 130.204 155.849C130.025 155.888 129.861 155.876 129.729 155.808C128.848 155.359 130.287 152.256 131.452 153.173C131.598 153.291 131.701 153.42 131.767 153.556Z" fill="#9B9B9B"/>
<path d="M156.569 211.03C155.721 210.178 154.151 209.897 152 210.195C149.221 210.586 146.997 210.58 145.082 210.613C144.079 210.632 143.07 211.178 142.34 211.693C142.606 209.256 147.804 209.476 150.115 209.111C153.924 208.508 156.883 209.397 156.569 211.03Z" fill="#9B9B9B"/>
<path d="M170.338 195.268C169.531 194.764 168.436 195.117 166.968 196.195L161.868 199.935C159.917 201.367 160.592 202.571 160.631 202.625C160.475 202.524 160.336 202.401 160.2 202.255C158.858 200.772 162.516 198.508 164.271 197.078C167.566 194.394 169.63 194.293 170.338 195.268Z" fill="#9B9B9B"/>
<path d="M174.175 205.944C174.772 206.039 175.255 206.207 175.584 206.333C173.485 208.949 171.009 211.328 168.18 213.403C166.882 214.355 165.546 215.213 164.184 215.976C163.925 215.614 163.714 215.174 163.703 214.681C170.763 211.651 173.314 207.784 174.175 205.944Z" fill="#9B9B9B"/>
<path d="M183.888 186.935C183.334 191.159 182.081 195.303 180.161 199.168C179.694 199.255 179.203 199.236 178.826 198.97C182.56 193.365 182.32 188.351 182.178 187.052C182.825 186.855 183.398 186.844 183.888 186.935Z" fill="#9B9B9B"/>
<path d="M174.784 171.523C174.276 171.681 170.801 173.012 170.165 179.323C169.847 182.515 170.332 184.452 170.95 185.606C168.987 184.804 168.186 181.369 169.168 177.67C170.166 173.907 172.634 171.227 174.784 171.523Z" fill="#9B9B9B"/>
<path d="M165.67 154.706C164.769 155.07 162.95 154.644 161.406 153.125C160.506 152.229 160.321 150.87 160.773 150.068C160.755 150.665 160.901 151.448 161.566 152.189C162.654 153.376 164.083 154.314 165.67 154.706Z" fill="#9B9B9B"/>
<path d="M128.362 216.808C127.854 216.546 127.342 216.266 126.844 215.976C127.157 214.559 126.995 212.508 124.298 211.058C120.958 209.26 118.59 207.343 117.047 207.737C117.033 207.717 117.023 207.704 117.002 207.688C117.57 207.149 118.628 206.802 120.498 208.082C122.926 209.75 130.638 212.497 128.362 216.808Z" fill="#9B9B9B"/>
<path opacity="0.45" d="M182.46 193.428C181.852 195.389 181.084 197.314 180.166 199.175C178.921 201.695 177.394 204.095 175.596 206.335C173.496 208.95 171.021 211.329 168.192 213.404C166.894 214.357 165.558 215.214 164.196 215.978C152.799 222.394 139.311 222.441 128.369 216.803C124.102 214.609 120.227 211.556 117.008 207.683C116.435 206.998 115.884 206.287 115.36 205.555C112.059 200.944 109.965 195.817 109.008 190.54C108.152 185.825 108.215 180.988 109.138 176.308C129.606 223.296 165.395 205.629 182.46 193.428Z" fill="url(#paint3_linear_52_2328)"/>
<path d="M177.266 160.141C178.544 161.926 179.641 163.793 180.558 165.71C181.048 166.743 181.495 167.787 181.891 168.847C163.222 145.057 136.357 143.453 113.883 163.902C116.502 159.493 120.042 155.514 124.434 152.292C137.78 142.501 155.123 142.492 167.837 150.997C171.003 153.117 173.879 155.757 176.345 158.913C176.658 159.307 176.963 159.718 177.266 160.141Z" fill="url(#paint4_linear_52_2328)"/>
<path d="M163.993 150.712C153.473 147.24 129.916 140.044 122.023 154.493C114.129 168.942 123.479 159.163 128.795 165.69C134.11 172.216 135.858 173.311 137.02 178.768C139.295 189.453 146.326 199.578 152.869 201.638C159.411 203.697 192.201 204.634 198.375 198.659C204.549 192.684 194.72 182.056 186.268 178.803C177.816 175.551 166.387 196.779 170.317 179.695C171.679 173.77 185.501 173.992 187.716 172.387C189.932 170.782 193.885 159.865 180.752 155.676C166.691 151.191 174.513 154.184 163.993 150.712Z" fill="#E5E5E5" fill-opacity="0.06"/>
</g>
</g>
<defs>
<filter id="filter0_b_52_2328" x="-10" y="-10" width="970" height="713" filterUnits="userSpaceOnUse" color-interpolation-filters="sRGB">
<feFlood flood-opacity="0" result="BackgroundImageFix"/>
<feGaussianBlur in="BackgroundImageFix" stdDeviation="5"/>
<feComposite in2="SourceAlpha" operator="in" result="effect1_backgroundBlur_52_2328"/>
<feBlend mode="normal" in="SourceGraphic" in2="effect1_backgroundBlur_52_2328" result="shape"/>
</filter>
<linearGradient id="paint0_linear_52_2328" x1="345.03" y1="246.447" x2="756.034" y2="1216.78" gradientUnits="userSpaceOnUse">
<stop stop-color="#1A0303"/>
<stop offset="1" stop-color="#6952F4" stop-opacity="0"/>
</linearGradient>
<radialGradient id="paint1_radial_52_2328" cx="0" cy="0" r="1" gradientUnits="userSpaceOnUse" gradientTransform="translate(146.364 182.919) rotate(-36.2642) scale(45.9839 45.0097)">
<stop stop-color="#F8F8F8"/>
<stop offset="1" stop-color="white" stop-opacity="0"/>
</radialGradient>
<radialGradient id="paint2_radial_52_2328" cx="0" cy="0" r="1" gradientUnits="userSpaceOnUse" gradientTransform="translate(133.364 167.673) rotate(-36.2642) scale(58.6226 57.3806)">
<stop stop-color="#E8E8E8"/>
<stop offset="1" stop-color="#DFDFDF"/>
</radialGradient>
<linearGradient id="paint3_linear_52_2328" x1="171.969" y1="231.434" x2="116.596" y2="156.561" gradientUnits="userSpaceOnUse">
<stop/>
<stop offset="1" stop-opacity="0.2"/>
</linearGradient>
<linearGradient id="paint4_linear_52_2328" x1="151.96" y1="132.078" x2="148.646" y2="166.567" gradientUnits="userSpaceOnUse">
<stop stop-color="#B7B7B7"/>
<stop offset="0.557292" stop-color="#AEAEAE" stop-opacity="0.2"/>
</linearGradient>
<clipPath id="clip0_52_2328">
<rect width="950" height="693" fill="white"/>
</clipPath>
<clipPath id="clip1_52_2328">
<rect width="99.391" height="97.2191" fill="white" transform="matrix(0.806298 -0.59151 0.582089 0.813125 78 172.791)"/>
</clipPath>
</defs>
</svg>
