<svg width="1440" height="1024" viewBox="0 0 1440 1024" fill="none" xmlns="http://www.w3.org/2000/svg">
<g clip-path="url(#clip0_52_2761)">
<rect width="1440" height="1024" fill="#3D3030"/>
<g clip-path="url(#clip1_52_2761)" filter="url(#filter0_b_52_2761)">
<rect width="1440" height="1024" fill="url(#paint0_linear_52_2761)"/>
<g filter="url(#filter1_f_52_2761)">
<path d="M1047.97 1093.6C1047.97 1237.41 922.714 1354 768.202 1354C613.69 1354 57 1205.12 57 1061.3C57 917.488 613.69 694 768.202 694C922.714 694 1962.37 1202.47 1047.97 1093.6Z" fill="#F59259" fill-opacity="0.8"/>
</g>
<g filter="url(#filter2_f_52_2761)">
<ellipse cx="256.5" cy="269.5" rx="137.5" ry="7.5" fill="#08534E" fill-opacity="0.92"/>
</g>
<rect x="146" y="133" width="1" height="1" rx="0.5" fill="#D9D9D9"/>
<rect x="204" y="226" width="1" height="1" rx="0.5" fill="#D9D9D9"/>
<rect x="353" y="147" width="1" height="1" rx="0.5" fill="#D9D9D9"/>
<rect x="325" y="200" width="1" height="1" rx="0.5" fill="#D9D9D9"/>
<rect x="168" y="295" width="1" height="1" rx="0.5" fill="#D9D9D9"/>
<rect x="91" y="279" width="1" height="1" rx="0.5" fill="#D9D9D9" fill-opacity="0.6"/>
<rect x="420" y="261" width="1" height="1" rx="0.5" fill="#D9D9D9" fill-opacity="0.1"/>
<rect x="450" y="233" width="1" height="1" rx="0.5" fill="#D9D9D9" fill-opacity="0.1"/>
<rect x="376" y="213" width="5" height="5" rx="2.5" fill="#D9D9D9" fill-opacity="0.7"/>
<rect x="430" y="181" width="4" height="4" rx="2" fill="#D9D9D9" fill-opacity="0.75"/>
<rect x="242" y="116" width="4" height="5" rx="2" fill="#D9D9D9" fill-opacity="0.8"/>
<rect x="225" y="256" width="4" height="4" rx="2" fill="#D9D9D9" fill-opacity="0.72"/>
<rect x="304" y="240" width="4" height="5" rx="2" fill="#D9D9D9" fill-opacity="0.5"/>
<rect x="486" y="227" width="4" height="4" rx="2" fill="#D9D9D9" fill-opacity="0.1"/>
<rect x="446" y="252" width="4" height="4" rx="2" fill="#D9D9D9" fill-opacity="0.75"/>
<rect x="487" y="184" width="5" height="5" rx="2.5" fill="#D9D9D9" fill-opacity="0.1"/>
<rect x="456" y="147" width="4" height="4" rx="2" fill="#D9D9D9" fill-opacity="0.8"/>
<rect x="500" y="291" width="4" height="4" rx="2" fill="#D9D9D9"/>
<rect x="55" y="231" width="4" height="5" rx="2" fill="#D9D9D9"/>
<rect x="77" y="177" width="5" height="5" rx="2.5" fill="#D9D9D9"/>
<rect x="43" y="133" width="4" height="4" rx="2" fill="#D9D9D9"/>
<rect x="43" y="133" width="4" height="4" rx="2" fill="#D9D9D9" fill-opacity="0.5"/>
<rect x="165" y="85" width="4" height="4" rx="2" fill="#D9D9D9" fill-opacity="0.8"/>
<rect x="125" y="214" width="1" height="1" rx="0.5" fill="#D9D9D9"/>
<rect x="219" y="177" width="1" height="1" rx="0.5" fill="#D9D9D9"/>
<rect x="269" y="234" width="1" height="1" rx="0.5" fill="#D9D9D9"/>
<rect x="246" y="184" width="1" height="1" rx="0.5" fill="#D9D9D9" fill-opacity="0.55"/>
<rect x="282" y="165" width="1" height="1" rx="0.5" fill="#D9D9D9" fill-opacity="0.55"/>
<rect x="246" y="149" width="1" height="1" rx="0.5" fill="#D9D9D9" fill-opacity="0.8"/>
<rect x="171" y="194" width="1" height="1" rx="0.5" fill="#D9D9D9"/>
<g clip-path="url(#clip2_52_2761)">
<path d="M1131.39 348.391C1102.43 374.072 1111.84 422.806 1150.23 432.636C1168 437.226 1187.97 431.303 1200.76 415.846C1207.62 407.561 1211.48 397.524 1212.23 387.584C1215.62 344.303 1164.89 318.658 1131.39 348.391Z" fill="url(#paint1_radial_52_2761)"/>
<path d="M1194.27 362.141C1195.54 363.926 1196.64 365.792 1197.56 367.71C1198.05 368.742 1198.49 369.786 1198.89 370.847C1201.05 376.674 1201.68 382.886 1200.89 388.934C1200.6 391.129 1200.13 393.301 1199.46 395.427C1198.85 397.388 1198.08 399.313 1197.17 401.174C1195.92 403.694 1194.39 406.095 1192.6 408.335C1190.5 410.95 1188.02 413.329 1185.19 415.404C1183.89 416.357 1182.56 417.214 1181.2 417.977C1169.8 424.393 1156.31 424.441 1145.37 418.802C1141.1 416.609 1137.23 413.556 1134.01 409.683C1133.43 408.998 1132.88 408.286 1132.36 407.555C1129.06 402.944 1126.97 397.816 1126.01 392.54C1125.15 387.824 1125.22 382.987 1126.14 378.308C1126.99 373.978 1128.58 369.77 1130.88 365.901C1133.5 361.492 1137.04 357.514 1141.43 354.291C1154.78 344.5 1172.12 344.492 1184.84 352.996C1188 355.116 1190.88 357.757 1193.34 360.912C1193.66 361.307 1193.96 361.718 1194.27 362.141Z" fill="url(#paint2_radial_52_2761)"/>
<path d="M1145.36 418.807C1144.85 418.546 1144.34 418.266 1143.84 417.976C1140.19 415.874 1136.87 413.12 1134.05 409.737C1134.03 409.717 1134.02 409.703 1134 409.688C1134.57 409.149 1135.63 408.802 1137.5 410.081C1139.93 411.75 1147.64 414.497 1145.36 418.807Z" fill="#BCBCBC"/>
<path d="M1165.96 395.776C1166.09 396.054 1166.17 396.354 1166.2 396.663C1166.46 399.132 1163.64 402.51 1159.35 404.667C1155.61 406.54 1151.84 406.933 1149.77 405.87C1149.16 405.558 1148.71 405.125 1148.43 404.557C1147.25 402.071 1150.61 398.792 1155.46 396.375C1160.29 393.944 1164.77 393.29 1165.96 395.776Z" fill="#BCBCBC"/>
<path d="M1146.37 387.953L1146.37 387.965C1146.42 389.869 1142.91 390.661 1138.37 390.934C1134.66 391.156 1131.69 390.852 1130.67 389.7C1130.45 389.438 1130.31 389.125 1130.3 388.769C1130.23 386.851 1133.57 384.27 1138.12 383.999C1142.68 383.728 1146.3 386.036 1146.37 387.953Z" fill="#BCBCBC"/>
<path d="M1194.14 381.614C1193.11 385.522 1190.48 388.257 1188.28 387.714C1188.16 387.685 1188.06 387.651 1187.95 387.605C1185.99 386.804 1185.19 383.368 1186.17 379.669C1187.16 375.9 1189.63 373.226 1191.78 373.522C1191.87 373.534 1191.95 373.546 1192.02 373.563C1194.23 374.106 1195.18 377.708 1194.14 381.614Z" fill="#BCBCBC"/>
<path d="M1163.9 377.945C1162.78 381.785 1160.99 384.77 1158.2 384.013C1157.93 383.943 1157.68 383.84 1157.44 383.713C1155.16 382.536 1154.15 379.153 1155.16 375.675C1156.28 371.834 1159.08 368.363 1163.54 369.578C1163.57 369.588 1163.61 369.594 1163.63 369.609C1166.32 370.41 1165.02 374.139 1163.9 377.945Z" fill="#BCBCBC"/>
<path d="M1173.57 413.029C1173.45 413.648 1172.86 414.376 1171.68 415.16C1167.36 418.051 1159.21 416.354 1159.33 413.804C1159.33 413.762 1159.33 413.727 1159.34 413.692C1159.61 411.255 1164.8 411.475 1167.11 411.111C1170.92 410.507 1173.88 411.396 1173.57 413.029Z" fill="#BCBCBC"/>
<path d="M1187.34 397.267C1188.03 398.215 1187.44 400.185 1185.43 401.788C1181.77 404.722 1179.1 405.585 1177.64 404.631C1177.48 404.53 1177.34 404.407 1177.2 404.261C1175.86 402.778 1179.52 400.514 1181.28 399.083C1184.57 396.393 1186.63 396.292 1187.34 397.267Z" fill="#BCBCBC"/>
<path d="M1183.44 367.418C1183.47 368.333 1182.96 369.338 1181.92 370.101C1178.64 372.505 1172.6 373.377 1171.6 370.812C1171.49 370.518 1171.43 370.234 1171.41 369.98C1171.29 368.019 1173.89 367.109 1176.24 366.037C1180.95 363.893 1183.4 365.451 1183.44 367.418Z" fill="#BCBCBC"/>
<path d="M1161.44 359.351C1161.33 359.287 1161.23 359.194 1161.14 359.09C1160.4 358.231 1160.36 356.215 1161.8 354.42C1162.74 353.252 1164.33 352.14 1165.73 352.017C1166.35 351.965 1166.91 352.103 1167.38 352.514C1168.54 353.55 1163.04 360.357 1161.44 359.351Z" fill="#BCBCBC"/>
<path d="M1140.71 370.198C1140.57 370.502 1140.27 370.661 1139.77 370.587C1136.35 370.079 1133.86 366.973 1134.56 365.638C1134.84 365.109 1135.16 364.768 1135.51 364.567C1137.85 363.212 1141.38 368.642 1140.71 370.198Z" fill="#BCBCBC"/>
<path d="M1183.15 356.314C1183.05 356.486 1182.89 356.624 1182.67 356.712C1181.77 357.076 1179.96 356.65 1178.41 355.131C1177.51 354.235 1177.33 352.876 1177.78 352.074C1178.28 351.176 1179.57 350.966 1181.51 352.861C1182.61 353.932 1183.62 355.413 1183.15 356.314Z" fill="#BCBCBC"/>
<path d="M1200.89 388.934C1200.33 393.158 1199.08 397.302 1197.16 401.167C1196.69 401.254 1196.2 401.235 1195.83 400.969C1195.49 400.734 1195.25 400.296 1195.22 399.541C1195.07 396.629 1194.17 392.637 1196.95 390.321C1197.76 389.644 1198.5 389.251 1199.17 389.045C1199.82 388.854 1200.4 388.843 1200.89 388.934Z" fill="#BCBCBC"/>
<path d="M1192.58 408.333C1190.49 410.948 1188.01 413.327 1185.18 415.402C1183.88 416.355 1182.55 417.212 1181.19 417.975C1180.93 417.613 1180.71 417.174 1180.7 416.68C1180.7 416.205 1180.87 415.686 1181.4 415.158C1183.32 413.194 1183.39 410.955 1186.61 408.867C1188.28 407.783 1189.96 407.732 1191.17 407.937C1191.78 408.045 1192.26 408.206 1192.58 408.333Z" fill="#BCBCBC"/>
<path d="M1148.77 355.555C1149.16 356.435 1148.04 357.673 1147.2 357.848C1147.03 357.887 1146.86 357.875 1146.73 357.807C1145.85 357.359 1147.29 354.255 1148.45 355.172C1148.6 355.29 1148.7 355.419 1148.77 355.555Z" fill="#BCBCBC"/>
<path d="M1168.2 402.916C1167.09 403.112 1166.23 403.266 1167.57 404.748C1168.91 406.231 1170.44 405.661 1171.54 404.858C1172.62 404.06 1169.18 402.745 1168.2 402.916Z" fill="#9B9B9B"/>
<path d="M1152.31 412.93C1151.46 413.283 1152.36 414.545 1152.71 416.199C1153.07 417.853 1154.44 418.218 1155.53 417.42C1156.62 416.617 1154.02 412.219 1152.31 412.93Z" fill="#9B9B9B"/>
<path d="M1137.45 399.152C1136.53 399.351 1135.48 399.502 1135.81 400.355C1136.14 401.207 1139.2 401.985 1140.11 401.317C1141.02 400.649 1140.09 398.585 1137.45 399.152Z" fill="#9B9B9B"/>
<path d="M1194.27 362.141C1195.54 363.926 1196.64 365.792 1197.56 367.71C1197.22 367.804 1196.82 367.822 1196.33 367.75C1193.22 367.288 1192.78 363.725 1192.6 362.535C1192.4 361.209 1192.95 360.937 1193.34 360.905C1193.66 361.307 1193.96 361.718 1194.27 362.141Z" fill="#9B9B9B"/>
<path d="M1176.93 377.87C1175.78 378.516 1175.8 379.791 1177.95 379.307C1180.11 378.829 1178.51 376.984 1176.93 377.87Z" fill="#9B9B9B"/>
<path d="M1131.99 398.503C1131.67 399.103 1132.34 400.156 1133.49 399.049C1134.63 397.936 1132.69 397.168 1131.99 398.503Z" fill="#9B9B9B"/>
<path d="M1148.84 366.956C1148.43 367.536 1148.08 368.606 1149.48 367.855C1150.88 367.097 1149.25 366.376 1148.84 366.956Z" fill="#9B9B9B"/>
<path d="M1151.93 364.686C1150.99 364.793 1152.24 366.656 1153.29 366.976C1154.35 367.295 1155.02 364.34 1151.93 364.686Z" fill="#9B9B9B"/>
<path d="M1188.26 403.012C1187.92 403.388 1188.23 404.128 1189.57 403.693C1190.92 403.246 1189.64 401.448 1188.26 403.012Z" fill="#9B9B9B"/>
<path d="M1174.6 417.687C1174.19 418.267 1173.89 419.027 1175.24 418.586C1176.59 418.139 1175.02 417.107 1174.6 417.687Z" fill="#9B9B9B"/>
<path d="M1156.6 390.594C1155.7 391.32 1158.59 391.046 1159.26 390.829C1159.94 390.611 1160.29 387.61 1156.6 390.594Z" fill="#9B9B9B"/>
<path d="M1183.11 364.017C1182.91 364.7 1185.15 366.083 1185.75 365.368C1186.35 364.653 1183.85 361.553 1183.11 364.017Z" fill="#9B9B9B"/>
<path d="M1177.49 387.358C1177.63 387.727 1177.74 388.104 1177.83 388.447C1178.3 390.239 1175.56 393.088 1174.27 393.053C1174.24 393.054 1174.21 393.049 1174.17 393.044C1172.93 392.859 1172.35 390.535 1172.09 389.358C1171.74 387.704 1173.83 384.8 1175 384.487C1175.95 384.25 1176.9 385.79 1177.49 387.358Z" fill="#BCBCBC"/>
<path d="M1130.68 389.707C1130.45 389.445 1130.32 389.132 1130.3 388.775C1130.24 386.858 1133.57 384.277 1138.13 384.006C1142.68 383.735 1146.31 386.043 1146.37 387.96L1146.37 387.972C1145.86 387.151 1144.73 386.295 1142.47 385.611C1136.58 383.842 1130.07 386.521 1130.68 389.707Z" fill="#9B9B9B"/>
<path d="M1165.96 395.776C1166.09 396.054 1166.17 396.354 1166.2 396.663C1165.9 396.409 1163.49 394.48 1159.7 395.716C1155.77 397.003 1150.82 399.213 1149.69 403.063C1149.32 404.293 1149.44 405.198 1149.76 405.864C1149.16 405.551 1148.7 405.118 1148.43 404.55C1147.24 402.064 1150.61 398.785 1155.45 396.368C1160.29 393.944 1164.77 393.29 1165.96 395.776Z" fill="#9B9B9B"/>
<path d="M1157.48 373.218C1154.92 376.856 1155.84 381.179 1157.44 383.713C1155.16 382.536 1154.15 379.153 1155.16 375.675C1156.28 371.834 1159.08 368.363 1163.54 369.578C1163.57 369.588 1163.61 369.594 1163.63 369.609C1162.05 369.578 1159.64 370.162 1157.48 373.218Z" fill="#9B9B9B"/>
<path d="M1177.49 387.358C1176.52 386.081 1175.14 384.851 1174.06 386.279C1172.95 387.746 1173.16 391.454 1174.28 393.048C1174.25 393.049 1174.21 393.044 1174.18 393.039C1172.94 392.855 1172.35 390.53 1172.1 389.353C1171.75 387.699 1173.84 384.795 1175 384.482C1175.95 384.25 1176.9 385.79 1177.49 387.358Z" fill="#9B9B9B"/>
<path d="M1183.44 367.418C1182.16 364.745 1177.77 366.803 1175.35 367.523C1172.95 368.235 1171.82 369.434 1171.41 369.984C1171.29 368.024 1173.88 367.113 1176.24 366.042C1180.95 363.893 1183.4 365.451 1183.44 367.418Z" fill="#9B9B9B"/>
<path d="M1161.44 359.351C1161.33 359.287 1161.23 359.194 1161.14 359.09C1162.83 358.999 1165.33 356.228 1166.44 354.311C1167.23 352.935 1166.49 352.31 1165.73 352.024C1166.35 351.971 1166.92 352.109 1167.39 352.521C1168.54 353.55 1163.04 360.356 1161.44 359.351Z" fill="#9B9B9B"/>
<path d="M1140.71 370.198C1140.57 370.502 1140.27 370.661 1139.77 370.587C1136.35 370.079 1133.86 366.973 1134.56 365.638C1134.84 365.109 1135.16 364.768 1135.51 364.567C1135.12 364.972 1134.72 365.853 1135.85 367.437C1137.16 369.263 1139.12 370.106 1140.71 370.198Z" fill="#9B9B9B"/>
<path d="M1148.77 355.555C1148.48 355.291 1148.03 355.175 1147.36 355.97C1146.82 356.615 1146.92 357.296 1147.2 357.848C1147.03 357.887 1146.86 357.875 1146.73 357.807C1145.85 357.359 1147.29 354.255 1148.45 355.172C1148.6 355.29 1148.7 355.419 1148.77 355.555Z" fill="#9B9B9B"/>
<path d="M1173.57 413.029C1172.72 412.178 1171.15 411.896 1169 412.195C1166.22 412.585 1164 412.579 1162.08 412.612C1161.08 412.631 1160.07 413.177 1159.34 413.692C1159.61 411.255 1164.8 411.475 1167.11 411.111C1170.92 410.507 1173.88 411.397 1173.57 413.029Z" fill="#9B9B9B"/>
<path d="M1187.34 397.267C1186.53 396.763 1185.44 397.116 1183.97 398.194L1178.87 401.934C1176.92 403.366 1177.59 404.57 1177.63 404.624C1177.48 404.523 1177.34 404.4 1177.2 404.254C1175.86 402.771 1179.52 400.507 1181.27 399.077C1184.57 396.393 1186.63 396.292 1187.34 397.267Z" fill="#9B9B9B"/>
<path d="M1191.18 407.943C1191.77 408.038 1192.25 408.206 1192.58 408.333C1190.48 410.948 1188.01 413.327 1185.18 415.402C1183.88 416.355 1182.55 417.212 1181.18 417.975C1180.93 417.613 1180.71 417.174 1180.7 416.68C1187.76 413.65 1190.31 409.783 1191.18 407.943Z" fill="#9B9B9B"/>
<path d="M1200.89 388.934C1200.33 393.158 1199.08 397.302 1197.16 401.168C1196.69 401.254 1196.2 401.235 1195.83 400.969C1199.56 395.364 1199.32 390.35 1199.18 389.052C1199.82 388.854 1200.4 388.843 1200.89 388.934Z" fill="#9B9B9B"/>
<path d="M1191.78 373.522C1191.28 373.68 1187.8 375.011 1187.17 381.323C1186.85 384.514 1187.33 386.452 1187.95 387.605C1185.99 386.804 1185.19 383.368 1186.17 379.669C1187.17 375.907 1189.63 373.226 1191.78 373.522Z" fill="#9B9B9B"/>
<path d="M1182.67 356.705C1181.77 357.069 1179.95 356.643 1178.41 355.124C1177.51 354.229 1177.32 352.87 1177.77 352.067C1177.75 352.664 1177.9 353.447 1178.57 354.188C1179.65 355.375 1181.08 356.313 1182.67 356.705Z" fill="#9B9B9B"/>
<path d="M1145.36 418.807C1144.85 418.546 1144.34 418.266 1143.84 417.976C1144.16 416.559 1144 414.508 1141.3 413.057C1137.96 411.259 1135.59 409.342 1134.05 409.737C1134.03 409.717 1134.02 409.703 1134 409.688C1134.57 409.149 1135.63 408.802 1137.5 410.081C1139.93 411.75 1147.64 414.497 1145.36 418.807Z" fill="#9B9B9B"/>
<path opacity="0.45" d="M1199.46 395.427C1198.85 397.388 1198.08 399.313 1197.17 401.174C1195.92 403.694 1194.39 406.095 1192.6 408.335C1190.5 410.95 1188.02 413.329 1185.19 415.404C1183.89 416.357 1182.56 417.214 1181.2 417.977C1169.8 424.393 1156.31 424.441 1145.37 418.802C1141.1 416.609 1137.23 413.556 1134.01 409.683C1133.43 408.998 1132.88 408.286 1132.36 407.555C1129.06 402.944 1126.97 397.816 1126.01 392.54C1125.15 387.824 1125.22 382.987 1126.14 378.308C1146.61 425.296 1182.39 407.629 1199.46 395.427Z" fill="url(#paint3_linear_52_2761)"/>
<path d="M1194.27 362.14C1195.54 363.926 1196.64 365.792 1197.56 367.71C1198.05 368.742 1198.49 369.786 1198.89 370.847C1180.22 347.056 1153.36 345.452 1130.88 365.901C1133.5 361.492 1137.04 357.514 1141.43 354.291C1154.78 344.5 1172.12 344.492 1184.84 352.996C1188 355.116 1190.88 357.757 1193.34 360.912C1193.66 361.306 1193.96 361.718 1194.27 362.14Z" fill="url(#paint4_linear_52_2761)"/>
<path d="M1180.99 352.712C1170.47 349.24 1146.92 342.044 1139.02 356.493C1131.13 370.942 1140.48 361.163 1145.79 367.689C1151.11 374.216 1152.86 375.311 1154.02 380.767C1156.29 391.453 1163.33 401.578 1169.87 403.637C1176.41 405.696 1209.2 406.634 1215.38 400.659C1221.55 394.683 1211.72 384.055 1203.27 380.803C1194.82 377.55 1183.39 398.778 1187.32 381.695C1188.68 375.77 1202.5 375.992 1204.72 374.387C1206.93 372.782 1210.88 361.865 1197.75 357.676C1183.69 353.191 1191.51 356.184 1180.99 352.712Z" fill="#E5E5E5" fill-opacity="0.06"/>
</g>
<path d="M277.033 539C248.387 539 223.43 524.687 210.51 503.551C182.006 456.95 221.322 400.378 278.714 402.036C315.223 402.704 346.063 426.974 351.946 459.25C359.667 500.904 323.984 539 277.033 539Z" fill="url(#paint5_radial_52_2761)"/>
<g opacity="0.75">
<path d="M307.197 481.58C304.049 480.873 303.18 484.407 304.961 485.203C306.741 486.013 311.214 488.428 312.112 486.809C313.009 485.203 310.773 482.39 307.197 481.58Z" fill="#056DB1"/>
<path d="M338.463 451.771C335.414 452.401 331.768 453.789 334.887 455.806C338.021 457.823 342.921 457.014 343.377 454.598C343.819 452.17 344.275 450.564 338.463 451.771Z" fill="#056DB1"/>
<path d="M277.269 516.629C270.716 513.083 261.187 511.798 260.289 515.422C259.392 519.045 265.645 524.685 273.238 523.876C280.844 523.079 281.742 519.045 277.269 516.629Z" fill="#056DB1"/>
<path d="M298.631 536.186C292.719 537.767 286.508 538.717 280.084 538.936C281.551 530.546 290.397 533.193 295.126 534.349C296.508 534.696 297.662 535.377 298.631 536.186Z" fill="#056DB1"/>
<path d="M235.726 516.231C238.618 517.375 240.641 511.799 236.624 506.968C232.606 502.137 230.812 496.085 225.897 494.877C220.983 493.669 218.305 509.383 235.726 516.231Z" fill="#056DB1"/>
<path d="M216.07 496.484C214.489 496.741 213.833 499.709 217.409 500.107C220.984 500.518 220.984 495.687 216.07 496.484Z" fill="#056DB1"/>
<path d="M255.823 479.974C252.675 479.717 249.569 481.181 250.011 484.406C250.452 487.631 255.367 484.406 257.603 484.406C259.84 484.406 260.737 480.372 255.823 479.974Z" fill="#056DB1"/>
<path d="M286.65 442.508C283.943 441.351 283.516 446.542 285.753 447.339C287.989 448.148 294.242 445.72 286.65 442.508Z" fill="#056DB1"/>
</g>
<path d="M258.058 468.693C242.873 471.108 240.637 471.506 226.791 481.991C217.631 488.916 208.073 486.68 202.66 484.368C201.649 479.896 201.107 475.258 201.107 470.504C201.107 451.026 210.124 433.436 224.597 420.973C227.574 422.567 230.651 424.725 233.044 427.603C239.739 435.659 238.4 438.884 258.058 448.148C277.702 457.412 273.243 466.277 258.058 468.693Z" fill="url(#paint6_linear_52_2761)"/>
<path d="M345.665 441.158C331.648 438.511 322.09 452.811 312.546 451.77C301.378 450.563 304.512 435.659 295.125 419.945C290.424 412.082 290.096 406.634 290.937 403.165C315.195 407.199 335.395 421.641 345.665 441.158Z" fill="url(#paint7_linear_52_2761)"/>
<path d="M352.968 470.503C352.968 497.086 336.188 520.123 311.659 531.481C306.06 523.502 315.134 517.579 325.946 511.399C339.351 503.742 326.844 500.517 329.066 488.028C331.302 475.539 322.812 474.73 326.829 464.258C329.693 456.781 344.621 463.873 352.926 468.55C352.954 469.192 352.968 469.847 352.968 470.503Z" fill="url(#paint8_linear_52_2761)"/>
<path d="M281.73 491.254C273.611 493.529 269.223 484.804 258.953 486.822C248.682 488.839 240.193 505.349 254.038 504.951C267.884 504.553 271.46 502.934 281.73 509.384C292.001 515.833 304.066 511.401 307.642 501.328C311.203 491.254 308.966 483.597 281.73 491.254Z" fill="url(#paint9_linear_52_2761)"/>
<path d="M298.702 461.034C294.428 462.267 293.346 464.259 294.685 466.674C296.024 469.09 301.38 468.691 304.058 472.315C306.736 475.938 313.445 480.371 315.225 472.315C317.02 464.259 308.53 458.207 298.702 461.034Z" fill="url(#paint10_linear_52_2761)"/>
<path opacity="0.5" d="M283.075 440.078C282.277 445.448 276.821 440.078 267.89 438.472C258.958 436.866 255.383 432.022 259.4 428.797C263.417 425.572 268.773 423.156 274.143 425.97C279.499 428.797 283.958 434.039 283.075 440.078Z" fill="#056DB1"/>
<path d="M273.689 408.252C262.521 408.252 257.165 413.893 246.895 417.118C240.769 419.032 235.926 416.809 233.006 414.702C245.427 406.71 260.626 402.008 277.051 402.008C277.62 402.008 278.176 402.008 278.732 402.033C279.515 404.937 279.23 408.252 273.689 408.252Z" fill="url(#paint11_linear_52_2761)"/>
<path opacity="0.45" d="M349.353 491.461C343.156 508.871 329.438 523.248 311.661 531.484C307.516 533.398 303.157 534.979 298.627 536.199C292.715 537.78 286.505 538.73 280.08 538.949C279.069 538.987 278.058 539 277.032 539C248.386 539 223.429 524.687 210.509 503.551C206.891 497.641 204.213 491.191 202.66 484.369C201.649 479.897 201.107 475.259 201.107 470.505C201.107 462.231 202.731 454.303 205.708 446.967C214.298 470.107 233.956 499.967 278.642 505.504C287.359 506.584 295.507 506.725 303.114 506.134C321.775 504.656 337.131 498.772 349.353 491.461Z" fill="url(#paint12_linear_52_2761)"/>
<path opacity="0.45" d="M352.97 470.505C352.97 477.815 351.702 484.856 349.351 491.46C343.155 508.87 329.437 523.247 311.66 531.483C307.515 533.398 303.156 534.978 298.626 536.199C292.714 537.779 286.504 538.73 280.079 538.948C279.068 538.987 278.056 539 277.031 539C248.385 539 223.428 524.686 210.508 503.551C223.641 508.42 239.282 511.748 257.829 512.403C275.82 513.046 290.749 510.54 303.113 506.12C329.694 496.638 344.508 478.291 352.542 463.181C352.756 464.941 352.884 466.74 352.941 468.539C352.955 469.194 352.97 469.849 352.97 470.505Z" fill="url(#paint13_linear_52_2761)"/>
<path d="M351.96 459.288C351.96 459.288 341.148 423.569 291.434 411.813C261.634 404.759 240.95 411.119 229.17 417.338C266.79 389.637 324.325 400.635 345.664 441.159C350.621 450.551 351.604 457.978 351.96 459.288Z" fill="url(#paint14_linear_52_2761)"/>
<path d="M1003.45 1459C835.188 1602.66 571.905 1590.43 415.393 1431.68C258.88 1272.94 268.403 1027.79 436.664 884.123C604.925 740.461 868.208 752.691 1024.72 911.437C1181.23 1070.18 1171.71 1315.33 1003.45 1459Z" fill="url(#paint15_diamond_52_2761)"/>
<rect x="453.838" y="45.4246" width="0.47289" height="0.383887" rx="0.191943" transform="rotate(18.5132 453.838 45.4246)" fill="#D9D9D9"/>
<rect x="468.508" y="87.9871" width="0.47289" height="0.383887" rx="0.191943" transform="rotate(18.5132 468.508 87.9871)" fill="#D9D9D9"/>
<rect x="544.953" y="81.6028" width="0.47289" height="0.383887" rx="0.191943" transform="rotate(18.5132 544.953 81.6028)" fill="#D9D9D9"/>
<rect x="525.938" y="96.6919" width="0.47289" height="0.383887" rx="0.191943" transform="rotate(18.5132 525.938 96.6919)" fill="#D9D9D9"/>
<rect x="443.955" y="107.699" width="0.47289" height="0.383887" rx="0.191943" transform="rotate(18.5132 443.955 107.699)" fill="#D9D9D9"/>
<rect x="411.377" y="90.313" width="0.47289" height="0.383887" rx="0.191943" transform="rotate(18.5132 411.377 90.313)" fill="#D9D9D9" fill-opacity="0.6"/>
<rect x="561.102" y="133.161" width="0.47289" height="0.383887" rx="0.191943" transform="rotate(18.5132 561.102 133.161)" fill="#D9D9D9" fill-opacity="0.1"/>
<rect x="577.967" y="127.473" width="0.47289" height="0.383887" rx="0.191943" transform="rotate(18.5132 577.967 127.473)" fill="#D9D9D9" fill-opacity="0.1"/>
<rect x="547.221" y="109.081" width="2.36445" height="1.91943" rx="0.959717" transform="rotate(18.5132 547.221 109.081)" fill="#D9D9D9" fill-opacity="0.7"/>
<rect x="575.336" y="105.541" width="1.89156" height="1.53555" rx="0.767774" transform="rotate(18.5132 575.336 105.541)" fill="#D9D9D9" fill-opacity="0.75"/>
<rect x="498.957" y="53.6506" width="1.89156" height="1.91943" rx="0.94578" transform="rotate(18.5132 498.957 53.6506)" fill="#D9D9D9" fill-opacity="0.8"/>
<rect x="474.27" y="102.062" width="1.89156" height="1.53555" rx="0.767774" transform="rotate(18.5132 474.27 102.062)" fill="#D9D9D9" fill-opacity="0.72"/>
<rect x="511.643" y="108.099" width="1.89156" height="1.91943" rx="0.94578" transform="rotate(18.5132 511.643 108.099)" fill="#D9D9D9" fill-opacity="0.5"/>
<rect x="594.842" y="130.695" width="1.89156" height="1.53555" rx="0.767774" transform="rotate(18.5132 594.842 130.695)" fill="#D9D9D9" fill-opacity="0.1"/>
<rect x="573.857" y="133.79" width="1.89156" height="1.53555" rx="0.767774" transform="rotate(18.5132 573.857 133.79)" fill="#D9D9D9" fill-opacity="0.75"/>
<rect x="600.531" y="115.192" width="2.36445" height="1.91943" rx="0.959717" transform="rotate(18.5132 600.531 115.192)" fill="#D9D9D9" fill-opacity="0.1"/>
<rect x="591.141" y="97.0688" width="1.89156" height="1.53555" rx="0.767774" transform="rotate(18.5132 591.141 97.0688)" fill="#D9D9D9" fill-opacity="0.8"/>
<rect x="593.316" y="156.094" width="1.89156" height="1.53555" rx="0.767774" transform="rotate(18.5132 593.316 156.094)" fill="#D9D9D9"/>
<rect x="401.084" y="67.4341" width="1.89156" height="1.91943" rx="0.94578" transform="rotate(18.5132 401.084 67.4341)" fill="#D9D9D9"/>
<rect x="417.533" y="51.0808" width="2.36445" height="1.91943" rx="0.959717" transform="rotate(18.5132 417.533 51.0808)" fill="#D9D9D9"/>
<rect x="407.648" y="29.9585" width="1.89156" height="1.53555" rx="0.767774" transform="rotate(18.5132 407.648 29.9585)" fill="#D9D9D9" fill-opacity="0.5"/>
<rect x="468.207" y="30.8044" width="1.89156" height="1.53555" rx="0.767774" transform="rotate(18.5132 468.207 30.8044)" fill="#D9D9D9" fill-opacity="0.8"/>
<rect x="434.547" y="71.7573" width="0.47289" height="0.383887" rx="0.191943" transform="rotate(18.5132 434.547 71.7573)" fill="#D9D9D9"/>
<rect x="481.209" y="72.4028" width="0.47289" height="0.383887" rx="0.191943" transform="rotate(18.5132 481.209 72.4028)" fill="#D9D9D9"/>
<rect x="496.682" y="100.66" width="0.47289" height="0.383887" rx="0.191943" transform="rotate(18.5132 496.682 100.66)" fill="#D9D9D9"/>
<rect x="492.461" y="79.0046" width="0.47289" height="0.383887" rx="0.191943" transform="rotate(18.5132 492.461 79.0046)" fill="#D9D9D9" fill-opacity="0.55"/>
<rect x="514.754" y="75.1548" width="0.47289" height="0.383887" rx="0.191943" transform="rotate(18.5132 514.754 75.1548)" fill="#D9D9D9" fill-opacity="0.55"/>
<rect x="496.729" y="66.2637" width="0.47289" height="0.383887" rx="0.191943" transform="rotate(18.5132 496.729 66.2637)" fill="#D9D9D9" fill-opacity="0.8"/>
<rect x="457.611" y="71.3838" width="0.47289" height="0.383887" rx="0.191943" transform="rotate(18.5132 457.611 71.3838)" fill="#D9D9D9"/>
<rect x="722.057" y="47.939" width="0.47289" height="0.383887" rx="0.191943" transform="rotate(18.5132 722.057 47.939)" fill="#D9D9D9"/>
<rect x="736.727" y="90.5015" width="0.47289" height="0.383887" rx="0.191943" transform="rotate(18.5132 736.727 90.5015)" fill="#D9D9D9"/>
<rect x="813.172" y="84.1172" width="0.47289" height="0.383887" rx="0.191943" transform="rotate(18.5132 813.172 84.1172)" fill="#D9D9D9"/>
<rect x="794.156" y="99.2063" width="0.47289" height="0.383887" rx="0.191943" transform="rotate(18.5132 794.156 99.2063)" fill="#D9D9D9"/>
<rect x="712.174" y="110.214" width="0.47289" height="0.383887" rx="0.191943" transform="rotate(18.5132 712.174 110.214)" fill="#D9D9D9"/>
<rect x="679.596" y="92.8274" width="0.47289" height="0.383887" rx="0.191943" transform="rotate(18.5132 679.596 92.8274)" fill="#D9D9D9" fill-opacity="0.6"/>
<rect x="829.32" y="135.676" width="0.47289" height="0.383887" rx="0.191943" transform="rotate(18.5132 829.32 135.676)" fill="#D9D9D9" fill-opacity="0.1"/>
<rect x="846.186" y="129.988" width="0.47289" height="0.383887" rx="0.191943" transform="rotate(18.5132 846.186 129.988)" fill="#D9D9D9" fill-opacity="0.1"/>
<rect x="815.439" y="111.596" width="2.36445" height="1.91943" rx="0.959717" transform="rotate(18.5132 815.439 111.596)" fill="#D9D9D9" fill-opacity="0.7"/>
<rect x="843.555" y="108.055" width="1.89156" height="1.53555" rx="0.767774" transform="rotate(18.5132 843.555 108.055)" fill="#D9D9D9" fill-opacity="0.75"/>
<rect x="767.176" y="56.165" width="1.89156" height="1.91943" rx="0.94578" transform="rotate(18.5132 767.176 56.165)" fill="#D9D9D9" fill-opacity="0.8"/>
<rect x="742.488" y="104.576" width="1.89156" height="1.53555" rx="0.767774" transform="rotate(18.5132 742.488 104.576)" fill="#D9D9D9" fill-opacity="0.72"/>
<rect x="779.861" y="110.613" width="1.89156" height="1.91943" rx="0.94578" transform="rotate(18.5132 779.861 110.613)" fill="#D9D9D9" fill-opacity="0.5"/>
<rect x="863.061" y="133.209" width="1.89156" height="1.53555" rx="0.767774" transform="rotate(18.5132 863.061 133.209)" fill="#D9D9D9" fill-opacity="0.1"/>
<rect x="842.076" y="136.304" width="1.89156" height="1.53555" rx="0.767774" transform="rotate(18.5132 842.076 136.304)" fill="#D9D9D9" fill-opacity="0.75"/>
<rect x="868.75" y="117.707" width="2.36445" height="1.91943" rx="0.959717" transform="rotate(18.5132 868.75 117.707)" fill="#D9D9D9" fill-opacity="0.1"/>
<rect x="859.359" y="99.5833" width="1.89156" height="1.53555" rx="0.767774" transform="rotate(18.5132 859.359 99.5833)" fill="#D9D9D9" fill-opacity="0.8"/>
<rect x="861.535" y="158.608" width="1.89156" height="1.53555" rx="0.767774" transform="rotate(18.5132 861.535 158.608)" fill="#D9D9D9"/>
<rect x="669.303" y="69.9485" width="1.89156" height="1.91943" rx="0.94578" transform="rotate(18.5132 669.303 69.9485)" fill="#D9D9D9"/>
<rect x="685.752" y="53.5952" width="2.36445" height="1.91943" rx="0.959717" transform="rotate(18.5132 685.752 53.5952)" fill="#D9D9D9"/>
<rect x="675.867" y="32.4729" width="1.89156" height="1.53555" rx="0.767774" transform="rotate(18.5132 675.867 32.4729)" fill="#D9D9D9" fill-opacity="0.5"/>
<rect x="736.426" y="33.3188" width="1.89156" height="1.53555" rx="0.767774" transform="rotate(18.5132 736.426 33.3188)" fill="#D9D9D9" fill-opacity="0.8"/>
<rect x="702.766" y="74.2717" width="0.47289" height="0.383887" rx="0.191943" transform="rotate(18.5132 702.766 74.2717)" fill="#D9D9D9"/>
<rect x="749.428" y="74.9172" width="0.47289" height="0.383887" rx="0.191943" transform="rotate(18.5132 749.428 74.9172)" fill="#D9D9D9"/>
<rect x="764.9" y="103.174" width="0.47289" height="0.383887" rx="0.191943" transform="rotate(18.5132 764.9 103.174)" fill="#D9D9D9"/>
<rect x="760.68" y="81.519" width="0.47289" height="0.383887" rx="0.191943" transform="rotate(18.5132 760.68 81.519)" fill="#D9D9D9" fill-opacity="0.55"/>
<rect x="782.973" y="77.6692" width="0.47289" height="0.383887" rx="0.191943" transform="rotate(18.5132 782.973 77.6692)" fill="#D9D9D9" fill-opacity="0.55"/>
<rect x="764.947" y="68.7781" width="0.47289" height="0.383887" rx="0.191943" transform="rotate(18.5132 764.947 68.7781)" fill="#D9D9D9" fill-opacity="0.8"/>
<rect x="725.83" y="73.8982" width="0.47289" height="0.383887" rx="0.191943" transform="rotate(18.5132 725.83 73.8982)" fill="#D9D9D9"/>
<rect x="625.057" y="163.939" width="0.47289" height="0.383887" rx="0.191943" transform="rotate(18.5132 625.057 163.939)" fill="#D9D9D9"/>
<rect x="639.727" y="206.501" width="0.47289" height="0.383887" rx="0.191943" transform="rotate(18.5132 639.727 206.501)" fill="#D9D9D9"/>
<rect x="716.172" y="200.117" width="0.47289" height="0.383887" rx="0.191943" transform="rotate(18.5132 716.172 200.117)" fill="#D9D9D9"/>
<rect x="697.156" y="215.206" width="0.47289" height="0.383887" rx="0.191943" transform="rotate(18.5132 697.156 215.206)" fill="#D9D9D9"/>
<rect x="615.174" y="226.214" width="0.47289" height="0.383887" rx="0.191943" transform="rotate(18.5132 615.174 226.214)" fill="#D9D9D9"/>
<rect x="582.596" y="208.827" width="0.47289" height="0.383887" rx="0.191943" transform="rotate(18.5132 582.596 208.827)" fill="#D9D9D9" fill-opacity="0.6"/>
<rect x="732.32" y="251.676" width="0.47289" height="0.383887" rx="0.191943" transform="rotate(18.5132 732.32 251.676)" fill="#D9D9D9" fill-opacity="0.1"/>
<rect x="749.186" y="245.988" width="0.47289" height="0.383887" rx="0.191943" transform="rotate(18.5132 749.186 245.988)" fill="#D9D9D9" fill-opacity="0.1"/>
<rect x="718.439" y="227.596" width="2.36445" height="1.91943" rx="0.959717" transform="rotate(18.5132 718.439 227.596)" fill="#D9D9D9" fill-opacity="0.7"/>
<rect x="746.555" y="224.055" width="1.89156" height="1.53555" rx="0.767774" transform="rotate(18.5132 746.555 224.055)" fill="#D9D9D9" fill-opacity="0.75"/>
<rect x="670.176" y="172.165" width="1.89156" height="1.91943" rx="0.94578" transform="rotate(18.5132 670.176 172.165)" fill="#D9D9D9" fill-opacity="0.8"/>
<rect x="645.488" y="220.576" width="1.89156" height="1.53555" rx="0.767774" transform="rotate(18.5132 645.488 220.576)" fill="#D9D9D9" fill-opacity="0.72"/>
<rect x="682.861" y="226.613" width="1.89156" height="1.91943" rx="0.94578" transform="rotate(18.5132 682.861 226.613)" fill="#D9D9D9" fill-opacity="0.5"/>
<rect x="766.061" y="249.209" width="1.89156" height="1.53555" rx="0.767774" transform="rotate(18.5132 766.061 249.209)" fill="#D9D9D9" fill-opacity="0.1"/>
<rect x="745.076" y="252.304" width="1.89156" height="1.53555" rx="0.767774" transform="rotate(18.5132 745.076 252.304)" fill="#D9D9D9" fill-opacity="0.75"/>
<rect x="771.75" y="233.707" width="2.36445" height="1.91943" rx="0.959717" transform="rotate(18.5132 771.75 233.707)" fill="#D9D9D9" fill-opacity="0.1"/>
<rect x="762.359" y="215.583" width="1.89156" height="1.53555" rx="0.767774" transform="rotate(18.5132 762.359 215.583)" fill="#D9D9D9" fill-opacity="0.8"/>
<rect x="764.535" y="274.608" width="1.89156" height="1.53555" rx="0.767774" transform="rotate(18.5132 764.535 274.608)" fill="#D9D9D9"/>
<rect x="572.303" y="185.948" width="1.89156" height="1.91943" rx="0.94578" transform="rotate(18.5132 572.303 185.948)" fill="#D9D9D9"/>
<rect x="588.752" y="169.595" width="2.36445" height="1.91943" rx="0.959717" transform="rotate(18.5132 588.752 169.595)" fill="#D9D9D9"/>
<rect x="578.867" y="148.473" width="1.89156" height="1.53555" rx="0.767774" transform="rotate(18.5132 578.867 148.473)" fill="#D9D9D9" fill-opacity="0.5"/>
<rect x="639.426" y="149.319" width="1.89156" height="1.53555" rx="0.767774" transform="rotate(18.5132 639.426 149.319)" fill="#D9D9D9" fill-opacity="0.8"/>
<rect x="605.766" y="190.272" width="0.47289" height="0.383887" rx="0.191943" transform="rotate(18.5132 605.766 190.272)" fill="#D9D9D9"/>
<rect x="652.428" y="190.917" width="0.47289" height="0.383887" rx="0.191943" transform="rotate(18.5132 652.428 190.917)" fill="#D9D9D9"/>
<rect x="667.9" y="219.174" width="0.47289" height="0.383887" rx="0.191943" transform="rotate(18.5132 667.9 219.174)" fill="#D9D9D9"/>
<rect x="663.68" y="197.519" width="0.47289" height="0.383887" rx="0.191943" transform="rotate(18.5132 663.68 197.519)" fill="#D9D9D9" fill-opacity="0.55"/>
<rect x="685.973" y="193.669" width="0.47289" height="0.383887" rx="0.191943" transform="rotate(18.5132 685.973 193.669)" fill="#D9D9D9" fill-opacity="0.55"/>
<rect x="667.947" y="184.778" width="0.47289" height="0.383887" rx="0.191943" transform="rotate(18.5132 667.947 184.778)" fill="#D9D9D9" fill-opacity="0.8"/>
<rect x="628.83" y="189.898" width="0.47289" height="0.383887" rx="0.191943" transform="rotate(18.5132 628.83 189.898)" fill="#D9D9D9"/>
</g>
<rect x="833.098" y="51.0071" width="0.47289" height="0.383887" rx="0.191943" transform="rotate(-31.8582 833.098 51.0071)" fill="#D9D9D9"/>
<rect x="875.234" y="66.8545" width="0.47289" height="0.383887" rx="0.191943" transform="rotate(-31.8582 875.234 66.8545)" fill="#D9D9D9"/>
<rect x="919.076" y="3.90479" width="0.47289" height="0.383887" rx="0.191943" transform="rotate(-31.8582 919.076 3.90479)" fill="#D9D9D9"/>
<rect x="918.568" y="28.1741" width="0.47289" height="0.383887" rx="0.191943" transform="rotate(-31.8582 918.568 28.1741)" fill="#D9D9D9"/>
<rect x="874.758" y="98.3367" width="0.47289" height="0.383887" rx="0.191943" transform="rotate(-31.8582 874.758 98.3367)" fill="#D9D9D9"/>
<rect x="840.588" y="112.339" width="0.47289" height="0.383887" rx="0.191943" transform="rotate(-31.8582 840.588 112.339)" fill="#D9D9D9" fill-opacity="0.6"/>
<rect x="969.086" y="24.3516" width="0.47289" height="0.383887" rx="0.191943" transform="rotate(-31.8582 969.086 24.3516)" fill="#D9D9D9" fill-opacity="0.1"/>
<rect x="975.461" y="7.73462" width="0.47289" height="0.383887" rx="0.191943" transform="rotate(-31.8582 975.461 7.73462)" fill="#D9D9D9" fill-opacity="0.1"/>
<rect x="941.686" y="19.6846" width="2.36445" height="1.91943" rx="0.959717" transform="rotate(-31.8582 941.686 19.6846)" fill="#D9D9D9" fill-opacity="0.7"/>
<rect x="868.209" y="21.5032" width="1.89156" height="1.91943" rx="0.94578" transform="rotate(-31.8582 868.209 21.5032)" fill="#D9D9D9" fill-opacity="0.8"/>
<rect x="889.75" y="71.3936" width="1.89156" height="1.53555" rx="0.767774" transform="rotate(-31.8582 889.75 71.3936)" fill="#D9D9D9" fill-opacity="0.72"/>
<rect x="918.238" y="46.4592" width="1.89156" height="1.91943" rx="0.94578" transform="rotate(-31.8582 918.238 46.4592)" fill="#D9D9D9" fill-opacity="0.5"/>
<rect x="977.705" y="14.9275" width="1.89156" height="1.53555" rx="0.767774" transform="rotate(-31.8582 977.705 14.9275)" fill="#D9D9D9" fill-opacity="0.75"/>
<rect x="1007.29" y="14.166" width="1.89156" height="1.53555" rx="0.767774" transform="rotate(-31.8582 1007.29 14.166)" fill="#D9D9D9"/>
<rect x="816.402" y="105.675" width="1.89156" height="1.91943" rx="0.94578" transform="rotate(-31.8582 816.402 105.675)" fill="#D9D9D9"/>
<rect x="814.299" y="82.5762" width="2.36445" height="1.91943" rx="0.959717" transform="rotate(-31.8582 814.299 82.5762)" fill="#D9D9D9"/>
<rect x="791.727" y="76.7163" width="1.89156" height="1.53555" rx="0.767774" transform="rotate(-31.8582 791.727 76.7163)" fill="#D9D9D9" fill-opacity="0.5"/>
<rect x="831.002" y="30.614" width="1.89156" height="1.53555" rx="0.767774" transform="rotate(-31.8582 831.002 30.614)" fill="#D9D9D9" fill-opacity="0.8"/>
<rect x="841.074" y="82.6592" width="0.47289" height="0.383887" rx="0.191943" transform="rotate(-31.8582 841.074 82.6592)" fill="#D9D9D9"/>
<rect x="871.334" y="47.1326" width="0.47289" height="0.383887" rx="0.191943" transform="rotate(-31.8582 871.334 47.1326)" fill="#D9D9D9"/>
<rect x="902.965" y="53.238" width="0.47289" height="0.383887" rx="0.191943" transform="rotate(-31.8582 902.965 53.238)" fill="#D9D9D9"/>
<rect x="883.596" y="42.6765" width="0.47289" height="0.383887" rx="0.191943" transform="rotate(-31.8582 883.596 42.6765)" fill="#D9D9D9" fill-opacity="0.55"/>
<rect x="894.848" y="23.051" width="0.47289" height="0.383887" rx="0.191943" transform="rotate(-31.8582 894.848 23.051)" fill="#D9D9D9" fill-opacity="0.55"/>
<rect x="876.504" y="31.2642" width="0.47289" height="0.383887" rx="0.191943" transform="rotate(-31.8582 876.504 31.2642)" fill="#D9D9D9" fill-opacity="0.8"/>
<rect x="855.498" y="64.6567" width="0.47289" height="0.383887" rx="0.191943" transform="rotate(-31.8582 855.498 64.6567)" fill="#D9D9D9"/>
</g>
<defs>
<filter id="filter0_b_52_2761" x="-10" y="-10" width="1460" height="1044" filterUnits="userSpaceOnUse" color-interpolation-filters="sRGB">
<feFlood flood-opacity="0" result="BackgroundImageFix"/>
<feGaussianBlur in="BackgroundImageFix" stdDeviation="5"/>
<feComposite in2="SourceAlpha" operator="in" result="effect1_backgroundBlur_52_2761"/>
<feBlend mode="normal" in="SourceGraphic" in2="effect1_backgroundBlur_52_2761" result="shape"/>
</filter>
<filter id="filter1_f_52_2761" x="-143" y="494" width="1763" height="1060" filterUnits="userSpaceOnUse" color-interpolation-filters="sRGB">
<feFlood flood-opacity="0" result="BackgroundImageFix"/>
<feBlend mode="normal" in="SourceGraphic" in2="BackgroundImageFix" result="shape"/>
<feGaussianBlur stdDeviation="100" result="effect1_foregroundBlur_52_2761"/>
</filter>
<filter id="filter2_f_52_2761" x="79" y="222" width="355" height="95" filterUnits="userSpaceOnUse" color-interpolation-filters="sRGB">
<feFlood flood-opacity="0" result="BackgroundImageFix"/>
<feBlend mode="normal" in="SourceGraphic" in2="BackgroundImageFix" result="shape"/>
<feGaussianBlur stdDeviation="20" result="effect1_foregroundBlur_52_2761"/>
</filter>
<linearGradient id="paint0_linear_52_2761" x1="522.992" y1="364.158" x2="1119.53" y2="1808.89" gradientUnits="userSpaceOnUse">
<stop stop-color="#1A0303"/>
<stop offset="1" stop-color="#6952F4" stop-opacity="0"/>
</linearGradient>
<radialGradient id="paint1_radial_52_2761" cx="0" cy="0" r="1" gradientUnits="userSpaceOnUse" gradientTransform="translate(1163.36 384.918) rotate(-36.2642) scale(45.9839 45.0097)">
<stop stop-color="#F8F8F8"/>
<stop offset="1" stop-color="white" stop-opacity="0"/>
</radialGradient>
<radialGradient id="paint2_radial_52_2761" cx="0" cy="0" r="1" gradientUnits="userSpaceOnUse" gradientTransform="translate(1150.36 369.672) rotate(-36.2642) scale(58.6226 57.3806)">
<stop stop-color="#E8E8E8"/>
<stop offset="1" stop-color="#DFDFDF"/>
</radialGradient>
<linearGradient id="paint3_linear_52_2761" x1="1188.97" y1="433.434" x2="1133.6" y2="358.56" gradientUnits="userSpaceOnUse">
<stop/>
<stop offset="1" stop-opacity="0.2"/>
</linearGradient>
<linearGradient id="paint4_linear_52_2761" x1="1168.96" y1="334.078" x2="1165.65" y2="368.566" gradientUnits="userSpaceOnUse">
<stop stop-color="#B7B7B7"/>
<stop offset="0.557292" stop-color="#AEAEAE" stop-opacity="0.2"/>
</linearGradient>
<radialGradient id="paint5_radial_52_2761" cx="0" cy="0" r="1" gradientUnits="userSpaceOnUse" gradientTransform="translate(280.803 443.701) scale(92.1555 83.1221)">
<stop stop-color="#00B3DC"/>
<stop offset="1" stop-color="#056DB0"/>
</radialGradient>
<linearGradient id="paint6_linear_52_2761" x1="227.14" y1="364.906" x2="241.329" y2="562.139" gradientUnits="userSpaceOnUse">
<stop stop-color="#F2F236"/>
<stop offset="1" stop-color="#F2F236" stop-opacity="0"/>
</linearGradient>
<linearGradient id="paint7_linear_52_2761" x1="312.351" y1="358.775" x2="326.54" y2="556.009" gradientUnits="userSpaceOnUse">
<stop stop-color="#F2F236"/>
<stop offset="1" stop-color="#F2F236" stop-opacity="0"/>
</linearGradient>
<linearGradient id="paint8_linear_52_2761" x1="319.112" y1="358.288" x2="333.301" y2="555.521" gradientUnits="userSpaceOnUse">
<stop stop-color="#F2F236"/>
<stop offset="1" stop-color="#F2F236" stop-opacity="0"/>
</linearGradient>
<linearGradient id="paint9_linear_52_2761" x1="265.905" y1="362.117" x2="280.093" y2="559.351" gradientUnits="userSpaceOnUse">
<stop stop-color="#F2F236"/>
<stop offset="1" stop-color="#F2F236" stop-opacity="0"/>
</linearGradient>
<linearGradient id="paint10_linear_52_2761" x1="295.313" y1="360" x2="309.502" y2="557.235" gradientUnits="userSpaceOnUse">
<stop stop-color="#F2F236"/>
<stop offset="1" stop-color="#F2F236" stop-opacity="0"/>
</linearGradient>
<linearGradient id="paint11_linear_52_2761" x1="251.941" y1="363.12" x2="266.13" y2="560.354" gradientUnits="userSpaceOnUse">
<stop stop-color="#F2F236"/>
<stop offset="1" stop-color="#F2F236" stop-opacity="0"/>
</linearGradient>
<linearGradient id="paint12_linear_52_2761" x1="265.49" y1="559.176" x2="274.776" y2="465.301" gradientUnits="userSpaceOnUse">
<stop stop-color="#00ACD8"/>
<stop offset="1" stop-color="#0983BD"/>
</linearGradient>
<linearGradient id="paint13_linear_52_2761" x1="273.146" y1="555.149" x2="283.529" y2="457.004" gradientUnits="userSpaceOnUse">
<stop stop-color="#056EB1"/>
<stop offset="1" stop-color="#00A9D7" stop-opacity="0.3"/>
</linearGradient>
<linearGradient id="paint14_linear_52_2761" x1="332.181" y1="364.287" x2="291.756" y2="452.667" gradientUnits="userSpaceOnUse">
<stop stop-color="#E2FFB5"/>
<stop offset="1" stop-color="#FFFFB3" stop-opacity="0"/>
</linearGradient>
<radialGradient id="paint15_diamond_52_2761" cx="0" cy="0" r="1" gradientUnits="userSpaceOnUse" gradientTransform="translate(638.092 1490.42) rotate(151.424) scale(675.544 659.112)">
<stop stop-color="#B31762"/>
<stop offset="1" stop-color="#B2B529"/>
</radialGradient>
<clipPath id="clip0_52_2761">
<rect width="1440" height="1024" fill="white"/>
</clipPath>
<clipPath id="clip1_52_2761">
<rect width="1440" height="1024" fill="white"/>
</clipPath>
<clipPath id="clip2_52_2761">
<rect width="99.391" height="97.2191" fill="white" transform="matrix(0.806298 -0.59151 0.582089 0.813125 1095 374.791)"/>
</clipPath>
</defs>
</svg>
