<svg width="508" height="329" viewBox="0 0 508 329" fill="none" xmlns="http://www.w3.org/2000/svg">
<g clip-path="url(#clip0_45_2)" filter="url(#filter0_b_45_2)">
<rect width="508" height="329" fill="url(#paint0_linear_45_2)"/>
<g filter="url(#filter1_f_45_2)">
<ellipse cx="262" cy="221.5" rx="142" ry="134.5" fill="#F59259" fill-opacity="0.6"/>
</g>
<g filter="url(#filter2_f_45_2)">
<circle cx="139" cy="283" r="95" fill="#F59259" fill-opacity="0.8"/>
</g>
<g filter="url(#filter3_f_45_2)">
<ellipse cx="424" cy="160" rx="191" ry="167" fill="#7044EC" fill-opacity="0.6"/>
</g>
<circle cx="222.165" cy="97.1651" r="34.2618" transform="rotate(38.7451 222.165 97.1651)" fill="url(#paint1_linear_45_2)"/>
<circle cx="222.165" cy="97.1651" r="34.2618" transform="rotate(38.7451 222.165 97.1651)" fill="url(#paint2_radial_45_2)" fill-opacity="0.4"/>
<circle cx="103.67" cy="208.67" r="73.0276" transform="rotate(-16.457 103.67 208.67)" fill="url(#paint3_linear_45_2)"/>
<circle cx="103.67" cy="208.67" r="73.0276" transform="rotate(-16.457 103.67 208.67)" fill="url(#paint4_radial_45_2)" fill-opacity="0.4"/>
<path d="M410 175.5C389.743 200.744 352.857 204.787 327.612 184.53C302.368 164.273 298.325 127.387 318.582 102.142C338.84 76.8981 375.726 72.8552 400.97 93.1124C426.214 113.369 430.257 150.256 410 175.5Z" fill="url(#paint5_linear_45_2)" fill-opacity="0.7"/>
<path d="M410 175.5C389.743 200.744 352.857 204.787 327.612 184.53C302.368 164.273 298.325 127.387 318.582 102.142C338.84 76.8981 375.726 72.8552 400.97 93.1124C426.214 113.369 430.257 150.256 410 175.5Z" fill="url(#paint6_radial_45_2)" fill-opacity="0.4"/>
<path d="M409.61 175.187C389.526 200.216 352.954 204.224 327.925 184.14C302.897 164.056 298.888 127.484 318.972 102.455C339.057 77.4264 375.628 73.418 400.657 93.5023C425.686 113.587 429.694 150.158 409.61 175.187Z" stroke="black" stroke-opacity="0.1"/>
<g filter="url(#filter4_f_45_2)">
<ellipse cx="256.5" cy="269.5" rx="137.5" ry="7.5" fill="#08534E" fill-opacity="0.92"/>
</g>
<g filter="url(#filter5_f_45_2)">
<ellipse cx="375" cy="184" rx="14" ry="30" fill="#D15454"/>
</g>
<g filter="url(#filter6_f_45_2)">
<ellipse cx="109" cy="183" rx="14" ry="65" fill="#D15454"/>
</g>
<g filter="url(#filter7_f_45_2)">
<ellipse cx="217" cy="80.5" rx="8.5" ry="27" transform="rotate(-90 217 80.5)" fill="#D15454"/>
</g>
<g filter="url(#filter8_f_45_2)">
<ellipse cx="217" cy="80.5" rx="8.5" ry="27" transform="rotate(-90 217 80.5)" fill="#D15454"/>
</g>
<g filter="url(#filter9_f_45_2)">
<ellipse cx="351.5" cy="83.5" rx="8.5" ry="49.5" transform="rotate(-90 351.5 83.5)" fill="#D15454"/>
</g>
<circle cx="414.775" cy="184.775" r="47.5" transform="rotate(38.7451 414.775 184.775)" fill="url(#paint7_linear_45_2)" fill-opacity="0.7"/>
<circle cx="414.775" cy="184.775" r="47.5" transform="rotate(38.7451 414.775 184.775)" fill="url(#paint8_radial_45_2)" fill-opacity="0.4"/>
<circle cx="414.775" cy="184.775" r="47" transform="rotate(38.7451 414.775 184.775)" stroke="black" stroke-opacity="0.2"/>
<line x1="19" y1="311.5" x2="493" y2="311.5" stroke="black" stroke-opacity="0.2"/>
<line x1="19" y1="15.5" x2="493" y2="15.5" stroke="black" stroke-opacity="0.2"/>
<line x1="492.5" y1="311" x2="492.5" y2="15" stroke="black" stroke-opacity="0.2"/>
<line x1="18.5" y1="312" x2="18.5" y2="15" stroke="black" stroke-opacity="0.2"/>
</g>
<defs>
<filter id="filter0_b_45_2" x="-10" y="-10" width="528" height="349" filterUnits="userSpaceOnUse" color-interpolation-filters="sRGB">
<feFlood flood-opacity="0" result="BackgroundImageFix"/>
<feGaussianBlur in="BackgroundImageFix" stdDeviation="5"/>
<feComposite in2="SourceAlpha" operator="in" result="effect1_backgroundBlur_45_2"/>
<feBlend mode="normal" in="SourceGraphic" in2="effect1_backgroundBlur_45_2" result="shape"/>
</filter>
<filter id="filter1_f_45_2" x="-30" y="-63" width="584" height="569" filterUnits="userSpaceOnUse" color-interpolation-filters="sRGB">
<feFlood flood-opacity="0" result="BackgroundImageFix"/>
<feBlend mode="normal" in="SourceGraphic" in2="BackgroundImageFix" result="shape"/>
<feGaussianBlur stdDeviation="75" result="effect1_foregroundBlur_45_2"/>
</filter>
<filter id="filter2_f_45_2" x="-156" y="-12" width="590" height="590" filterUnits="userSpaceOnUse" color-interpolation-filters="sRGB">
<feFlood flood-opacity="0" result="BackgroundImageFix"/>
<feBlend mode="normal" in="SourceGraphic" in2="BackgroundImageFix" result="shape"/>
<feGaussianBlur stdDeviation="100" result="effect1_foregroundBlur_45_2"/>
</filter>
<filter id="filter3_f_45_2" x="83" y="-157" width="682" height="634" filterUnits="userSpaceOnUse" color-interpolation-filters="sRGB">
<feFlood flood-opacity="0" result="BackgroundImageFix"/>
<feBlend mode="normal" in="SourceGraphic" in2="BackgroundImageFix" result="shape"/>
<feGaussianBlur stdDeviation="75" result="effect1_foregroundBlur_45_2"/>
</filter>
<filter id="filter4_f_45_2" x="79" y="222" width="355" height="95" filterUnits="userSpaceOnUse" color-interpolation-filters="sRGB">
<feFlood flood-opacity="0" result="BackgroundImageFix"/>
<feBlend mode="normal" in="SourceGraphic" in2="BackgroundImageFix" result="shape"/>
<feGaussianBlur stdDeviation="20" result="effect1_foregroundBlur_45_2"/>
</filter>
<filter id="filter5_f_45_2" x="311" y="104" width="128" height="160" filterUnits="userSpaceOnUse" color-interpolation-filters="sRGB">
<feFlood flood-opacity="0" result="BackgroundImageFix"/>
<feBlend mode="normal" in="SourceGraphic" in2="BackgroundImageFix" result="shape"/>
<feGaussianBlur stdDeviation="25" result="effect1_foregroundBlur_45_2"/>
</filter>
<filter id="filter6_f_45_2" x="40" y="63" width="138" height="240" filterUnits="userSpaceOnUse" color-interpolation-filters="sRGB">
<feFlood flood-opacity="0" result="BackgroundImageFix"/>
<feBlend mode="normal" in="SourceGraphic" in2="BackgroundImageFix" result="shape"/>
<feGaussianBlur stdDeviation="27.5" result="effect1_foregroundBlur_45_2"/>
</filter>
<filter id="filter7_f_45_2" x="140" y="22" width="154" height="117" filterUnits="userSpaceOnUse" color-interpolation-filters="sRGB">
<feFlood flood-opacity="0" result="BackgroundImageFix"/>
<feBlend mode="normal" in="SourceGraphic" in2="BackgroundImageFix" result="shape"/>
<feGaussianBlur stdDeviation="25" result="effect1_foregroundBlur_45_2"/>
</filter>
<filter id="filter8_f_45_2" x="140" y="22" width="154" height="117" filterUnits="userSpaceOnUse" color-interpolation-filters="sRGB">
<feFlood flood-opacity="0" result="BackgroundImageFix"/>
<feBlend mode="normal" in="SourceGraphic" in2="BackgroundImageFix" result="shape"/>
<feGaussianBlur stdDeviation="25" result="effect1_foregroundBlur_45_2"/>
</filter>
<filter id="filter9_f_45_2" x="252" y="25" width="199" height="117" filterUnits="userSpaceOnUse" color-interpolation-filters="sRGB">
<feFlood flood-opacity="0" result="BackgroundImageFix"/>
<feBlend mode="normal" in="SourceGraphic" in2="BackgroundImageFix" result="shape"/>
<feGaussianBlur stdDeviation="25" result="effect1_foregroundBlur_45_2"/>
</filter>
<linearGradient id="paint0_linear_45_2" x1="254" y1="0" x2="254" y2="329" gradientUnits="userSpaceOnUse">
<stop stop-color="#FFA5A5"/>
<stop offset="1" stop-color="#6952F4" stop-opacity="0"/>
</linearGradient>
<linearGradient id="paint1_linear_45_2" x1="207.378" y1="88.5095" x2="222.165" y2="131.427" gradientUnits="userSpaceOnUse">
<stop stop-color="#FFC4C4"/>
<stop offset="1" stop-color="#E24B4B"/>
</linearGradient>
<radialGradient id="paint2_radial_45_2" cx="0" cy="0" r="1" gradientUnits="userSpaceOnUse" gradientTransform="translate(210.796 93.9681) rotate(73.1167) scale(39.1461)">
<stop stop-color="white"/>
<stop offset="1" stop-color="white" stop-opacity="0"/>
</radialGradient>
<linearGradient id="paint3_linear_45_2" x1="72.153" y1="190.221" x2="103.67" y2="281.698" gradientUnits="userSpaceOnUse">
<stop stop-color="#FFC4C4"/>
<stop offset="1" stop-color="#E24B4B"/>
</linearGradient>
<radialGradient id="paint4_radial_45_2" cx="0" cy="0" r="1" gradientUnits="userSpaceOnUse" gradientTransform="translate(79.4377 201.856) rotate(73.1167) scale(83.4383)">
<stop stop-color="white"/>
<stop offset="1" stop-color="white" stop-opacity="0"/>
</radialGradient>
<linearGradient id="paint5_linear_45_2" x1="380.927" y1="73.0103" x2="354.709" y2="146.096" gradientUnits="userSpaceOnUse">
<stop stop-color="#FFC4C4"/>
<stop offset="1" stop-color="#E24B4B"/>
</linearGradient>
<radialGradient id="paint6_radial_45_2" cx="0" cy="0" r="1" gradientUnits="userSpaceOnUse" gradientTransform="translate(379.643 83.9515) rotate(111.862) scale(66.9604)">
<stop stop-color="white"/>
<stop offset="1" stop-color="white" stop-opacity="0"/>
</radialGradient>
<linearGradient id="paint7_linear_45_2" x1="394.275" y1="172.775" x2="414.775" y2="232.275" gradientUnits="userSpaceOnUse">
<stop stop-color="#FFC4C4"/>
<stop offset="1" stop-color="#E24B4B"/>
</linearGradient>
<radialGradient id="paint8_radial_45_2" cx="0" cy="0" r="1" gradientUnits="userSpaceOnUse" gradientTransform="translate(399.014 180.343) rotate(73.1167) scale(54.2715)">
<stop stop-color="white"/>
<stop offset="1" stop-color="white" stop-opacity="0"/>
</radialGradient>
<clipPath id="clip0_45_2">
<rect width="508" height="329" fill="white"/>
</clipPath>
</defs>
</svg>
