<svg width="209" height="98" viewBox="0 0 209 98" fill="none" xmlns="http://www.w3.org/2000/svg">
<g filter="url(#filter0_d_713_2282)">
<path d="M175.309 87.9031L203.157 48.2398L203.153 17.3251L191.627 3.52655L16.3446 3.46391L6.27091 22.4067L6.27599 68.7797L16.3539 87.8462L175.309 87.9031Z" stroke="#1A1717" stroke-width="3" stroke-linecap="round" shape-rendering="crispEdges"/>
</g>
<path d="M32.101 70C31.8297 70 31.5803 69.934 31.353 69.802C31.1257 69.67 30.946 69.4903 30.814 69.263C30.682 69.0357 30.616 68.7863 30.616 68.515V63.565C30.616 63.2937 30.682 63.0443 30.814 62.817C30.946 62.5897 31.1257 62.41 31.353 62.278C31.5803 62.146 31.8297 62.08 32.101 62.08H38.514V63.411H32.332C32.2147 63.411 32.1193 63.4477 32.046 63.521C31.9727 63.587 31.936 63.6787 31.936 63.796V68.284C31.936 68.4013 31.9727 68.4967 32.046 68.57C32.1193 68.636 32.2147 68.669 32.332 68.669H38.514V70H32.101ZM39.6389 70V61.53H40.9479V63.62H44.6549C44.9189 63.62 45.1609 63.6897 45.3809 63.829C45.6083 63.961 45.7879 64.137 45.9199 64.357C46.0519 64.577 46.1179 64.8227 46.1179 65.094V70H44.8089V65.138C44.8089 65.0793 44.7869 65.0317 44.7429 64.995C44.7063 64.951 44.6623 64.929 44.6109 64.929H41.1569C41.1056 64.929 41.0579 64.951 41.0139 64.995C40.9699 65.0317 40.9479 65.0793 40.9479 65.138V70H39.6389ZM48.4601 70C48.1887 70 47.9394 69.934 47.7121 69.802C47.4921 69.6627 47.3161 69.483 47.1841 69.263C47.0521 69.043 46.9861 68.7973 46.9861 68.526V66.15H52.1561V65.138C52.1561 65.0793 52.1341 65.0317 52.0901 64.995C52.0534 64.951 52.0057 64.929 51.9471 64.929H46.9861V63.62H51.9911C52.2697 63.62 52.5191 63.6897 52.7391 63.829C52.9591 63.961 53.1351 64.137 53.2671 64.357C53.3991 64.577 53.4651 64.8227 53.4651 65.094V70H48.4601ZM48.5041 68.691H52.1561V67.349H48.2951V68.482C48.2951 68.5407 48.3134 68.592 48.3501 68.636C48.3941 68.6727 48.4454 68.691 48.5041 68.691ZM54.5169 70V63.62H59.5329C59.7969 63.62 60.0389 63.6897 60.2589 63.829C60.4862 63.961 60.6659 64.137 60.7979 64.357C60.9299 64.577 60.9959 64.8227 60.9959 65.094V70H59.6869V65.138C59.6869 65.0793 59.6649 65.0317 59.6209 64.995C59.5842 64.951 59.5402 64.929 59.4889 64.929H56.0349C55.9835 64.929 55.9359 64.951 55.8919 64.995C55.8479 65.0317 55.8259 65.0793 55.8259 65.138V70H54.5169ZM63.0683 72.519V71.199H66.9513C67.0027 71.199 67.0467 71.177 67.0833 71.133C67.1273 71.0963 67.1493 71.0487 67.1493 70.99V70H63.4533C63.1893 70 62.9437 69.934 62.7163 69.802C62.4963 69.6627 62.3167 69.483 62.1773 69.263C62.0453 69.043 61.9793 68.7973 61.9793 68.526V65.094C61.9793 64.8227 62.0453 64.577 62.1773 64.357C62.3167 64.137 62.4963 63.961 62.7163 63.829C62.9437 63.6897 63.1893 63.62 63.4533 63.62H66.9953C67.2667 63.62 67.5123 63.6897 67.7323 63.829C67.9597 63.961 68.1357 64.137 68.2603 64.357C68.3923 64.577 68.4583 64.8227 68.4583 65.094V71.045C68.4583 71.3163 68.3923 71.562 68.2603 71.782C68.1357 72.0093 67.9597 72.189 67.7323 72.321C67.5123 72.453 67.2667 72.519 66.9953 72.519H63.0683ZM63.4973 68.691H66.9513C67.0027 68.691 67.0467 68.6727 67.0833 68.636C67.1273 68.592 67.1493 68.5407 67.1493 68.482V65.138C67.1493 65.0793 67.1273 65.0317 67.0833 64.995C67.0467 64.951 67.0027 64.929 66.9513 64.929H63.4973C63.4387 64.929 63.3873 64.951 63.3433 64.995C63.3067 65.0317 63.2883 65.0793 63.2883 65.138V68.482C63.2883 68.5407 63.3067 68.592 63.3433 68.636C63.3873 68.6727 63.4387 68.691 63.4973 68.691ZM70.868 70C70.5967 70 70.351 69.934 70.131 69.802C69.911 69.6627 69.7313 69.483 69.592 69.263C69.46 69.043 69.394 68.7973 69.394 68.526V65.094C69.394 64.8227 69.46 64.577 69.592 64.357C69.7313 64.137 69.911 63.961 70.131 63.829C70.351 63.6897 70.5967 63.62 70.868 63.62H74.399C74.6777 63.62 74.927 63.6897 75.147 63.829C75.367 63.961 75.543 64.137 75.675 64.357C75.807 64.577 75.873 64.8227 75.873 65.094V67.47H70.703V68.482C70.703 68.5407 70.7213 68.592 70.758 68.636C70.802 68.6727 70.8533 68.691 70.912 68.691H75.873V70H70.868ZM70.703 66.271H74.564V65.138C74.564 65.0793 74.542 65.0317 74.498 64.995C74.4613 64.951 74.4137 64.929 74.355 64.929H70.912C70.8533 64.929 70.802 64.951 70.758 64.995C70.7213 65.0317 70.703 65.0793 70.703 65.138V66.271ZM80.3196 70V63.62H88.3496C88.6283 63.62 88.8776 63.6897 89.0976 63.829C89.3176 63.961 89.4936 64.137 89.6256 64.357C89.7576 64.577 89.8236 64.8227 89.8236 65.094V70H88.5146V65.138C88.5146 65.0793 88.4926 65.0317 88.4486 64.995C88.4119 64.951 88.3643 64.929 88.3056 64.929H85.9406C85.8893 64.929 85.8416 64.951 85.7976 64.995C85.7609 65.0317 85.7426 65.0793 85.7426 65.138V70H84.4116V65.138C84.4116 65.0793 84.3933 65.0317 84.3566 64.995C84.3199 64.951 84.2723 64.929 84.2136 64.929H81.8376C81.7863 64.929 81.7386 64.951 81.6946 64.995C81.6579 65.0317 81.6396 65.0793 81.6396 65.138V70H80.3196ZM92.0295 72.398V71.078H95.9125C95.9638 71.078 96.0078 71.056 96.0445 71.012C96.0885 70.9753 96.1105 70.9313 96.1105 70.88V70H92.4145C92.1505 70 91.9048 69.934 91.6775 69.802C91.4575 69.6627 91.2778 69.483 91.1385 69.263C91.0065 69.043 90.9405 68.7973 90.9405 68.526V63.642H92.2495V68.482C92.2495 68.5407 92.2678 68.592 92.3045 68.636C92.3485 68.6727 92.3998 68.691 92.4585 68.691H95.9125C95.9638 68.691 96.0078 68.6727 96.0445 68.636C96.0885 68.592 96.1105 68.5407 96.1105 68.482V63.642H97.4195V70.924C97.4195 71.2027 97.3535 71.452 97.2215 71.672C97.0968 71.892 96.9208 72.068 96.6935 72.2C96.4735 72.332 96.2278 72.398 95.9565 72.398H92.0295ZM101.901 70V62.091H108.336C108.607 62.091 108.853 62.1607 109.073 62.3C109.3 62.432 109.48 62.6117 109.612 62.839C109.751 63.059 109.821 63.3047 109.821 63.576V65.754C109.821 66.018 109.751 66.2637 109.612 66.491C109.48 66.7183 109.3 66.898 109.073 67.03C108.853 67.162 108.607 67.228 108.336 67.228L103.221 67.239V70H101.901ZM103.419 65.897H108.292C108.343 65.897 108.387 65.8787 108.424 65.842C108.468 65.8053 108.49 65.7577 108.49 65.699V63.609C108.49 63.5577 108.468 63.5137 108.424 63.477C108.387 63.433 108.343 63.411 108.292 63.411H103.419C103.368 63.411 103.32 63.433 103.276 63.477C103.239 63.5137 103.221 63.5577 103.221 63.609V65.699C103.221 65.7577 103.239 65.8053 103.276 65.842C103.32 65.8787 103.368 65.897 103.419 65.897ZM112.032 70C111.761 70 111.512 69.934 111.284 69.802C111.064 69.6627 110.888 69.483 110.756 69.263C110.624 69.043 110.558 68.7973 110.558 68.526V66.15H115.728V65.138C115.728 65.0793 115.706 65.0317 115.662 64.995C115.626 64.951 115.578 64.929 115.519 64.929H110.558V63.62H115.563C115.842 63.62 116.091 63.6897 116.311 63.829C116.531 63.961 116.707 64.137 116.839 64.357C116.971 64.577 117.037 64.8227 117.037 65.094V70H112.032ZM112.076 68.691H115.728V67.349H111.867V68.482C111.867 68.5407 111.886 68.592 111.922 68.636C111.966 68.6727 112.018 68.691 112.076 68.691ZM119.39 70C119.118 70 118.873 69.934 118.653 69.802C118.433 69.6627 118.253 69.483 118.114 69.263C117.982 69.043 117.916 68.7973 117.916 68.526V68.317H119.225V68.482C119.225 68.5407 119.243 68.592 119.28 68.636C119.324 68.6727 119.375 68.691 119.434 68.691H122.877C122.935 68.691 122.983 68.6727 123.02 68.636C123.064 68.592 123.086 68.5407 123.086 68.482V67.668C123.086 67.6167 123.064 67.5727 123.02 67.536C122.983 67.492 122.935 67.47 122.877 67.47H119.39C119.118 67.47 118.873 67.404 118.653 67.272C118.433 67.1327 118.253 66.953 118.114 66.733C117.982 66.513 117.916 66.2673 117.916 65.996V65.094C117.916 64.8227 117.982 64.577 118.114 64.357C118.253 64.137 118.433 63.961 118.653 63.829C118.873 63.6897 119.118 63.62 119.39 63.62H122.921C123.199 63.62 123.449 63.6897 123.669 63.829C123.889 63.961 124.065 64.137 124.197 64.357C124.336 64.577 124.406 64.8227 124.406 65.094V65.303H123.086V65.138C123.086 65.0793 123.064 65.0317 123.02 64.995C122.983 64.951 122.935 64.929 122.877 64.929H119.434C119.375 64.929 119.324 64.951 119.28 64.995C119.243 65.0317 119.225 65.0793 119.225 65.138V65.952C119.225 66.0033 119.243 66.051 119.28 66.095C119.324 66.1317 119.375 66.15 119.434 66.15H122.921C123.199 66.15 123.449 66.2197 123.669 66.359C123.889 66.491 124.065 66.667 124.197 66.887C124.336 67.107 124.406 67.3527 124.406 67.624V68.526C124.406 68.7973 124.336 69.043 124.197 69.263C124.065 69.483 123.889 69.6627 123.669 69.802C123.449 69.934 123.199 70 122.921 70H119.39ZM126.931 70C126.659 70 126.414 69.934 126.194 69.802C125.974 69.6627 125.794 69.483 125.655 69.263C125.523 69.043 125.457 68.7973 125.457 68.526V68.317H126.766V68.482C126.766 68.5407 126.784 68.592 126.821 68.636C126.865 68.6727 126.916 68.691 126.975 68.691H130.418C130.476 68.691 130.524 68.6727 130.561 68.636C130.605 68.592 130.627 68.5407 130.627 68.482V67.668C130.627 67.6167 130.605 67.5727 130.561 67.536C130.524 67.492 130.476 67.47 130.418 67.47H126.931C126.659 67.47 126.414 67.404 126.194 67.272C125.974 67.1327 125.794 66.953 125.655 66.733C125.523 66.513 125.457 66.2673 125.457 65.996V65.094C125.457 64.8227 125.523 64.577 125.655 64.357C125.794 64.137 125.974 63.961 126.194 63.829C126.414 63.6897 126.659 63.62 126.931 63.62H130.462C130.74 63.62 130.99 63.6897 131.21 63.829C131.43 63.961 131.606 64.137 131.738 64.357C131.877 64.577 131.947 64.8227 131.947 65.094V65.303H130.627V65.138C130.627 65.0793 130.605 65.0317 130.561 64.995C130.524 64.951 130.476 64.929 130.418 64.929H126.975C126.916 64.929 126.865 64.951 126.821 64.995C126.784 65.0317 126.766 65.0793 126.766 65.138V65.952C126.766 66.0033 126.784 66.051 126.821 66.095C126.865 66.1317 126.916 66.15 126.975 66.15H130.462C130.74 66.15 130.99 66.2197 131.21 66.359C131.43 66.491 131.606 66.667 131.738 66.887C131.877 67.107 131.947 67.3527 131.947 67.624V68.526C131.947 68.7973 131.877 69.043 131.738 69.263C131.606 69.483 131.43 69.6627 131.21 69.802C130.99 69.934 130.74 70 130.462 70H126.931ZM135.191 70L132.683 63.62H134.08L135.719 67.613L137.457 63.62H138.876L140.724 67.635L142.242 63.62H143.65L141.241 70H140.207L138.172 65.501L136.236 70H135.191ZM145.558 70C145.287 70 145.041 69.934 144.821 69.802C144.601 69.6627 144.422 69.483 144.282 69.263C144.15 69.043 144.084 68.7973 144.084 68.526V65.094C144.084 64.8227 144.15 64.577 144.282 64.357C144.422 64.137 144.601 63.961 144.821 63.829C145.041 63.6897 145.287 63.62 145.558 63.62H149.089C149.368 63.62 149.617 63.6897 149.837 63.829C150.057 63.961 150.233 64.137 150.365 64.357C150.497 64.577 150.563 64.8227 150.563 65.094V68.526C150.563 68.7973 150.497 69.043 150.365 69.263C150.233 69.483 150.057 69.6627 149.837 69.802C149.617 69.934 149.368 70 149.089 70H145.558ZM145.602 68.691H149.045C149.104 68.691 149.152 68.6727 149.188 68.636C149.232 68.592 149.254 68.5407 149.254 68.482V65.138C149.254 65.0793 149.232 65.0317 149.188 64.995C149.152 64.951 149.104 64.929 149.045 64.929H145.602C145.544 64.929 145.492 64.951 145.448 64.995C145.412 65.0317 145.393 65.0793 145.393 65.138V68.482C145.393 68.5407 145.412 68.592 145.448 68.636C145.492 68.6727 145.544 68.691 145.602 68.691ZM151.508 70V65.094C151.508 64.8227 151.574 64.577 151.706 64.357C151.845 64.137 152.025 63.961 152.245 63.829C152.472 63.6897 152.718 63.62 152.982 63.62H156.535V64.929H153.026C152.967 64.929 152.916 64.951 152.872 64.995C152.835 65.0317 152.817 65.0793 152.817 65.138V70H151.508ZM158.549 70C158.278 70 158.029 69.934 157.801 69.802C157.581 69.6627 157.405 69.483 157.273 69.263C157.141 69.043 157.075 68.7973 157.075 68.526V65.094C157.075 64.8227 157.141 64.577 157.273 64.357C157.405 64.137 157.581 63.961 157.801 63.829C158.029 63.6897 158.278 63.62 158.549 63.62H162.256V61.53H163.565V70H158.549ZM158.604 68.691H162.047C162.106 68.691 162.154 68.6727 162.19 68.636C162.234 68.592 162.256 68.5407 162.256 68.482V65.138C162.256 65.0793 162.234 65.0317 162.19 64.995C162.154 64.951 162.106 64.929 162.047 64.929H158.604C158.546 64.929 158.494 64.951 158.45 64.995C158.414 65.0317 158.395 65.0793 158.395 65.138V68.482C158.395 68.5407 158.414 68.592 158.45 68.636C158.494 68.6727 158.546 68.691 158.604 68.691Z" fill="black"/>
<path d="M102.35 41.3135L102.121 41.2798L101.948 41.4325L100.025 43.1208C99.897 43.2331 99.7329 43.329 99.5402 43.3965C99.3476 43.464 99.1353 43.5 98.9183 43.5H95.9375H95.4375V44V46.5C95.4375 46.944 94.9234 47.5 94.0156 47.5H90.8125H90.3125V48V50.5C90.3125 50.944 89.7984 51.5 88.8906 51.5H79.9219C79.0141 51.5 78.5 50.944 78.5 50.5V45.6213C78.5 45.4018 78.6111 45.1573 78.8705 44.9548L91.8273 34.8422L92.1294 34.6064L91.9802 34.2534C91.5467 33.2274 91.3125 32.1344 91.3125 31C91.3125 25.3093 97.2761 20.5001 104.906 20.5C112.559 20.4999 118.5 25.2914 118.5 31.0001C118.5 36.6908 112.536 41.5 104.906 41.5C104.032 41.5 103.178 41.4354 102.35 41.3135ZM104.406 28C104.406 30.0413 106.473 31.5 108.75 31.5C111.027 31.5 113.094 30.0413 113.094 28C113.094 25.9587 111.027 24.5 108.75 24.5C106.473 24.5 104.406 25.9587 104.406 28Z" fill="#3765A9" stroke="black"/>
<defs>
<filter id="filter0_d_713_2282" x="0.770996" y="1.96289" width="207.886" height="95.4404" filterUnits="userSpaceOnUse" color-interpolation-filters="sRGB">
<feFlood flood-opacity="0" result="BackgroundImageFix"/>
<feColorMatrix in="SourceAlpha" type="matrix" values="0 0 0 0 0 0 0 0 0 0 0 0 0 0 0 0 0 0 127 0" result="hardAlpha"/>
<feOffset dy="4"/>
<feGaussianBlur stdDeviation="2"/>
<feComposite in2="hardAlpha" operator="out"/>
<feColorMatrix type="matrix" values="0 0 0 0 0 0 0 0 0 0 0 0 0 0 0 0 0 0 0.25 0"/>
<feBlend mode="normal" in2="BackgroundImageFix" result="effect1_dropShadow_713_2282"/>
<feBlend mode="normal" in="SourceGraphic" in2="effect1_dropShadow_713_2282" result="shape"/>
</filter>
</defs>
</svg>
