<svg width="54" height="51" viewBox="0 0 54 51" fill="none" xmlns="http://www.w3.org/2000/svg">
<path d="M49.0125 21.5457C48.4721 21.5457 48.0342 21.1082 48.0342 20.5685V19.4206C48.0342 18.8808 48.4722 18.4434 49.0125 18.4434C49.5529 18.4434 49.9908 18.8809 49.9908 19.4206V20.5685C49.9908 21.1082 49.5528 21.5457 49.0125 21.5457Z" fill="#2BA5F7"/>
<path d="M49.0125 27.4149C48.4721 27.4149 48.0342 26.9773 48.0342 26.4377V25.2897C48.0342 24.75 48.4722 24.3125 49.0125 24.3125C49.5529 24.3125 49.9908 24.7501 49.9908 25.2897V26.4377C49.9908 26.9773 49.5528 27.4149 49.0125 27.4149Z" fill="#2BA5F7"/>
<path d="M52.5261 23.9056H51.3768C50.8364 23.9056 50.3984 23.468 50.3984 22.9284C50.3984 22.3887 50.8365 21.9512 51.3768 21.9512H52.5261C53.0664 21.9512 53.5044 22.3887 53.5044 22.9284C53.5044 23.468 53.0664 23.9056 52.5261 23.9056Z" fill="#2BA5F7"/>
<path d="M46.6481 23.9056H45.4988C44.9585 23.9056 44.5205 23.468 44.5205 22.9284C44.5205 22.3887 44.9586 21.9512 45.4988 21.9512H46.6481C47.1885 21.9512 47.6265 22.3887 47.6265 22.9284C47.6265 23.468 47.1885 23.9056 46.6481 23.9056Z" fill="#2BA5F7"/>
<path d="M41.0496 2.83808C40.5092 2.83808 40.0713 2.40052 40.0713 1.86088V0.977202C40.0713 0.437455 40.5094 0 41.0496 0C41.59 0 42.0279 0.437559 42.0279 0.977202V1.86088C42.028 2.40052 41.59 2.83808 41.0496 2.83808Z" fill="#2BA5F7"/>
<path d="M41.0496 7.35751C40.5092 7.35751 40.0713 6.91995 40.0713 6.38031V5.49673C40.0713 4.95699 40.5094 4.51953 41.0496 4.51953C41.59 4.51953 42.0279 4.95709 42.0279 5.49673V6.38041C42.028 6.92005 41.59 7.35751 41.0496 7.35751Z" fill="#2BA5F7"/>
<path d="M43.7546 4.65558H42.8699C42.3296 4.65558 41.8916 4.21802 41.8916 3.67837C41.8916 3.13873 42.3297 2.70117 42.8699 2.70117H43.7546C44.295 2.70117 44.733 3.13873 44.733 3.67837C44.733 4.21802 44.2949 4.65558 43.7546 4.65558Z" fill="#2BA5F7"/>
<path d="M39.2302 4.65558H38.3455C37.8051 4.65558 37.3672 4.21802 37.3672 3.67837C37.3672 3.13873 37.8053 2.70117 38.3455 2.70117H39.2302C39.7706 2.70117 40.2085 3.13873 40.2085 3.67837C40.2085 4.21802 39.7706 4.65558 39.2302 4.65558Z" fill="#2BA5F7"/>
<path d="M50.4272 12.1293C48.8843 12.1293 47.6289 10.8754 47.6289 9.33424C47.6289 7.79297 48.8843 6.53906 50.4272 6.53906C51.9702 6.53906 53.2256 7.79297 53.2256 9.33424C53.2256 10.8753 51.9704 12.1293 50.4272 12.1293ZM50.4272 8.49357C49.9632 8.49357 49.5857 8.87069 49.5857 9.33424C49.5857 9.79769 49.9632 10.1748 50.4272 10.1748C50.8914 10.1748 51.2688 9.79769 51.2688 9.33424C51.2689 8.87069 50.8914 8.49357 50.4272 8.49357Z" fill="#CC1B5B"/>
<path d="M28.5875 7.31878C27.0444 7.31878 25.7891 6.06486 25.7891 4.52359C25.7891 2.98243 27.0444 1.72852 28.5875 1.72852C30.1304 1.72852 31.3858 2.98243 31.3858 4.52359C31.3858 6.06497 30.1304 7.31878 28.5875 7.31878ZM28.5875 3.68313C28.1234 3.68313 27.7458 4.06025 27.7458 4.5237C27.7458 4.98735 28.1234 5.36437 28.5875 5.36437C29.0514 5.36437 29.429 4.98725 29.429 4.5237C29.429 4.06015 29.0514 3.68313 28.5875 3.68313Z" fill="#F7B239"/>
<path d="M17.7264 14.2903C18.2667 14.2903 18.7047 13.8528 18.7047 13.3131C18.7047 12.7734 18.2667 12.3359 17.7264 12.3359C17.1861 12.3359 16.748 12.7734 16.748 13.3131C16.748 13.8528 17.1861 14.2903 17.7264 14.2903Z" fill="#F7B239"/>
<path d="M27.3143 11.554C27.8546 11.554 28.2926 11.1165 28.2926 10.5768C28.2926 10.0371 27.8546 9.59961 27.3143 9.59961C26.7739 9.59961 26.3359 10.0371 26.3359 10.5768C26.3359 11.1165 26.7739 11.554 27.3143 11.554Z" fill="#CC1B5B"/>
<path d="M39.0535 13.7044C39.5938 13.7044 40.0319 13.2669 40.0319 12.7272C40.0319 12.1875 39.5938 11.75 39.0535 11.75C38.5132 11.75 38.0752 12.1875 38.0752 12.7272C38.0752 13.2669 38.5132 13.7044 39.0535 13.7044Z" fill="#2BA5F7"/>
<path d="M39.0535 34.2259C39.5938 34.2259 40.0319 33.7884 40.0319 33.2487C40.0319 32.709 39.5938 32.2715 39.0535 32.2715C38.5132 32.2715 38.0752 32.709 38.0752 33.2487C38.0752 33.7884 38.5132 34.2259 39.0535 34.2259Z" fill="#F7B239"/>
<path d="M32.2687 13.2424C32.0912 13.2424 31.9118 13.1941 31.7502 13.0932C31.2922 12.8068 31.1535 12.2037 31.4404 11.7463C32.4861 10.0788 33.3562 8.44715 34.0264 6.89669C34.2407 6.40131 34.8162 6.17293 35.3125 6.38701C35.8086 6.60099 36.037 7.17612 35.8228 7.67161C35.1132 9.31256 34.1968 11.0326 33.0988 12.7837C32.9131 13.0799 32.5945 13.2424 32.2687 13.2424Z" fill="#CC1B5B"/>
<path d="M23.0948 24.4558C22.8339 24.4558 22.5737 24.3523 22.3811 24.1472C22.0114 23.7535 22.0311 23.1351 22.4251 22.7659C22.4578 22.7351 25.7416 19.6415 29.0185 15.2632C29.342 14.831 29.955 14.7426 30.388 15.0657C30.8207 15.3889 30.9094 16.0013 30.5857 16.4336C27.2003 20.9568 23.9025 24.0616 23.7637 24.1916C23.575 24.3682 23.3348 24.4558 23.0948 24.4558Z" fill="#2BA5F7"/>
<path d="M29.4415 25.4899C29.1759 25.4899 28.9113 25.3825 28.7182 25.1709C28.3542 24.7721 28.3828 24.154 28.7822 23.7904C32.1388 20.7343 38.7873 15.3083 45.5999 13.3057C46.1183 13.1532 46.6622 13.4495 46.8148 13.9672C46.9675 14.485 46.6708 15.0283 46.1525 15.1808C39.7161 17.0728 33.3327 22.2922 30.1004 25.2351C29.9128 25.4057 29.6768 25.4899 29.4415 25.4899Z" fill="#F7B239"/>
<path d="M30.654 32.0051C30.3653 32.0051 30.0794 31.8781 29.8865 31.6347C29.5514 31.2122 29.6216 30.599 30.0441 30.2637C30.2862 30.0715 36.0627 25.5741 43.8497 27.0697C44.3803 27.1716 44.7278 27.684 44.6258 28.214C44.5238 28.7439 44.011 29.0909 43.4801 28.9891C36.5988 27.6674 31.3129 31.7535 31.2602 31.795C31.0805 31.9363 30.8665 32.0051 30.654 32.0051Z" fill="#CC1B5B"/>
<path d="M20.9309 18.6097C20.7834 18.6097 20.6335 18.5762 20.4927 18.5057C20.0098 18.2634 19.815 17.6761 20.0573 17.1938C21.1989 14.9231 22.3892 11.3306 21.5767 7.11117C21.4747 6.58113 21.8221 6.06873 22.3528 5.96685C22.8837 5.8654 23.3964 6.21204 23.4984 6.74198C24.4145 11.5006 23.0838 15.5292 21.8061 18.0708C21.6342 18.4125 21.2892 18.6097 20.9309 18.6097Z" fill="#CC1B5B"/>
<path d="M4.91931 41.3164L7.02216 46.2039L0.978516 49.2125L4.91931 41.3164Z" fill="#2BA5F7"/>
<path d="M4.91895 41.3171L9.14419 32.8516L13.5025 42.9784L7.0218 46.2045L4.91895 41.3171Z" fill="#F7B239"/>
<path d="M13.3698 24.3848L19.9848 39.7522L13.5028 42.9797L9.14453 32.8529L13.3698 24.3848Z" fill="#2BA5F7"/>
<path d="M29.1988 35.1647L19.9852 39.7513L13.3701 24.3839L15.0451 21.0273L29.1988 35.1647Z" fill="#F7B239"/>
<path d="M31.6666 36.2487L13.9591 18.5616C13.577 18.18 12.9575 18.18 12.5755 18.5616C12.1935 18.9432 12.1935 19.5621 12.5755 19.9436L13.8548 21.2214L0.102721 48.778C-0.0848567 49.1541 -0.0108708 49.608 0.286536 49.905C0.474426 50.0927 0.724808 50.1913 0.978743 50.1913C1.12682 50.1913 1.27615 50.1578 1.41482 50.0886L7.45846 47.08L29.0042 36.3535L30.2829 37.6307C30.4739 37.8215 30.7243 37.917 30.9747 37.917C31.2251 37.917 31.4755 37.8216 31.6665 37.6307C32.0487 37.2492 32.0487 36.6304 31.6666 36.2487ZM10.2221 32.882L13.3042 26.706L18.7208 39.2893L13.9927 41.6432L10.2221 32.882ZM12.2386 42.5164L7.51207 44.8694L5.99703 41.3481L9.07852 35.1735L12.2386 42.5164ZM4.85328 43.64L5.75794 45.7427L3.15788 47.0371L4.85328 43.64ZM20.4748 38.4161L14.4476 24.4146L15.3138 22.6789L27.5452 34.8962L20.4748 38.4161Z" fill="black"/>
</svg>
