<svg width="58" height="49" viewBox="0 0 58 49" fill="none" xmlns="http://www.w3.org/2000/svg">
<path d="M4.84294 21.0051C5.42539 21.0051 5.89746 20.5785 5.89746 20.0524V18.9332C5.89746 18.407 5.42528 17.9805 4.84294 17.9805C4.26048 17.9805 3.78841 18.4071 3.78841 18.9332V20.0524C3.78841 20.5785 4.26059 21.0051 4.84294 21.0051Z" fill="#2BA5F7"/>
<path d="M4.84294 26.7277C5.42539 26.7277 5.89746 26.3011 5.89746 25.775V24.6558C5.89746 24.1296 5.42528 23.7031 4.84294 23.7031C4.26048 23.7031 3.78841 24.1297 3.78841 24.6558V25.775C3.78841 26.3011 4.26059 26.7277 4.84294 26.7277Z" fill="#2BA5F7"/>
<path d="M1.05628 23.3077H2.29508C2.87754 23.3077 3.34961 22.8812 3.34961 22.355C3.34961 21.8289 2.87743 21.4023 2.29508 21.4023H1.05628C0.473827 21.4023 0.00175762 21.8289 0.00175762 22.355C0.00175762 22.8812 0.473827 23.3077 1.05628 23.3077Z" fill="#2BA5F7"/>
<path d="M7.39124 23.3077H8.63004C9.2125 23.3077 9.68457 22.8812 9.68457 22.355C9.68457 21.8289 9.21239 21.4023 8.63004 21.4023H7.39124C6.80878 21.4023 6.33671 21.8289 6.33671 22.355C6.33671 22.8812 6.80878 23.3077 7.39124 23.3077Z" fill="#2BA5F7"/>
<path d="M13.4259 2.76692C14.0084 2.76692 14.4805 2.34033 14.4805 1.81422V0.9527C14.4805 0.426486 14.0083 0 13.4259 0C12.8435 0 12.3714 0.426588 12.3714 0.9527V1.81422C12.3713 2.34033 12.8435 2.76692 13.4259 2.76692Z" fill="#2BA5F7"/>
<path d="M13.4259 7.17307C14.0084 7.17307 14.4805 6.74648 14.4805 6.22037V5.35895C14.4805 4.83274 14.0083 4.40625 13.4259 4.40625C12.8435 4.40625 12.3714 4.83284 12.3714 5.35895V6.22047C12.3713 6.74658 12.8435 7.17307 13.4259 7.17307Z" fill="#2BA5F7"/>
<path d="M10.5104 4.54017H11.464C12.0465 4.54017 12.5186 4.11358 12.5186 3.58747C12.5186 3.06135 12.0464 2.63477 11.464 2.63477H10.5104C9.92797 2.63477 9.4559 3.06135 9.4559 3.58747C9.4559 4.11358 9.92808 4.54017 10.5104 4.54017Z" fill="#2BA5F7"/>
<path d="M15.3874 4.54017H16.341C16.9234 4.54017 17.3955 4.11358 17.3955 3.58747C17.3955 3.06135 16.9233 2.63477 16.341 2.63477H15.3874C14.8049 2.63477 14.3329 3.06135 14.3329 3.58747C14.3329 4.11358 14.8049 4.54017 15.3874 4.54017Z" fill="#2BA5F7"/>
<path d="M3.31676 11.8251C4.97988 11.8251 6.33301 10.6026 6.33301 9.1001C6.33301 7.59747 4.97988 6.375 3.31676 6.375C1.65354 6.375 0.300408 7.59747 0.300408 9.1001C0.300408 10.6025 1.65343 11.8251 3.31676 11.8251ZM3.31676 8.2805C3.81688 8.2805 4.22385 8.64817 4.22385 9.1001C4.22385 9.55192 3.81688 9.91959 3.31676 9.91959C2.81642 9.91959 2.40957 9.55192 2.40957 9.1001C2.40946 8.64817 2.81642 8.2805 3.31676 8.2805Z" fill="#CC1B5B"/>
<path d="M26.8567 7.13564C28.5199 7.13564 29.873 5.91317 29.873 4.41054C29.873 2.90802 28.5199 1.68555 26.8567 1.68555C25.1936 1.68555 23.8404 2.90802 23.8404 4.41054C23.8404 5.91327 25.1936 7.13564 26.8567 7.13564ZM26.8567 3.59115C27.3569 3.59115 27.7639 3.95882 27.7639 4.41064C27.7639 4.86267 27.3569 5.23024 26.8567 5.23024C26.3566 5.23024 25.9496 4.86257 25.9496 4.41064C25.9496 3.95872 26.3566 3.59115 26.8567 3.59115Z" fill="#F7B239"/>
<path d="M38.5646 13.9327C37.9822 13.9327 37.5101 13.5062 37.5101 12.98C37.5101 12.4539 37.9822 12.0273 38.5646 12.0273C39.147 12.0273 39.6191 12.4539 39.6191 12.98C39.6191 13.5062 39.147 13.9327 38.5646 13.9327Z" fill="#F7B239"/>
<path d="M28.2297 11.2648C27.6473 11.2648 27.1751 10.8382 27.1751 10.3121C27.1751 9.78591 27.6473 9.35938 28.2297 9.35938C28.8121 9.35938 29.2842 9.78591 29.2842 10.3121C29.2842 10.8382 28.8121 11.2648 28.2297 11.2648Z" fill="#CC1B5B"/>
<path d="M15.5763 13.3605C14.9939 13.3605 14.5218 12.9339 14.5218 12.4078C14.5218 11.8816 14.9939 11.4551 15.5763 11.4551C16.1587 11.4551 16.6309 11.8816 16.6309 12.4078C16.6309 12.9339 16.1587 13.3605 15.5763 13.3605Z" fill="#2BA5F7"/>
<path d="M15.5763 33.3663C14.9939 33.3663 14.5218 32.9398 14.5218 32.4136C14.5218 31.8875 14.9939 31.4609 15.5763 31.4609C16.1587 31.4609 16.6309 31.8875 16.6309 32.4136C16.6309 32.9398 16.1587 33.3663 15.5763 33.3663Z" fill="#F7B239"/>
<path d="M22.8896 12.9102C23.0808 12.9102 23.2742 12.8632 23.4484 12.7648C23.9421 12.4856 24.0915 11.8976 23.7824 11.4517C22.6552 9.82603 21.7173 8.23528 20.9949 6.7237C20.764 6.24073 20.1437 6.01808 19.6086 6.22679C19.0739 6.4354 18.8277 6.99612 19.0586 7.47918C19.8234 9.07899 20.8113 10.7559 21.9948 12.4631C22.1949 12.7519 22.5384 12.9102 22.8896 12.9102Z" fill="#CC1B5B"/>
<path d="M32.7782 23.8424C33.0594 23.8424 33.3399 23.7415 33.5475 23.5415C33.946 23.1578 33.9247 22.5548 33.5001 22.1949C33.4648 22.1649 29.9253 19.1488 26.3931 14.8803C26.0444 14.4589 25.3837 14.3727 24.917 14.6878C24.4506 15.0028 24.3549 15.5999 24.7039 16.0214C28.3529 20.4312 31.9076 23.4581 32.0572 23.5849C32.2606 23.7571 32.5196 23.8424 32.7782 23.8424Z" fill="#2BA5F7"/>
<path d="M25.9373 24.8514C26.2237 24.8514 26.5089 24.7467 26.717 24.5404C27.1093 24.1516 27.0785 23.5489 26.648 23.1945C23.03 20.215 15.8637 14.9251 8.52042 12.9726C7.96162 12.824 7.37545 13.1129 7.21088 13.6176C7.04632 14.1224 7.3661 14.652 7.92479 14.8007C14.8626 16.6454 21.7431 21.7339 25.2271 24.603C25.4293 24.7693 25.6838 24.8514 25.9373 24.8514Z" fill="#F7B239"/>
<path d="M24.6301 31.2018C24.9413 31.2018 25.2495 31.0781 25.4574 30.8408C25.8185 30.4288 25.7429 29.831 25.2875 29.5041C25.0265 29.3168 18.8001 24.9321 10.4066 26.3902C9.83471 26.4895 9.46018 26.9891 9.57012 27.5058C9.68005 28.0225 10.2328 28.3607 10.805 28.2615C18.2223 26.9729 23.9199 30.9566 23.9766 30.997C24.1704 31.1348 24.4011 31.2018 24.6301 31.2018Z" fill="#CC1B5B"/>
<path d="M35.1111 18.1439C35.2701 18.1439 35.4317 18.1112 35.5835 18.0424C36.104 17.8062 36.314 17.2336 36.0527 16.7634C34.8223 14.5497 33.5392 11.0472 34.415 6.93359C34.5249 6.41684 34.1505 5.91729 33.5785 5.81797C33.0062 5.71906 32.4536 6.05701 32.3437 6.57366C31.3561 11.213 32.7905 15.1405 34.1677 17.6185C34.353 17.9515 34.725 18.1439 35.1111 18.1439Z" fill="#CC1B5B"/>
<path d="M52.3695 40.2812L50.1028 45.0462L56.6172 47.9794L52.3695 40.2812Z" fill="#2BA5F7"/>
<path d="M52.3691 40.2806L47.8148 32.0273L43.1171 41.9002L50.1025 45.0455L52.3691 40.2806Z" fill="#F7B239"/>
<path d="M43.2611 23.7715L36.1308 38.7536L43.1177 41.9002L47.8154 32.0273L43.2611 23.7715Z" fill="#2BA5F7"/>
<path d="M26.1992 34.2829L36.1305 38.7545L43.2607 23.7724L41.4553 20.5L26.1992 34.2829Z" fill="#F7B239"/>
<path d="M23.5389 35.3391L42.6256 18.0954C43.0374 17.7234 43.7052 17.7234 44.1169 18.0954C44.5287 18.4675 44.5287 19.0708 44.1169 19.4428L42.738 20.6886L57.5612 47.5543C57.7633 47.9209 57.6836 48.3634 57.363 48.653C57.1605 48.8359 56.8906 48.9321 56.6169 48.9321C56.4573 48.9321 56.2963 48.8994 56.1469 48.832L49.6325 45.8988L26.4086 35.4413L25.0304 36.6864C24.8245 36.8724 24.5546 36.9656 24.2847 36.9656C24.0148 36.9656 23.7449 36.8726 23.539 36.6864C23.127 36.3145 23.127 35.7112 23.5389 35.3391ZM46.6537 32.0567L43.3315 26.0357L37.493 38.3034L42.5893 40.5983L46.6537 32.0567ZM44.4801 41.4496L49.5747 43.7437L51.2078 40.3106L47.8863 34.2908L44.4801 41.4496ZM52.4406 42.545L51.4655 44.595L54.268 45.857L52.4406 42.545ZM35.6024 37.4521L42.099 23.8017L41.1653 22.1095L27.9813 34.0205L35.6024 37.4521Z" fill="black"/>
</svg>
