<svg xmlns="http://www.w3.org/2000/svg" width="440" height="263" viewBox="0 0 440 263" fill="none">
  <g opacity="0.8" filter="url(#filter0_b_7_151)">
    <path d="M1.44531 23.1893C1.44531 11.1401 11.2131 1.37227 23.2624 1.37227H417.475C429.524 1.37227 439.292 11.1401 439.292 23.1893V239.795C439.292 251.844 429.524 261.612 417.475 261.612H23.2623C11.2131 261.612 1.44531 251.844 1.44531 239.795V23.1893Z" fill="url(#paint0_radial_7_151)" fill-opacity="0.5"/>
    <path d="M23.2624 1.06118C11.0413 1.06118 1.13423 10.9683 1.13423 23.1893V239.795C1.13423 252.016 11.0413 261.923 23.2623 261.923H417.475C429.696 261.923 439.603 252.016 439.603 239.795V23.1893C439.603 10.9683 429.696 1.06118 417.475 1.06118H23.2624Z" stroke="url(#paint1_linear_7_151)" stroke-opacity="0.3" stroke-width="0.622173" style="mix-blend-mode:overlay"/>
  </g>
  <defs>
    <filter id="filter0_b_7_151" x="-6.64295" y="-6.71599" width="454.023" height="276.416" filterUnits="userSpaceOnUse" color-interpolation-filters="sRGB">
      <feFlood flood-opacity="0" result="BackgroundImageFix"/>
      <feGaussianBlur in="BackgroundImageFix" stdDeviation="3.73304"/>
      <feComposite in2="SourceAlpha" operator="in" result="effect1_backgroundBlur_7_151"/>
      <feBlend mode="normal" in="SourceGraphic" in2="effect1_backgroundBlur_7_151" result="shape"/>
    </filter>
    <radialGradient id="paint0_radial_7_151" cx="0" cy="0" r="1" gradientUnits="userSpaceOnUse" gradientTransform="translate(355.175 18.2576) rotate(34.8331) scale(497.936 764.109)">
      <stop stop-color="white" stop-opacity="0.7"/>
      <stop offset="1" stop-color="white" stop-opacity="0.1"/>
    </radialGradient>
    <linearGradient id="paint1_linear_7_151" x1="545.122" y1="11.1476" x2="545.122" y2="271.388" gradientUnits="userSpaceOnUse">
      <stop stop-color="#FFDCDC"/>
      <stop offset="1" stop-color="#FEE2E2" stop-opacity="0"/>
    </linearGradient>
  </defs>
</svg>