<svg width="188" height="168" viewBox="0 0 188 168" fill="none" xmlns="http://www.w3.org/2000/svg">
<path d="M92.5401 168C57.6747 168 27.2996 150.448 11.5746 124.53C-23.1175 67.3836 24.7337 -1.98885 94.5859 0.0436341C139.022 0.862932 176.557 30.6255 183.717 70.2039C193.114 121.284 149.684 168 92.5401 168Z" fill="url(#paint0_radial_63_10)"/>
<g opacity="0.75">
<path d="M129.253 97.5873C125.421 96.7207 124.364 101.054 126.531 102.03C128.698 103.023 134.142 105.985 135.234 104C136.327 102.03 133.605 98.5799 129.253 97.5873Z" fill="#0468AA"/>
<path d="M167.306 61.0337C163.596 61.8057 159.158 63.5074 162.955 65.981C166.769 68.4547 172.733 67.462 173.288 64.5C173.825 61.5221 174.38 59.5527 167.306 61.0337Z" fill="#0468AA"/>
<path d="M92.8265 140.567C84.8513 136.218 73.2525 134.643 72.1603 139.086C71.068 143.529 78.6791 150.446 87.92 149.453C97.1781 148.476 98.2704 143.529 92.8265 140.567Z" fill="#0468AA"/>
<path d="M118.827 164.549C111.632 166.487 104.073 167.653 96.2539 167.921C98.0397 157.632 108.806 160.878 114.562 162.296C116.244 162.721 117.648 163.556 118.827 164.549Z" fill="#0468AA"/>
<path d="M42.2648 140.079C45.7843 141.481 48.2462 134.643 43.3571 128.719C38.4679 122.795 36.2834 115.374 30.302 113.893C24.3206 112.412 21.0612 131.681 42.2648 140.079Z" fill="#0468AA"/>
<path d="M18.3412 115.863C16.4167 116.179 15.6192 119.818 19.9709 120.306C24.3226 120.811 24.3226 114.887 18.3412 115.863Z" fill="#0468AA"/>
<path d="M66.7245 95.617C62.8929 95.3019 59.1134 97.0981 59.6509 101.053C60.1883 105.007 66.1697 101.053 68.8917 101.053C71.6136 101.053 72.7059 96.1055 66.7245 95.617Z" fill="#0468AA"/>
<path d="M104.245 49.6736C100.951 48.2556 100.431 54.6209 103.153 55.5978C105.875 56.5904 113.486 53.6125 104.245 49.6736Z" fill="#0468AA"/>
</g>
<path d="M69.4467 81.7834C50.965 84.7454 48.2431 85.2339 31.3912 98.0905C20.2432 106.583 8.60986 103.841 2.02166 101.005C0.790703 95.5223 0.131836 89.8345 0.131836 84.0049C0.131836 60.1192 11.1064 38.5497 28.7212 23.2666C32.3447 25.2203 36.0896 27.8673 39.0023 31.3966C47.1508 41.2754 45.5211 45.2301 69.4467 56.59C93.3549 67.9498 87.9283 78.8213 69.4467 81.7834Z" fill="url(#paint1_linear_63_10)"/>
<path d="M176.074 48.0179C159.014 44.7722 147.38 62.3083 135.764 61.0321C122.172 59.5511 125.986 41.2744 114.561 22.0052C108.839 12.3627 108.441 5.68227 109.464 1.42822C138.989 6.37552 163.574 24.0849 176.074 48.0179Z" fill="url(#paint2_linear_63_10)"/>
<path d="M184.963 84.0029C184.963 116.602 164.539 144.852 134.684 158.78C127.871 148.995 138.915 141.732 152.074 134.153C168.388 124.763 153.166 120.808 155.871 105.494C158.592 90.1792 148.259 89.1866 153.149 76.3456C156.633 67.1758 174.803 75.873 184.911 81.6081C184.945 82.3958 184.963 83.1994 184.963 84.0029Z" fill="url(#paint3_linear_63_10)"/>
<path d="M98.258 109.45C88.3757 112.239 83.0358 101.541 70.5356 104.015C58.0353 106.488 47.7022 126.734 64.5542 126.246C81.4061 125.757 85.7578 123.772 98.258 131.682C110.758 139.591 125.443 134.155 129.795 121.803C134.129 109.45 131.407 100.06 98.258 109.45Z" fill="url(#paint4_linear_63_10)"/>
<path d="M118.913 72.3917C113.711 73.9042 112.394 76.3463 114.023 79.3084C115.653 82.2705 122.172 81.7821 125.431 86.2252C128.691 90.6683 136.857 96.104 139.024 86.2252C141.208 76.3463 130.875 68.9254 118.913 72.3917Z" fill="url(#paint5_linear_63_10)"/>
<path opacity="0.5" d="M99.8933 46.6938C98.9224 53.2797 92.2822 46.6938 81.4117 44.7243C70.5411 42.7549 66.1895 36.8149 71.0786 32.8603C75.9678 28.9056 82.4866 25.9435 89.0228 29.394C95.5417 32.8603 100.968 39.2886 99.8933 46.6938Z" fill="#0468AA"/>
<path d="M88.4687 7.66654C74.8762 7.66654 68.3573 14.5833 55.8571 18.538C48.402 20.8856 42.5073 18.1599 38.9531 15.5759C54.0713 5.77586 72.5703 0.00927734 92.5603 0.00927734C93.2538 0.00927734 93.9299 0.00926003 94.6061 0.0407715C95.5597 3.60156 95.2129 7.66654 88.4687 7.66654Z" fill="url(#paint6_linear_63_10)"/>
<path opacity="0.45" d="M180.561 109.704C173.019 131.053 156.323 148.683 134.686 158.783C129.641 161.13 124.336 163.068 118.823 164.565C111.628 166.503 104.068 167.669 96.2493 167.937C95.0183 167.984 93.7874 168 92.5391 168C57.6736 168 27.2985 150.448 11.5735 124.53C7.16984 117.282 3.91045 109.373 2.02068 101.007C0.789726 95.5235 0.130859 89.8357 0.130859 84.0061C0.130859 73.8594 2.10734 64.1381 5.73085 55.1416C16.1853 83.5177 40.1109 120.134 94.4982 126.925C105.109 128.248 115.026 128.421 124.284 127.697C146.996 125.885 165.685 118.669 180.561 109.704Z" fill="url(#paint7_linear_63_10)"/>
<path opacity="0.45" d="M184.962 84.0057C184.962 92.9707 183.419 101.605 180.559 109.703C173.017 131.052 156.321 148.683 134.684 158.782C129.639 161.13 124.334 163.068 118.82 164.565C111.625 166.503 104.066 167.669 96.247 167.936C95.016 167.984 93.7851 167.999 92.5368 167.999C57.6714 167.999 27.2963 150.448 11.5713 124.529C27.5563 130.501 46.5928 134.582 69.166 135.385C91.0631 136.173 109.233 133.101 124.281 127.681C156.633 116.053 174.664 93.5536 184.442 75.0249C184.702 77.1834 184.858 79.3893 184.928 81.5951C184.945 82.3986 184.962 83.2021 184.962 84.0057Z" fill="url(#paint8_linear_63_10)"/>
<path d="M183.734 70.2511C183.734 70.2511 170.575 26.4502 110.068 12.0337C73.798 3.38383 48.6241 11.1829 34.2861 18.8087C80.0741 -15.1606 150.1 -1.67377 176.071 48.0198C182.105 59.5372 183.301 68.644 183.734 70.2511Z" fill="url(#paint9_linear_63_10)"/>
<path d="M71.49 83.88L43.35 67.64V60.85L71.49 44.68V51.33L49.09 64.28L71.49 77.23V83.88ZM76.5059 85V77.58L111.436 35.16L111.926 34.6V41.88L77.0659 84.3L76.5059 85ZM116.72 84.02V77.37L139.12 64.42L116.72 51.47V44.82L144.86 60.99V67.78L116.72 84.02Z" fill="black"/>
<g filter="url(#filter0_d_63_10)">
<path d="M17.5738 129C16.8338 129 16.1538 128.82 15.5338 128.46C14.9138 128.1 14.4238 127.61 14.0638 126.99C13.7038 126.37 13.5238 125.69 13.5238 124.95V111.45C13.5238 110.71 13.7038 110.03 14.0638 109.41C14.4238 108.79 14.9138 108.3 15.5338 107.94C16.1538 107.58 16.8338 107.4 17.5738 107.4H31.0738C31.8138 107.4 32.4838 107.58 33.0838 107.94C33.7038 108.3 34.1938 108.79 34.5538 109.41C34.9338 110.03 35.1238 110.71 35.1238 111.45V112.92H31.4938V111.57C31.4938 111.41 31.4338 111.28 31.3138 111.18C31.2138 111.08 31.0938 111.03 30.9538 111.03H17.6638C17.5238 111.03 17.3938 111.08 17.2738 111.18C17.1738 111.28 17.1238 111.41 17.1238 111.57V124.83C17.1238 124.99 17.1738 125.12 17.2738 125.22C17.3938 125.32 17.5238 125.37 17.6638 125.37H30.9538C31.0938 125.37 31.2138 125.32 31.3138 125.22C31.4338 125.12 31.4938 124.99 31.4938 124.83V120.6H26.5138V116.97H35.1238V124.95C35.1238 125.69 34.9338 126.37 34.5538 126.99C34.1938 127.61 33.7038 128.1 33.0838 128.46C32.4838 128.82 31.8138 129 31.0738 129H17.5738ZM38.4861 129V111.45C38.4861 110.71 38.6661 110.03 39.0261 109.41C39.3861 108.79 39.8761 108.3 40.4961 107.94C41.1161 107.58 41.7961 107.4 42.5361 107.4H56.0361C56.7761 107.4 57.4461 107.58 58.0461 107.94C58.6661 108.3 59.1561 108.79 59.5161 109.41C59.8961 110.03 60.0861 110.71 60.0861 111.45V129H56.4561V121.59H42.0861V129H38.4861ZM42.0861 117.99H56.4561V111.57C56.4561 111.41 56.3961 111.28 56.2761 111.18C56.1761 111.08 56.0561 111.03 55.9161 111.03H42.6261C42.4861 111.03 42.3561 111.08 42.2361 111.18C42.1361 111.28 42.0861 111.41 42.0861 111.57V117.99ZM63.5042 129V107.4H67.6142L75.7142 117.06L83.7842 107.4H87.9242V129H84.2942V112.44L75.7142 122.67L67.1042 112.47V129H63.5042ZM91.0963 129V107.4H94.6663V129H91.0963ZM97.8123 129V107.4H117.642V111.03H101.442V116.4H114.492V120H101.442V129H97.8123ZM119.192 129V107.4H122.762V129H119.192ZM125.908 129V107.4H145.738V111.03H129.538V116.4H142.588V120H129.538V125.37H145.738V129H125.908ZM148.877 129V107.4H166.427C167.167 107.4 167.837 107.58 168.437 107.94C169.057 108.3 169.547 108.79 169.907 109.41C170.287 110.03 170.477 110.71 170.477 111.45V124.95C170.477 125.69 170.287 126.37 169.907 126.99C169.547 127.61 169.057 128.1 168.437 128.46C167.837 128.82 167.167 129 166.427 129H148.877ZM153.017 125.37H166.307C166.447 125.37 166.567 125.32 166.667 125.22C166.787 125.12 166.847 124.99 166.847 124.83V111.57C166.847 111.41 166.787 111.28 166.667 111.18C166.567 111.08 166.447 111.03 166.307 111.03H153.017C152.857 111.03 152.717 111.08 152.597 111.18C152.497 111.28 152.447 111.41 152.447 111.57V124.83C152.447 124.99 152.497 125.12 152.597 125.22C152.717 125.32 152.857 125.37 153.017 125.37Z" fill="#F2BD9F"/>
</g>
<defs>
<filter id="filter0_d_63_10" x="5.52344" y="99.3999" width="176.953" height="41.6001" filterUnits="userSpaceOnUse" color-interpolation-filters="sRGB">
<feFlood flood-opacity="0" result="BackgroundImageFix"/>
<feColorMatrix in="SourceAlpha" type="matrix" values="0 0 0 0 0 0 0 0 0 0 0 0 0 0 0 0 0 0 127 0" result="hardAlpha"/>
<feOffset dx="2" dy="2"/>
<feGaussianBlur stdDeviation="5"/>
<feComposite in2="hardAlpha" operator="out"/>
<feColorMatrix type="matrix" values="0 0 0 0 1 0 0 0 0 0.24 0 0 0 0 0 0 0 0 1 0"/>
<feBlend mode="normal" in2="BackgroundImageFix" result="effect1_dropShadow_63_10"/>
<feBlend mode="normal" in="SourceGraphic" in2="effect1_dropShadow_63_10" result="shape"/>
</filter>
<radialGradient id="paint0_radial_63_10" cx="0" cy="0" r="1" gradientUnits="userSpaceOnUse" gradientTransform="translate(97.1285 51.1366) scale(112.163 101.931)">
<stop stop-color="#272B86"/>
<stop offset="1" stop-color="#056DB0"/>
</radialGradient>
<linearGradient id="paint1_linear_63_10" x1="31.8166" y1="-45.4879" x2="49.3452" y2="196.356" gradientUnits="userSpaceOnUse">
<stop stop-color="#56F51E"/>
<stop offset="1" stop-color="#F2F236" stop-opacity="0"/>
</linearGradient>
<linearGradient id="paint2_linear_63_10" x1="135.527" y1="-53.0056" x2="153.056" y2="188.838" gradientUnits="userSpaceOnUse">
<stop stop-color="#45F236"/>
<stop offset="1" stop-color="#F2F236" stop-opacity="0"/>
</linearGradient>
<linearGradient id="paint3_linear_63_10" x1="143.756" y1="-53.6036" x2="161.285" y2="188.24" gradientUnits="userSpaceOnUse">
<stop stop-color="#94F236"/>
<stop offset="1" stop-color="#F2F236" stop-opacity="0"/>
</linearGradient>
<linearGradient id="paint4_linear_63_10" x1="78.9969" y1="-48.9079" x2="96.5255" y2="192.936" gradientUnits="userSpaceOnUse">
<stop stop-color="#89F236"/>
<stop offset="1" stop-color="#F2F236" stop-opacity="0"/>
</linearGradient>
<linearGradient id="paint5_linear_63_10" x1="114.789" y1="-51.5031" x2="132.318" y2="190.342" gradientUnits="userSpaceOnUse">
<stop stop-color="#89F236"/>
<stop offset="1" stop-color="#F2F236" stop-opacity="0"/>
</linearGradient>
<linearGradient id="paint6_linear_63_10" x1="61.9995" y1="-47.6774" x2="79.5283" y2="194.167" gradientUnits="userSpaceOnUse">
<stop stop-color="#94F236"/>
<stop offset="1" stop-color="#F2F236" stop-opacity="0"/>
</linearGradient>
<linearGradient id="paint7_linear_63_10" x1="78.4909" y1="192.741" x2="89.9631" y2="77.6417" gradientUnits="userSpaceOnUse">
<stop stop-color="#00145C"/>
<stop offset="1" stop-color="#0983BD"/>
</linearGradient>
<linearGradient id="paint8_linear_63_10" x1="87.8089" y1="187.802" x2="100.634" y2="67.4703" gradientUnits="userSpaceOnUse">
<stop stop-color="#0C2F45"/>
<stop offset="1" stop-color="#00A9D7" stop-opacity="0.3"/>
</linearGradient>
<linearGradient id="paint9_linear_63_10" x1="159.661" y1="-46.2462" x2="109.846" y2="61.8485" gradientUnits="userSpaceOnUse">
<stop stop-color="#C4FFB5"/>
<stop offset="1" stop-color="#FFFFB3" stop-opacity="0"/>
</linearGradient>
</defs>
</svg>
