<svg width="241" height="95" viewBox="0 0 241 95" fill="none" xmlns="http://www.w3.org/2000/svg">
<g filter="url(#filter0_d_77_61)">
<rect x="5" width="231" height="86" rx="43" fill="#2BB00A" fill-opacity="0.81" shape-rendering="crispEdges"/>
</g>
<g filter="url(#filter1_d_77_61)">
<path d="M84.792 36.884V40.016H92.712V46.028H84.792V49.628H93.792V56H76.8V30.512H93.792V36.884H84.792ZM95.7239 45.848C95.7239 43.712 96.0839 41.864 96.8039 40.304C97.5479 38.72 98.5559 37.52 99.8279 36.704C101.1 35.864 102.528 35.444 104.112 35.444C105.432 35.444 106.572 35.72 107.532 36.272C108.492 36.8 109.224 37.532 109.728 38.468V35.696H117.684V56H109.728V53.228C109.224 54.164 108.492 54.908 107.532 55.46C106.572 55.988 105.432 56.252 104.112 56.252C102.528 56.252 101.1 55.844 99.8279 55.028C98.5559 54.188 97.5479 52.988 96.8039 51.428C96.0839 49.844 95.7239 47.984 95.7239 45.848ZM109.728 45.848C109.728 44.768 109.452 43.928 108.9 43.328C108.348 42.728 107.64 42.428 106.776 42.428C105.912 42.428 105.204 42.728 104.652 43.328C104.1 43.928 103.824 44.768 103.824 45.848C103.824 46.928 104.1 47.768 104.652 48.368C105.204 48.968 105.912 49.268 106.776 49.268C107.64 49.268 108.348 48.968 108.9 48.368C109.452 47.768 109.728 46.928 109.728 45.848ZM130.309 56.252C128.389 56.252 126.685 55.94 125.197 55.316C123.733 54.692 122.569 53.828 121.705 52.724C120.841 51.62 120.349 50.372 120.229 48.98H127.897C127.993 49.58 128.245 50.024 128.653 50.312C129.085 50.6 129.625 50.744 130.273 50.744C130.681 50.744 131.005 50.66 131.245 50.492C131.485 50.3 131.605 50.072 131.605 49.808C131.605 49.352 131.353 49.028 130.849 48.836C130.345 48.644 129.493 48.428 128.293 48.188C126.829 47.9 125.617 47.588 124.657 47.252C123.721 46.916 122.893 46.34 122.173 45.524C121.477 44.708 121.129 43.58 121.129 42.14C121.129 40.892 121.453 39.764 122.101 38.756C122.773 37.724 123.757 36.92 125.053 36.344C126.349 35.744 127.921 35.444 129.769 35.444C132.505 35.444 134.641 36.116 136.177 37.46C137.737 38.804 138.673 40.556 138.985 42.716H131.893C131.773 42.164 131.521 41.744 131.137 41.456C130.753 41.144 130.237 40.988 129.589 40.988C129.181 40.988 128.869 41.072 128.653 41.24C128.437 41.384 128.329 41.612 128.329 41.924C128.329 42.332 128.581 42.644 129.085 42.86C129.589 43.052 130.393 43.256 131.497 43.472C132.961 43.76 134.197 44.084 135.205 44.444C136.213 44.804 137.089 45.428 137.833 46.316C138.577 47.18 138.949 48.38 138.949 49.916C138.949 51.116 138.601 52.196 137.905 53.156C137.209 54.116 136.201 54.872 134.881 55.424C133.585 55.976 132.061 56.252 130.309 56.252ZM165.052 35.696L152.056 65.72H143.308L148.42 54.992L139.96 35.696H148.852L152.668 45.992L156.232 35.696H165.052Z" fill="white" fill-opacity="0.97" shape-rendering="crispEdges"/>
</g>
<defs>
<filter id="filter0_d_77_61" x="0.908397" y="0" width="239.183" height="94.1832" filterUnits="userSpaceOnUse" color-interpolation-filters="sRGB">
<feFlood flood-opacity="0" result="BackgroundImageFix"/>
<feColorMatrix in="SourceAlpha" type="matrix" values="0 0 0 0 0 0 0 0 0 0 0 0 0 0 0 0 0 0 127 0" result="hardAlpha"/>
<feOffset dy="4.0916"/>
<feGaussianBlur stdDeviation="2.0458"/>
<feComposite in2="hardAlpha" operator="out"/>
<feColorMatrix type="matrix" values="0 0 0 0 0 0 0 0 0 0 0 0 0 0 0 0 0 0 0.25 0"/>
<feBlend mode="normal" in2="BackgroundImageFix" result="effect1_dropShadow_77_61"/>
<feBlend mode="normal" in="SourceGraphic" in2="effect1_dropShadow_77_61" result="shape"/>
</filter>
<filter id="filter1_d_77_61" x="74.2639" y="30.512" width="93.3246" height="40.2802" filterUnits="userSpaceOnUse" color-interpolation-filters="sRGB">
<feFlood flood-opacity="0" result="BackgroundImageFix"/>
<feColorMatrix in="SourceAlpha" type="matrix" values="0 0 0 0 0 0 0 0 0 0 0 0 0 0 0 0 0 0 127 0" result="hardAlpha"/>
<feOffset dy="2.53612"/>
<feGaussianBlur stdDeviation="1.26806"/>
<feComposite in2="hardAlpha" operator="out"/>
<feColorMatrix type="matrix" values="0 0 0 0 0 0 0 0 0 0 0 0 0 0 0 0 0 0 0.25 0"/>
<feBlend mode="normal" in2="BackgroundImageFix" result="effect1_dropShadow_77_61"/>
<feBlend mode="normal" in="SourceGraphic" in2="effect1_dropShadow_77_61" result="shape"/>
</filter>
</defs>
</svg>
