<svg width="209" height="98" viewBox="0 0 209 98" fill="none" xmlns="http://www.w3.org/2000/svg">
<g filter="url(#filter0_d_655_2275)">
<path d="M175.309 87.9031L203.157 48.2398L203.153 17.3251L191.627 3.52655L16.3446 3.46391L6.27091 22.4067L6.27599 68.7797L16.3539 87.8462L175.309 87.9031Z" stroke="#1A1717" stroke-width="3" stroke-linecap="round" shape-rendering="crispEdges"/>
</g>
<path d="M21.6126 70.6572V62.7372H23.1196L26.0896 66.2792L29.0486 62.7372H30.5666V70.6572H29.2356V64.5852L26.0896 68.3362L22.9326 64.5962V70.6572H21.6126ZM32.7527 73.0552V71.7352H36.6357C36.687 71.7352 36.731 71.7132 36.7677 71.6692C36.8117 71.6326 36.8337 71.5886 36.8337 71.5372V70.6572H33.1377C32.8737 70.6572 32.628 70.5912 32.4007 70.4592C32.1807 70.3199 32.001 70.1402 31.8617 69.9202C31.7297 69.7002 31.6637 69.4546 31.6637 69.1832V64.2992H32.9727V69.1392C32.9727 69.1979 32.991 69.2492 33.0277 69.2932C33.0717 69.3299 33.123 69.3482 33.1817 69.3482H36.6357C36.687 69.3482 36.731 69.3299 36.7677 69.2932C36.8117 69.2492 36.8337 69.1979 36.8337 69.1392V64.2992H38.1427V71.5812C38.1427 71.8599 38.0767 72.1092 37.9447 72.3292C37.82 72.5492 37.644 72.7252 37.4167 72.8572C37.1967 72.9892 36.951 73.0552 36.6797 73.0552H32.7527ZM42.6243 70.6572V62.7482H49.0593C49.3306 62.7482 49.5763 62.8179 49.7963 62.9572C50.0236 63.0892 50.2033 63.2689 50.3353 63.4962C50.4746 63.7162 50.5443 63.9619 50.5443 64.2332V66.4112C50.5443 66.6752 50.4746 66.9209 50.3353 67.1482C50.2033 67.3756 50.0236 67.5552 49.7963 67.6872C49.5763 67.8192 49.3306 67.8852 49.0593 67.8852L43.9443 67.8962V70.6572H42.6243ZM44.1423 66.5542H49.0153C49.0666 66.5542 49.1106 66.5359 49.1473 66.4992C49.1913 66.4626 49.2133 66.4149 49.2133 66.3562V64.2662C49.2133 64.2149 49.1913 64.1709 49.1473 64.1342C49.1106 64.0902 49.0666 64.0682 49.0153 64.0682H44.1423C44.091 64.0682 44.0433 64.0902 43.9993 64.1342C43.9626 64.1709 43.9443 64.2149 43.9443 64.2662V66.3562C43.9443 66.4149 43.9626 66.4626 43.9993 66.4992C44.0433 66.5359 44.091 66.5542 44.1423 66.5542ZM51.2815 70.6572V65.7512C51.2815 65.4799 51.3475 65.2342 51.4795 65.0142C51.6188 64.7942 51.7985 64.6182 52.0185 64.4862C52.2458 64.3469 52.4915 64.2772 52.7555 64.2772H56.3085V65.5862H52.7995C52.7408 65.5862 52.6895 65.6082 52.6455 65.6522C52.6088 65.6889 52.5905 65.7366 52.5905 65.7952V70.6572H51.2815ZM58.4486 70.6572C58.1772 70.6572 57.9316 70.5912 57.7116 70.4592C57.4916 70.3199 57.3119 70.1402 57.1726 69.9202C57.0406 69.7002 56.9746 69.4546 56.9746 69.1832V65.7512C56.9746 65.4799 57.0406 65.2342 57.1726 65.0142C57.3119 64.7942 57.4916 64.6182 57.7116 64.4862C57.9316 64.3469 58.1772 64.2772 58.4486 64.2772H61.9796C62.2582 64.2772 62.5076 64.3469 62.7276 64.4862C62.9476 64.6182 63.1236 64.7942 63.2556 65.0142C63.3876 65.2342 63.4536 65.4799 63.4536 65.7512V69.1832C63.4536 69.4546 63.3876 69.7002 63.2556 69.9202C63.1236 70.1402 62.9476 70.3199 62.7276 70.4592C62.5076 70.5912 62.2582 70.6572 61.9796 70.6572H58.4486ZM58.4926 69.3482H61.9356C61.9942 69.3482 62.0419 69.3299 62.0786 69.2932C62.1226 69.2492 62.1446 69.1979 62.1446 69.1392V65.7952C62.1446 65.7366 62.1226 65.6889 62.0786 65.6522C62.0419 65.6082 61.9942 65.5862 61.9356 65.5862H58.4926C58.4339 65.5862 58.3826 65.6082 58.3386 65.6522C58.3019 65.6889 58.2836 65.7366 58.2836 65.7952V69.1392C58.2836 69.1979 58.3019 69.2492 58.3386 69.2932C58.3826 69.3299 58.4339 69.3482 58.4926 69.3482ZM65.5698 73.1762V71.8562H69.4528C69.5041 71.8562 69.5481 71.8342 69.5848 71.7902C69.6288 71.7536 69.6508 71.7059 69.6508 71.6472V70.6572H65.9548C65.6908 70.6572 65.4451 70.5912 65.2178 70.4592C64.9978 70.3199 64.8181 70.1402 64.6788 69.9202C64.5468 69.7002 64.4808 69.4546 64.4808 69.1832V65.7512C64.4808 65.4799 64.5468 65.2342 64.6788 65.0142C64.8181 64.7942 64.9978 64.6182 65.2178 64.4862C65.4451 64.3469 65.6908 64.2772 65.9548 64.2772H69.4968C69.7681 64.2772 70.0138 64.3469 70.2338 64.4862C70.4611 64.6182 70.6371 64.7942 70.7618 65.0142C70.8938 65.2342 70.9598 65.4799 70.9598 65.7512V71.7022C70.9598 71.9736 70.8938 72.2192 70.7618 72.4392C70.6371 72.6666 70.4611 72.8462 70.2338 72.9782C70.0138 73.1102 69.7681 73.1762 69.4968 73.1762H65.5698ZM65.9988 69.3482H69.4528C69.5041 69.3482 69.5481 69.3299 69.5848 69.2932C69.6288 69.2492 69.6508 69.1979 69.6508 69.1392V65.7952C69.6508 65.7366 69.6288 65.6889 69.5848 65.6522C69.5481 65.6082 69.5041 65.5862 69.4528 65.5862H65.9988C65.9401 65.5862 65.8888 65.6082 65.8448 65.6522C65.8081 65.6889 65.7898 65.7366 65.7898 65.7952V69.1392C65.7898 69.1979 65.8081 69.2492 65.8448 69.2932C65.8888 69.3299 65.9401 69.3482 65.9988 69.3482ZM71.8957 70.6572V65.7512C71.8957 65.4799 71.9617 65.2342 72.0937 65.0142C72.2331 64.7942 72.4127 64.6182 72.6327 64.4862C72.8601 64.3469 73.1057 64.2772 73.3697 64.2772H76.9227V65.5862H73.4137C73.3551 65.5862 73.3037 65.6082 73.2597 65.6522C73.2231 65.6889 73.2047 65.7366 73.2047 65.7952V70.6572H71.8957ZM79.1165 70.6572C78.8452 70.6572 78.5995 70.5912 78.3795 70.4592C78.1595 70.3199 77.9799 70.1402 77.8405 69.9202C77.7085 69.7002 77.6425 69.4546 77.6425 69.1832V65.7512C77.6425 65.4799 77.7085 65.2342 77.8405 65.0142C77.9799 64.7942 78.1595 64.6182 78.3795 64.4862C78.5995 64.3469 78.8452 64.2772 79.1165 64.2772H82.6475C82.9262 64.2772 83.1755 64.3469 83.3955 64.4862C83.6155 64.6182 83.7915 64.7942 83.9235 65.0142C84.0555 65.2342 84.1215 65.4799 84.1215 65.7512V68.1272H78.9515V69.1392C78.9515 69.1979 78.9699 69.2492 79.0065 69.2932C79.0505 69.3299 79.1019 69.3482 79.1605 69.3482H84.1215V70.6572H79.1165ZM78.9515 66.9282H82.8125V65.7952C82.8125 65.7366 82.7905 65.6889 82.7465 65.6522C82.7099 65.6082 82.6622 65.5862 82.6035 65.5862H79.1605C79.1019 65.5862 79.0505 65.6082 79.0065 65.6522C78.9699 65.6889 78.9515 65.7366 78.9515 65.7952V66.9282ZM86.646 70.6572C86.3747 70.6572 86.129 70.5912 85.909 70.4592C85.689 70.3199 85.5094 70.1402 85.37 69.9202C85.238 69.7002 85.172 69.4546 85.172 69.1832V68.9742H86.481V69.1392C86.481 69.1979 86.4994 69.2492 86.536 69.2932C86.58 69.3299 86.6314 69.3482 86.69 69.3482H90.133C90.1917 69.3482 90.2394 69.3299 90.276 69.2932C90.32 69.2492 90.342 69.1979 90.342 69.1392V68.3252C90.342 68.2739 90.32 68.2299 90.276 68.1932C90.2394 68.1492 90.1917 68.1272 90.133 68.1272H86.646C86.3747 68.1272 86.129 68.0612 85.909 67.9292C85.689 67.7899 85.5094 67.6102 85.37 67.3902C85.238 67.1702 85.172 66.9246 85.172 66.6532V65.7512C85.172 65.4799 85.238 65.2342 85.37 65.0142C85.5094 64.7942 85.689 64.6182 85.909 64.4862C86.129 64.3469 86.3747 64.2772 86.646 64.2772H90.177C90.4557 64.2772 90.705 64.3469 90.925 64.4862C91.145 64.6182 91.321 64.7942 91.453 65.0142C91.5924 65.2342 91.662 65.4799 91.662 65.7512V65.9602H90.342V65.7952C90.342 65.7366 90.32 65.6889 90.276 65.6522C90.2394 65.6082 90.1917 65.5862 90.133 65.5862H86.69C86.6314 65.5862 86.58 65.6082 86.536 65.6522C86.4994 65.6889 86.481 65.7366 86.481 65.7952V66.6092C86.481 66.6606 86.4994 66.7082 86.536 66.7522C86.58 66.7889 86.6314 66.8072 86.69 66.8072H90.177C90.4557 66.8072 90.705 66.8769 90.925 67.0162C91.145 67.1482 91.321 67.3242 91.453 67.5442C91.5924 67.7642 91.662 68.0099 91.662 68.2812V69.1832C91.662 69.4546 91.5924 69.7002 91.453 69.9202C91.321 70.1402 91.145 70.3199 90.925 70.4592C90.705 70.5912 90.4557 70.6572 90.177 70.6572H86.646ZM94.1871 70.6572C93.9157 70.6572 93.6701 70.5912 93.4501 70.4592C93.2301 70.3199 93.0504 70.1402 92.9111 69.9202C92.7791 69.7002 92.7131 69.4546 92.7131 69.1832V68.9742H94.0221V69.1392C94.0221 69.1979 94.0404 69.2492 94.0771 69.2932C94.1211 69.3299 94.1724 69.3482 94.2311 69.3482H97.6741C97.7327 69.3482 97.7804 69.3299 97.8171 69.2932C97.8611 69.2492 97.8831 69.1979 97.8831 69.1392V68.3252C97.8831 68.2739 97.8611 68.2299 97.8171 68.1932C97.7804 68.1492 97.7327 68.1272 97.6741 68.1272H94.1871C93.9157 68.1272 93.6701 68.0612 93.4501 67.9292C93.2301 67.7899 93.0504 67.6102 92.9111 67.3902C92.7791 67.1702 92.7131 66.9246 92.7131 66.6532V65.7512C92.7131 65.4799 92.7791 65.2342 92.9111 65.0142C93.0504 64.7942 93.2301 64.6182 93.4501 64.4862C93.6701 64.3469 93.9157 64.2772 94.1871 64.2772H97.7181C97.9967 64.2772 98.2461 64.3469 98.4661 64.4862C98.6861 64.6182 98.8621 64.7942 98.9941 65.0142C99.1334 65.2342 99.2031 65.4799 99.2031 65.7512V65.9602H97.8831V65.7952C97.8831 65.7366 97.8611 65.6889 97.8171 65.6522C97.7804 65.6082 97.7327 65.5862 97.6741 65.5862H94.2311C94.1724 65.5862 94.1211 65.6082 94.0771 65.6522C94.0404 65.6889 94.0221 65.7366 94.0221 65.7952V66.6092C94.0221 66.6606 94.0404 66.7082 94.0771 66.7522C94.1211 66.7889 94.1724 66.8072 94.2311 66.8072H97.7181C97.9967 66.8072 98.2461 66.8769 98.4661 67.0162C98.6861 67.1482 98.8621 67.3242 98.9941 67.5442C99.1334 67.7642 99.2031 68.0099 99.2031 68.2812V69.1832C99.2031 69.4546 99.1334 69.7002 98.9941 69.9202C98.8621 70.1402 98.6861 70.3199 98.4661 70.4592C98.2461 70.5912 97.9967 70.6572 97.7181 70.6572H94.1871ZM103.64 70.6572V62.7372H110.911V64.0682H104.971V66.0372H109.756V67.3572H104.971V69.3262H110.911V70.6572H103.64ZM111.93 70.6572V70.3602L114.35 67.4122L111.93 64.5742V64.2772H113.404L115.208 66.4002L117.001 64.2772H118.475V64.5742L116.055 67.4122L118.486 70.3602V70.6572H117.012L115.208 68.4462L113.404 70.6572H111.93ZM119.635 73.1872V64.2772H124.651C124.915 64.2772 125.157 64.3469 125.377 64.4862C125.604 64.6182 125.784 64.7942 125.916 65.0142C126.048 65.2342 126.114 65.4799 126.114 65.7512V69.1832C126.114 69.4546 126.048 69.7002 125.916 69.9202C125.784 70.1402 125.604 70.3199 125.377 70.4592C125.157 70.5912 124.915 70.6572 124.651 70.6572H120.944V73.1872H119.635ZM121.153 69.3482H124.607C124.658 69.3482 124.702 69.3299 124.739 69.2932C124.783 69.2492 124.805 69.1979 124.805 69.1392V65.7952C124.805 65.7366 124.783 65.6889 124.739 65.6522C124.702 65.6082 124.658 65.5862 124.607 65.5862H121.153C121.101 65.5862 121.054 65.6082 121.01 65.6522C120.966 65.6889 120.944 65.7366 120.944 65.7952V69.1392C120.944 69.1979 120.966 69.2492 121.01 69.2932C121.054 69.3299 121.101 69.3482 121.153 69.3482ZM128.38 70.6572C128.109 70.6572 127.863 70.5912 127.643 70.4592C127.423 70.3199 127.244 70.1402 127.104 69.9202C126.972 69.7002 126.906 69.4546 126.906 69.1832V65.7512C126.906 65.4799 126.972 65.2342 127.104 65.0142C127.244 64.7942 127.423 64.6182 127.643 64.4862C127.863 64.3469 128.109 64.2772 128.38 64.2772H131.911C132.19 64.2772 132.439 64.3469 132.659 64.4862C132.879 64.6182 133.055 64.7942 133.187 65.0142C133.319 65.2342 133.385 65.4799 133.385 65.7512V68.1272H128.215V69.1392C128.215 69.1979 128.234 69.2492 128.27 69.2932C128.314 69.3299 128.366 69.3482 128.424 69.3482H133.385V70.6572H128.38ZM128.215 66.9282H132.076V65.7952C132.076 65.7366 132.054 65.6889 132.01 65.6522C131.974 65.6082 131.926 65.5862 131.867 65.5862H128.424C128.366 65.5862 128.314 65.6082 128.27 65.6522C128.234 65.6889 128.215 65.7366 128.215 65.7952V66.9282ZM134.469 70.6572V65.7512C134.469 65.4799 134.535 65.2342 134.667 65.0142C134.806 64.7942 134.986 64.6182 135.206 64.4862C135.433 64.3469 135.679 64.2772 135.943 64.2772H139.496V65.5862H135.987C135.928 65.5862 135.877 65.6082 135.833 65.6522C135.796 65.6889 135.778 65.7366 135.778 65.7952V70.6572H134.469ZM140.291 70.6572V64.2772H141.6V70.6572H140.291ZM140.291 63.5072V62.1872H141.6V63.5072H140.291ZM144.214 70.6572C143.943 70.6572 143.697 70.5912 143.477 70.4592C143.257 70.3199 143.078 70.1402 142.938 69.9202C142.806 69.7002 142.74 69.4546 142.74 69.1832V65.7512C142.74 65.4799 142.806 65.2342 142.938 65.0142C143.078 64.7942 143.257 64.6182 143.477 64.4862C143.697 64.3469 143.943 64.2772 144.214 64.2772H147.745C148.024 64.2772 148.273 64.3469 148.493 64.4862C148.713 64.6182 148.889 64.7942 149.021 65.0142C149.153 65.2342 149.219 65.4799 149.219 65.7512V68.1272H144.049V69.1392C144.049 69.1979 144.068 69.2492 144.104 69.2932C144.148 69.3299 144.2 69.3482 144.258 69.3482H149.219V70.6572H144.214ZM144.049 66.9282H147.91V65.7952C147.91 65.7366 147.888 65.6889 147.844 65.6522C147.808 65.6082 147.76 65.5862 147.701 65.5862H144.258C144.2 65.5862 144.148 65.6082 144.104 65.6522C144.068 65.6889 144.049 65.7366 144.049 65.7952V66.9282ZM150.389 70.6572V64.2772H155.405C155.669 64.2772 155.911 64.3469 156.131 64.4862C156.359 64.6182 156.538 64.7942 156.67 65.0142C156.802 65.2342 156.868 65.4799 156.868 65.7512V70.6572H155.559V65.7952C155.559 65.7366 155.537 65.6889 155.493 65.6522C155.457 65.6082 155.413 65.5862 155.361 65.5862H151.907C151.856 65.5862 151.808 65.6082 151.764 65.6522C151.72 65.6889 151.698 65.7366 151.698 65.7952V70.6572H150.389ZM159.243 70.6572C158.971 70.6572 158.726 70.5912 158.506 70.4592C158.286 70.3199 158.106 70.1402 157.967 69.9202C157.835 69.7002 157.769 69.4546 157.769 69.1832V65.7512C157.769 65.4799 157.835 65.2342 157.967 65.0142C158.106 64.7942 158.286 64.6182 158.506 64.4862C158.726 64.3469 158.971 64.2772 159.243 64.2772H164.237V65.5862H159.287C159.228 65.5862 159.177 65.6082 159.133 65.6522C159.096 65.6889 159.078 65.7366 159.078 65.7952V69.1392C159.078 69.1979 159.096 69.2492 159.133 69.2932C159.177 69.3299 159.228 69.3482 159.287 69.3482H164.248V70.6572H159.243ZM166.612 70.6572C166.34 70.6572 166.095 70.5912 165.875 70.4592C165.655 70.3199 165.475 70.1402 165.336 69.9202C165.204 69.7002 165.138 69.4546 165.138 69.1832V65.7512C165.138 65.4799 165.204 65.2342 165.336 65.0142C165.475 64.7942 165.655 64.6182 165.875 64.4862C166.095 64.3469 166.34 64.2772 166.612 64.2772H170.143C170.421 64.2772 170.671 64.3469 170.891 64.4862C171.111 64.6182 171.287 64.7942 171.419 65.0142C171.551 65.2342 171.617 65.4799 171.617 65.7512V68.1272H166.447V69.1392C166.447 69.1979 166.465 69.2492 166.502 69.2932C166.546 69.3299 166.597 69.3482 166.656 69.3482H171.617V70.6572H166.612ZM166.447 66.9282H170.308V65.7952C170.308 65.7366 170.286 65.6889 170.242 65.6522C170.205 65.6082 170.157 65.5862 170.099 65.5862H166.656C166.597 65.5862 166.546 65.6082 166.502 65.6522C166.465 65.6889 166.447 65.7366 166.447 65.7952V66.9282Z" fill="black"/>
<path d="M92.5182 35.3752C93.0455 35.7902 93.9002 35.7902 94.4276 35.3752L95.3818 34.6241C95.9092 34.2091 95.9092 33.5364 95.3818 33.1214L92.368 30.75L95.381 28.378C95.9083 27.9629 95.9083 27.2902 95.381 26.8752L94.4267 26.1241C93.8994 25.7091 93.0447 25.7091 92.5173 26.1241L87.5949 29.9983C87.0675 30.4133 87.0675 31.086 87.5949 31.5011L92.5182 35.3752ZM100.619 34.6248L101.573 35.3759C102.101 35.7909 102.955 35.7909 103.483 35.3759L108.405 31.5017C108.932 31.0867 108.932 30.414 108.405 29.9989L103.483 26.1248C102.955 25.7098 102.101 25.7098 101.573 26.1248L100.619 26.8759C100.092 27.2909 100.092 27.9636 100.619 28.3786L103.632 30.75L100.619 33.122C100.092 33.5371 100.092 34.2098 100.619 34.6248ZM123.65 45.625H103.192C103.13 46.9405 101.951 47.75 100.43 47.75H95.3C93.723 47.75 92.5139 46.5899 92.535 45.625H72.35C71.6075 45.625 71 46.1031 71 46.6875V47.75C71 50.0875 73.43 52 76.4 52H119.6C122.57 52 125 50.0875 125 47.75V46.6875C125 46.1031 124.393 45.625 123.65 45.625ZM119.6 21.1875C119.6 19.4344 117.778 18 115.55 18H80.45C78.2225 18 76.4 19.4344 76.4 21.1875V43.5H119.6V21.1875ZM114.2 39.25H81.8V22.25H114.2V39.25Z" fill="black"/>
<defs>
<filter id="filter0_d_655_2275" x="0.770996" y="1.96289" width="207.886" height="95.4404" filterUnits="userSpaceOnUse" color-interpolation-filters="sRGB">
<feFlood flood-opacity="0" result="BackgroundImageFix"/>
<feColorMatrix in="SourceAlpha" type="matrix" values="0 0 0 0 0 0 0 0 0 0 0 0 0 0 0 0 0 0 127 0" result="hardAlpha"/>
<feOffset dy="4"/>
<feGaussianBlur stdDeviation="2"/>
<feComposite in2="hardAlpha" operator="out"/>
<feColorMatrix type="matrix" values="0 0 0 0 0 0 0 0 0 0 0 0 0 0 0 0 0 0 0.25 0"/>
<feBlend mode="normal" in2="BackgroundImageFix" result="effect1_dropShadow_655_2275"/>
<feBlend mode="normal" in="SourceGraphic" in2="effect1_dropShadow_655_2275" result="shape"/>
</filter>
</defs>
</svg>
