<svg width="104" height="104" viewBox="0 0 104 104" fill="none" xmlns="http://www.w3.org/2000/svg">
<path d="M88.0704 0H15.5418C6.95831 0 0 6.95831 0 15.5418V88.0704C0 96.6539 6.95831 103.612 15.5418 103.612H88.0704C96.6539 103.612 103.612 96.6539 103.612 88.0704V15.5418C103.612 6.95831 96.6539 0 88.0704 0Z" fill="#1877F2"/>
<path d="M71.9619 66.7813L74.2689 51.8061H59.9008V42.0925C59.9008 38.0046 61.9042 33.9978 68.3395 33.9978H74.876V21.2486C74.876 21.2486 68.9466 20.2368 63.2803 20.2368C51.4418 20.2368 43.7114 27.4006 43.7114 40.3926V51.8061H30.5575V66.7813H43.7114V103.612H59.9008V66.7813H71.9619Z" fill="white"/>
</svg>
