<svg width="104" height="104" viewBox="0 0 104 104" fill="none" xmlns="http://www.w3.org/2000/svg">
<path d="M102.605 41.6599H98.4316V41.4449H51.8061V62.1673H81.0843C76.8129 74.2304 65.3353 82.8898 51.8061 82.8898C34.6402 82.8898 20.7224 68.9721 20.7224 51.8061C20.7224 34.6402 34.6402 20.7224 51.8061 20.7224C59.7298 20.7224 66.9387 23.7117 72.4275 28.5944L87.0809 13.941C77.8283 5.3179 65.4518 0 51.8061 0C23.1962 0 0 23.1962 0 51.8061C0 80.416 23.1962 103.612 51.8061 103.612C80.416 103.612 103.612 80.416 103.612 51.8061C103.612 48.3325 103.255 44.9418 102.605 41.6599Z" fill="#FFC107"/>
<path d="M5.97324 27.693L22.9941 40.1756C27.5997 28.7731 38.7535 20.7224 51.8061 20.7224C59.7298 20.7224 66.9387 23.7117 72.4275 28.5944L87.0809 13.941C77.8283 5.3179 65.4518 0 51.8061 0C31.9074 0 14.6508 11.2342 5.97324 27.693Z" fill="#FF3D00"/>
<path d="M51.8061 103.612C65.1876 103.612 77.3465 98.4912 86.5395 90.1634L70.5055 76.5954C65.3042 80.5352 58.8388 82.8898 51.8061 82.8898C38.3314 82.8898 26.89 74.2978 22.5797 62.3073L5.68575 75.3235C14.2597 92.1009 31.6717 103.612 51.8061 103.612Z" fill="#4CAF50"/>
<path d="M102.605 41.6599H98.4316V41.4449H51.8061V62.1673H81.0843C79.0328 67.9618 75.3054 72.9585 70.4977 76.5979C70.5003 76.5953 70.5029 76.5953 70.5055 76.5927L86.5395 90.1608C85.405 91.1917 103.612 77.7092 103.612 51.8061C103.612 48.3325 103.255 44.9418 102.605 41.6599Z" fill="#1976D2"/>
</svg>
