<svg width="104" height="104" viewBox="0 0 104 104" fill="none" xmlns="http://www.w3.org/2000/svg">
<path d="M88.0704 0H15.5418C6.95831 0 0 6.95831 0 15.5418V88.0704C0 96.6539 6.95831 103.612 15.5418 103.612H88.0704C96.6539 103.612 103.612 96.6539 103.612 88.0704V15.5418C103.612 6.95831 96.6539 0 88.0704 0Z" fill="black"/>
<path d="M88.0704 0H15.5418C6.95831 0 0 6.95831 0 15.5418V88.0704C0 96.6539 6.95831 103.612 15.5418 103.612H88.0704C96.6539 103.612 103.612 96.6539 103.612 88.0704V15.5418C103.612 6.95831 96.6539 0 88.0704 0Z" fill="url(#paint0_radial_3_364)"/>
<path d="M88.0704 0H15.5418C6.95831 0 0 6.95831 0 15.5418V88.0704C0 96.6539 6.95831 103.612 15.5418 103.612H88.0704C96.6539 103.612 103.612 96.6539 103.612 88.0704V15.5418C103.612 6.95831 96.6539 0 88.0704 0Z" fill="url(#paint1_linear_3_364)"/>
<path d="M66.5789 20.6415H37.0333C27.9803 20.6415 20.6415 27.9803 20.6415 37.0333V66.5789C20.6415 75.6319 27.9803 82.9707 37.0333 82.9707H66.5789C75.6319 82.9707 82.9707 75.6319 82.9707 66.5789V37.0333C82.9707 27.9803 75.6319 20.6415 66.5789 20.6415Z" stroke="white" stroke-width="6.07103"/>
<path d="M51.8061 66.3766C59.8531 66.3766 66.3766 59.8531 66.3766 51.8061C66.3766 43.759 59.8531 37.2356 51.8061 37.2356C43.7591 37.2356 37.2356 43.759 37.2356 51.8061C37.2356 59.8531 43.7591 66.3766 51.8061 66.3766Z" stroke="white" stroke-width="6.07103"/>
<path d="M70.2216 34.6049C70.8921 34.6049 71.4358 34.0612 71.4358 33.3907C71.4358 32.7201 70.8921 32.1765 70.2216 32.1765C69.551 32.1765 69.0073 32.7201 69.0073 33.3907C69.0073 34.0612 69.551 34.6049 70.2216 34.6049Z" stroke="white" stroke-width="6.07103"/>
<defs>
<radialGradient id="paint0_radial_3_364" cx="0" cy="0" r="1" gradientUnits="userSpaceOnUse" gradientTransform="translate(41.4449 103.612) scale(103.612)">
<stop offset="0.1" stop-color="#FFDD55"/>
<stop offset="0.5" stop-color="#FF543E"/>
<stop offset="1" stop-color="#C837AB"/>
</radialGradient>
<linearGradient id="paint1_linear_3_364" x1="0" y1="0" x2="20.7224" y2="103.612" gradientUnits="userSpaceOnUse">
<stop offset="0.1" stop-color="#3771C8"/>
<stop offset="0.5" stop-color="#6600FF" stop-opacity="0"/>
</linearGradient>
</defs>
</svg>
