<svg width="344" height="350" viewBox="0 0 344 350" fill="none" xmlns="http://www.w3.org/2000/svg">
<path d="M90.0336 80.5102C18.603 144.33 44.5493 268.61 141.348 295.479C186.155 308.015 235.953 293.949 267.311 255.307C284.112 234.597 293.309 209.286 294.724 184.067C301.154 74.2707 172.644 6.61639 90.0336 80.5102Z" fill="url(#paint0_radial_72_2)"/>
<path d="M248.431 118.539C251.723 123.138 254.566 127.935 256.958 132.852C258.237 135.499 259.408 138.174 260.453 140.888C266.151 155.798 268.032 171.611 266.333 186.938C265.724 192.501 264.631 197.997 263.062 203.366C261.632 208.318 259.796 213.172 257.583 217.855C254.581 224.196 250.865 230.219 246.462 235.822C241.321 242.363 235.224 248.286 228.228 253.418C225.015 255.775 221.705 257.887 218.326 259.759C190.042 275.499 156.205 274.955 128.481 260.091C117.673 254.308 107.802 246.361 99.5419 236.362C98.0707 234.594 96.6543 232.759 95.3053 230.874C86.8025 218.997 81.3015 205.866 78.648 192.413C76.274 180.39 76.1997 168.104 78.2893 156.261C80.2165 145.302 84.0077 134.689 89.5953 124.973C95.9553 113.9 104.644 103.966 115.508 95.9956C148.522 71.7767 192.029 72.6088 224.336 94.8427C232.382 100.385 239.722 107.235 246.061 115.373C246.867 116.391 247.651 117.45 248.431 118.539Z" fill="url(#paint1_radial_72_2)"/>
<path d="M128.465 260.103C127.176 259.414 125.879 258.678 124.616 257.916C115.355 252.396 106.894 245.235 99.6413 236.501C99.6042 236.449 99.5794 236.414 99.5254 236.375C100.924 235.032 103.563 234.204 108.316 237.547C114.488 241.905 133.966 249.264 128.465 260.103Z" fill="#BCBCBC"/>
<path d="M179.026 202.602C179.383 203.315 179.598 204.081 179.674 204.869C180.453 211.153 173.545 219.596 162.876 224.865C153.583 229.441 144.136 230.254 138.898 227.452C137.36 226.629 136.196 225.505 135.487 224.048C132.386 217.674 140.674 209.51 152.711 203.607C164.722 197.669 175.925 196.228 179.026 202.602Z" fill="#BCBCBC"/>
<path d="M129.505 181.763L129.501 181.792C129.733 186.632 120.971 188.472 109.584 188.941C100.291 189.324 92.8102 188.405 90.2178 185.428C89.6307 184.752 89.287 183.949 89.2282 183.043C88.9709 178.169 97.2189 171.775 108.634 171.311C120.05 170.847 129.248 176.888 129.505 181.763Z" fill="#BCBCBC"/>
<path d="M249.039 168.01C246.645 177.888 240.189 184.707 234.635 183.218C234.347 183.139 234.076 183.047 233.81 182.926C228.846 180.793 226.673 172.024 228.957 162.675C231.269 153.148 237.343 146.477 242.753 147.334C242.957 147.368 243.161 147.403 243.349 147.45C248.904 148.939 251.461 158.137 249.039 168.01Z" fill="#BCBCBC"/>
<path d="M173.018 157.198C170.396 166.9 166.04 174.394 158.999 172.334C158.324 172.144 157.692 171.87 157.068 171.536C151.306 168.432 148.606 159.787 150.986 151C153.608 141.298 160.447 132.615 171.717 135.924C171.787 135.951 171.875 135.966 171.929 136.005C178.714 138.174 175.627 147.585 173.018 157.198Z" fill="#BCBCBC"/>
<path d="M198.952 246.813C198.688 248.378 197.247 250.199 194.323 252.134C183.629 259.267 163.095 254.554 163.257 248.08C163.258 247.974 163.272 247.885 163.285 247.796C163.837 241.616 176.887 242.432 182.667 241.62C192.194 240.274 199.662 242.68 198.952 246.813Z" fill="#BCBCBC"/>
<path d="M232.74 207.444C234.514 209.886 233.125 214.861 228.173 218.836C219.119 226.111 212.464 228.172 208.752 225.674C208.357 225.41 208.001 225.091 207.653 224.713C204.217 220.88 213.284 215.309 217.618 211.76C225.743 205.087 230.916 204.932 232.74 207.444Z" fill="#BCBCBC"/>
<path d="M221.533 131.416C221.634 133.742 220.417 136.27 217.843 138.157C209.737 144.104 194.616 146.021 191.993 139.454C191.687 138.704 191.526 137.978 191.474 137.331C191.084 132.343 197.548 130.158 203.402 127.551C215.111 122.337 221.34 126.416 221.533 131.416Z" fill="#BCBCBC"/>
<path d="M165.943 109.835C165.668 109.667 165.42 109.428 165.176 109.159C163.278 106.938 163.074 101.815 166.605 97.325C168.9 94.4027 172.859 91.6564 176.353 91.4136C177.895 91.3106 179.32 91.689 180.522 92.7586C183.472 95.4463 170.008 112.469 165.943 109.835Z" fill="#BCBCBC"/>
<path d="M114.456 136.374C114.131 137.139 113.384 137.529 112.129 137.316C103.517 135.856 97.1139 127.843 98.8146 124.486C99.478 123.155 100.279 122.304 101.132 121.81C106.959 118.485 116.061 132.454 114.456 136.374Z" fill="#BCBCBC"/>
<path d="M220.256 103.189C220.027 103.621 219.631 103.964 219.09 104.176C216.848 105.056 212.264 103.884 208.318 99.949C206.016 97.6295 205.488 94.1676 206.583 92.1509C207.79 89.8947 211.018 89.4246 215.97 94.3353C218.802 97.1094 221.404 100.923 220.256 103.189Z" fill="#BCBCBC"/>
<path d="M266.333 186.938C265.148 197.644 262.202 208.111 257.571 217.837C256.403 218.034 255.172 217.962 254.213 217.268C253.362 216.653 252.737 215.529 252.621 213.61C252.115 206.203 249.645 196.017 256.509 190.27C258.512 188.589 260.363 187.627 262.038 187.136C263.662 186.683 265.099 186.683 266.333 186.938Z" fill="#BCBCBC"/>
<path d="M246.433 235.817C241.292 242.358 235.195 248.281 228.199 253.413C224.986 255.77 221.676 257.882 218.297 259.754C217.629 258.821 217.079 257.694 217.028 256.44C216.984 255.233 217.405 253.922 218.695 252.606C223.425 247.712 223.484 242.026 231.47 236.879C235.613 234.21 239.811 234.162 242.867 234.741C244.394 235.046 245.601 235.478 246.433 235.817Z" fill="#BCBCBC"/>
<path d="M133.968 99.567C134.992 101.822 132.254 104.912 130.158 105.316C129.71 105.407 129.297 105.367 128.964 105.189C126.732 104.006 130.193 96.1925 133.158 98.579C133.531 98.8853 133.796 99.2188 133.968 99.567Z" fill="#BCBCBC"/>
<path d="M184.985 220.854C182.224 221.297 180.061 221.644 183.498 225.477C186.935 229.311 190.748 227.937 193.456 225.951C196.147 223.977 187.453 220.467 184.985 220.854Z" fill="#9B9B9B"/>
<path d="M145.619 245.514C143.486 246.367 145.812 249.618 146.781 253.838C147.75 258.058 151.208 259.055 153.899 257.08C156.607 255.094 149.874 243.79 145.619 245.514Z" fill="#9B9B9B"/>
<path d="M107.673 209.776C105.359 210.235 102.75 210.567 103.62 212.75C104.49 214.933 112.194 217.06 114.448 215.406C116.702 213.753 114.276 208.466 107.673 209.776Z" fill="#9B9B9B"/>
<path d="M248.43 118.539C251.722 123.138 254.566 127.935 256.957 132.852C256.115 133.073 255.109 133.1 253.882 132.892C246.058 131.565 244.769 122.491 244.266 119.459C243.694 116.081 245.066 115.417 246.048 115.356C246.866 116.391 247.65 117.45 248.43 118.539Z" fill="#9B9B9B"/>
<path d="M205.686 157.65C202.844 159.233 202.957 162.473 208.334 161.349C213.724 160.243 209.619 155.476 205.686 157.65Z" fill="#9B9B9B"/>
<path d="M93.9352 207.857C93.17 209.367 94.9031 212.074 97.7253 209.319C100.535 206.546 95.6356 204.501 93.9352 207.857Z" fill="#9B9B9B"/>
<path d="M134.698 128.537C133.687 129.99 132.878 132.692 136.356 130.852C139.821 128.995 135.709 127.084 134.698 128.537Z" fill="#9B9B9B"/>
<path d="M142.351 122.923C139.997 123.147 143.2 127.943 145.87 128.806C148.54 129.669 150.064 122.196 142.351 122.923Z" fill="#9B9B9B"/>
<path d="M235.318 222.084C234.504 223.024 235.297 224.92 238.654 223.879C242.017 222.809 238.702 218.179 235.318 222.084Z" fill="#9B9B9B"/>
<path d="M201.764 258.698C200.753 260.151 200.047 262.065 203.421 261.013C206.784 259.943 202.775 257.245 201.764 258.698Z" fill="#9B9B9B"/>
<path d="M155.292 188.976C153.091 190.775 160.314 190.223 161.993 189.703C163.673 189.183 164.409 181.576 155.292 188.976Z" fill="#9B9B9B"/>
<path d="M220.541 122.756C220.057 124.482 225.756 128.107 227.221 126.32C228.687 124.533 222.267 116.532 220.541 122.756Z" fill="#9B9B9B"/>
<path d="M207.547 181.784C207.915 182.727 208.22 183.69 208.462 184.567C209.737 189.142 202.999 196.248 199.759 196.093C199.684 196.096 199.596 196.081 199.509 196.066C196.385 195.536 194.805 189.602 194.117 186.6C193.148 182.379 198.251 175.103 201.16 174.366C203.533 173.812 206.008 177.771 207.547 181.784Z" fill="#BCBCBC"/>
<path d="M90.2305 185.446C89.6434 184.769 89.2997 183.967 89.2409 183.06C88.9836 178.186 97.2316 171.793 108.647 171.329C120.063 170.865 129.261 176.906 129.518 181.78L129.514 181.81C128.183 179.701 125.329 177.47 119.619 175.62C104.754 170.836 88.5444 177.322 90.2305 185.446Z" fill="#9B9B9B"/>
<path d="M179.026 202.602C179.383 203.316 179.597 204.081 179.674 204.869C178.919 204.209 172.786 199.189 163.333 202.143C153.531 205.22 141.216 210.589 138.56 220.316C137.706 223.422 138.048 225.728 138.885 227.435C137.347 226.612 136.183 225.488 135.474 224.031C132.373 217.657 140.662 209.493 152.698 203.59C164.722 197.669 175.925 196.228 179.026 202.602Z" fill="#9B9B9B"/>
<path d="M156.679 144.872C150.433 153.99 152.941 165.018 157.068 171.536C151.306 168.432 148.606 159.787 150.986 151C153.608 141.298 160.447 132.615 171.717 135.924C171.787 135.951 171.875 135.966 171.929 136.005C167.97 135.85 161.943 137.213 156.679 144.872Z" fill="#9B9B9B"/>
<path d="M207.547 181.783C205.062 178.491 201.544 175.297 198.897 178.873C196.192 182.546 196.889 191.976 199.776 196.081C199.701 196.083 199.613 196.068 199.525 196.053C196.402 195.523 194.821 189.59 194.134 186.587C193.165 182.367 198.267 175.09 201.177 174.353C203.533 173.811 206.008 177.77 207.547 181.783Z" fill="#9B9B9B"/>
<path d="M221.534 131.416C218.191 124.56 207.261 129.572 201.227 131.283C195.256 132.974 192.472 135.965 191.457 137.343C191.067 132.355 197.532 130.17 203.386 127.563C215.111 122.337 221.341 126.416 221.534 131.416Z" fill="#9B9B9B"/>
<path d="M165.943 109.835C165.669 109.667 165.42 109.428 165.176 109.158C169.404 109.01 175.56 102.094 178.243 97.2782C180.153 93.8199 178.272 92.1944 176.365 91.4306C177.908 91.3276 179.333 91.706 180.534 92.7757C183.472 95.4461 170.008 112.469 165.943 109.835Z" fill="#9B9B9B"/>
<path d="M114.456 136.374C114.131 137.139 113.384 137.529 112.129 137.316C103.517 135.856 97.1139 127.843 98.8146 124.486C99.478 123.155 100.279 122.304 101.132 121.81C100.187 122.82 99.2106 125.039 102.132 129.119C105.498 133.822 110.461 136.061 114.456 136.374Z" fill="#9B9B9B"/>
<path d="M133.968 99.567C133.247 98.8827 132.097 98.5662 130.467 100.553C129.133 102.165 129.427 103.901 130.158 105.316C129.71 105.407 129.297 105.367 128.964 105.189C126.732 104.006 130.193 96.1925 133.158 98.579C133.531 98.8853 133.796 99.2188 133.968 99.567Z" fill="#9B9B9B"/>
<path d="M198.952 246.812C196.783 244.606 192.83 243.815 187.449 244.466C180.495 245.322 174.916 245.196 170.112 245.187C167.598 245.186 165.092 246.523 163.285 247.796C163.837 241.616 176.887 242.432 182.667 241.62C192.194 240.274 199.661 242.679 198.952 246.812Z" fill="#9B9B9B"/>
<path d="M232.739 207.444C230.692 206.124 227.961 206.968 224.328 209.632L211.715 218.886C206.888 222.427 208.64 225.519 208.739 225.657C208.345 225.393 207.988 225.074 207.641 224.696C204.204 220.863 213.272 215.292 217.605 211.743C225.743 205.088 230.915 204.932 232.739 207.444Z" fill="#9B9B9B"/>
<path d="M242.879 234.759C244.381 235.029 245.601 235.478 246.433 235.817C241.291 242.358 235.194 248.281 228.198 253.413C224.986 255.77 221.676 257.882 218.297 259.754C217.628 258.821 217.079 257.695 217.027 256.44C234.594 249.09 240.808 239.39 242.879 234.759Z" fill="#9B9B9B"/>
<path d="M266.334 186.939C265.148 197.644 262.202 208.112 257.571 217.838C256.404 218.035 255.172 217.962 254.213 217.268C263.311 203.211 262.468 190.46 262.05 187.154C263.663 186.683 265.1 186.684 266.334 186.939Z" fill="#9B9B9B"/>
<path d="M242.753 147.334C241.484 147.711 232.83 150.922 231.538 166.926C230.894 175.019 232.203 179.965 233.81 182.926C228.846 180.793 226.673 172.025 228.957 162.675C231.281 153.166 237.343 146.477 242.753 147.334Z" fill="#9B9B9B"/>
<path d="M219.078 104.159C216.836 105.039 212.252 103.867 208.306 99.9317C206.004 97.6122 205.476 94.1503 206.571 92.1336C206.553 93.6496 206.958 95.6473 208.661 97.5616C211.449 100.632 215.078 103.085 219.078 104.159Z" fill="#9B9B9B"/>
<path d="M128.465 260.103C127.176 259.414 125.879 258.678 124.616 257.916C125.333 254.332 124.829 249.112 117.992 245.294C109.525 240.562 103.492 235.574 99.6413 236.501C99.6042 236.449 99.5794 236.414 99.5254 236.375C100.924 235.032 103.563 234.204 108.316 237.547C114.488 241.905 133.966 249.264 128.465 260.103Z" fill="#9B9B9B"/>
<path opacity="0.45" d="M263.062 203.366C261.631 208.318 259.796 213.172 257.582 217.855C254.581 224.196 250.864 230.219 246.462 235.822C241.32 242.363 235.224 248.286 228.227 253.418C225.015 255.775 221.705 257.887 218.326 259.759C190.041 275.499 156.205 274.955 128.481 260.091C117.673 254.308 107.802 246.361 99.5417 236.362C98.0705 234.594 96.6542 232.759 95.3051 230.874C86.8023 218.996 81.3014 205.866 78.6478 192.413C76.2738 180.39 76.1995 168.104 78.2892 156.261C131.896 276.65 220.836 233.526 263.062 203.366Z" fill="url(#paint2_linear_72_2)"/>
<path d="M248.431 118.539C251.723 123.138 254.566 127.935 256.958 132.852C258.237 135.499 259.408 138.174 260.453 140.888C212.472 79.5241 144.996 74.1255 89.5954 124.973C95.9553 113.9 104.644 103.966 115.508 95.9955C148.522 71.7766 192.029 72.6088 224.336 94.8427C232.382 100.384 239.722 107.235 246.061 115.373C246.867 116.391 247.651 117.45 248.431 118.539Z" fill="url(#paint3_linear_72_2)"/>
<path d="M214.68 93.9302C188.12 84.5915 128.674 65.1486 109.565 101.47C90.455 137.792 113.444 113.406 127.093 130.25C140.741 147.093 145.18 149.962 148.356 163.882C154.577 191.143 172.704 217.214 189.217 222.768C205.731 228.322 288.039 232.317 303.241 217.441C318.443 202.564 293.274 175.077 271.913 166.397C250.553 157.718 222.899 211.088 231.936 167.878C235.071 152.891 269.756 154.136 275.237 150.167C280.719 146.199 290.111 118.656 256.962 107.368C221.47 95.2807 241.24 103.269 214.68 93.9302Z" fill="#E5E5E5" fill-opacity="0.06"/>
<defs>
<radialGradient id="paint0_radial_72_2" cx="0" cy="0" r="1" gradientUnits="userSpaceOnUse" gradientTransform="translate(171.998 174.889) rotate(-36.2642) scale(113.743 115.942)">
<stop stop-color="#F8F8F8"/>
<stop offset="1" stop-color="white" stop-opacity="0"/>
</radialGradient>
<radialGradient id="paint1_radial_72_2" cx="0" cy="0" r="1" gradientUnits="userSpaceOnUse" gradientTransform="translate(138.653 135.513) rotate(-36.2642) scale(145.006 147.809)">
<stop stop-color="#E8E8E8"/>
<stop offset="1" stop-color="#DFDFDF"/>
</radialGradient>
<linearGradient id="paint2_linear_72_2" x1="238.57" y1="299.413" x2="95.9013" y2="106.566" gradientUnits="userSpaceOnUse">
<stop/>
<stop offset="1" stop-opacity="0.2"/>
</linearGradient>
<linearGradient id="paint3_linear_72_2" x1="183.594" y1="45.9942" x2="173.434" y2="133.046" gradientUnits="userSpaceOnUse">
<stop stop-color="#B7B7B7"/>
<stop offset="0.557292" stop-color="#AEAEAE" stop-opacity="0.2"/>
</linearGradient>
</defs>
</svg>
