<svg width="120" height="31" viewBox="0 0 120 31" fill="none" xmlns="http://www.w3.org/2000/svg">
<rect x="0.5" y="0.5" width="119" height="29.3297" rx="14.6648" fill="#EE3939" stroke="black"/>
<mask id="path-2-outside-1_558_574" maskUnits="userSpaceOnUse" x="42" y="9" width="41" height="13" fill="black">
<rect fill="white" x="42" y="9" width="41" height="13"/>
<path d="M51.955 13.86C51.955 14.47 51.815 15.03 51.535 15.54C51.255 16.04 50.825 16.445 50.245 16.755C49.665 17.065 48.945 17.22 48.085 17.22H46.495V21H43.93V10.47H48.085C48.925 10.47 49.635 10.615 50.215 10.905C50.795 11.195 51.23 11.595 51.52 12.105C51.81 12.615 51.955 13.2 51.955 13.86ZM47.89 15.18C48.38 15.18 48.745 15.065 48.985 14.835C49.225 14.605 49.345 14.28 49.345 13.86C49.345 13.44 49.225 13.115 48.985 12.885C48.745 12.655 48.38 12.54 47.89 12.54H46.495V15.18H47.89ZM55.8554 19.02H59.2154V21H53.2904V10.47H55.8554V19.02ZM66.9938 19.14H63.0638L62.4338 21H59.7488L63.5588 10.47H66.5288L70.3388 21H67.6238L66.9938 19.14ZM66.3338 17.16L65.0288 13.305L63.7388 17.16H66.3338ZM80.5284 10.47L76.8834 17.52V21H74.3184V17.52L70.6734 10.47H73.5834L75.6234 14.88L77.6484 10.47H80.5284Z"/>
</mask>
<path d="M51.955 13.86C51.955 14.47 51.815 15.03 51.535 15.54C51.255 16.04 50.825 16.445 50.245 16.755C49.665 17.065 48.945 17.22 48.085 17.22H46.495V21H43.93V10.47H48.085C48.925 10.47 49.635 10.615 50.215 10.905C50.795 11.195 51.23 11.595 51.52 12.105C51.81 12.615 51.955 13.2 51.955 13.86ZM47.89 15.18C48.38 15.18 48.745 15.065 48.985 14.835C49.225 14.605 49.345 14.28 49.345 13.86C49.345 13.44 49.225 13.115 48.985 12.885C48.745 12.655 48.38 12.54 47.89 12.54H46.495V15.18H47.89ZM55.8554 19.02H59.2154V21H53.2904V10.47H55.8554V19.02ZM66.9938 19.14H63.0638L62.4338 21H59.7488L63.5588 10.47H66.5288L70.3388 21H67.6238L66.9938 19.14ZM66.3338 17.16L65.0288 13.305L63.7388 17.16H66.3338ZM80.5284 10.47L76.8834 17.52V21H74.3184V17.52L70.6734 10.47H73.5834L75.6234 14.88L77.6484 10.47H80.5284Z" fill="white"/>
<path d="M51.535 15.54L52.4075 16.0286L52.4116 16.0213L51.535 15.54ZM50.245 16.755L49.7736 15.8731H49.7736L50.245 16.755ZM46.495 17.22V16.22H45.495V17.22H46.495ZM46.495 21V22H47.495V21H46.495ZM43.93 21H42.93V22H43.93V21ZM43.93 10.47V9.47H42.93V10.47H43.93ZM50.215 10.905L50.6622 10.0106L50.215 10.905ZM48.985 12.885L48.2931 13.607L48.985 12.885ZM46.495 12.54V11.54H45.495V12.54H46.495ZM46.495 15.18H45.495V16.18H46.495V15.18ZM50.955 13.86C50.955 14.3102 50.8535 14.7035 50.6584 15.0587L52.4116 16.0213C52.7765 15.3565 52.955 14.6298 52.955 13.86H50.955ZM50.6625 15.0514C50.4891 15.3611 50.2106 15.6395 49.7736 15.8731L50.7164 17.6369C51.4394 17.2505 52.0209 16.7189 52.4075 16.0286L50.6625 15.0514ZM49.7736 15.8731C49.3764 16.0854 48.8295 16.22 48.085 16.22V18.22C49.0605 18.22 49.9536 18.0446 50.7164 17.6369L49.7736 15.8731ZM48.085 16.22H46.495V18.22H48.085V16.22ZM45.495 17.22V21H47.495V17.22H45.495ZM46.495 20H43.93V22H46.495V20ZM44.93 21V10.47H42.93V21H44.93ZM43.93 11.47H48.085V9.47H43.93V11.47ZM48.085 11.47C48.814 11.47 49.3615 11.5963 49.7678 11.7994L50.6622 10.0106C49.9085 9.63374 49.036 9.47 48.085 9.47V11.47ZM49.7678 11.7994C50.19 12.0105 50.4689 12.2795 50.6507 12.5993L52.3893 11.6107C51.9911 10.9105 51.4 10.3795 50.6622 10.0106L49.7678 11.7994ZM50.6507 12.5993C50.8448 12.9406 50.955 13.3512 50.955 13.86H52.955C52.955 13.0488 52.7752 12.2894 52.3893 11.6107L50.6507 12.5993ZM47.89 16.18C48.517 16.18 49.1787 16.0344 49.6769 15.557L48.2931 14.113C48.3113 14.0956 48.243 14.18 47.89 14.18V16.18ZM49.6769 15.557C50.1626 15.0915 50.345 14.4765 50.345 13.86H48.345C48.345 13.9761 48.3283 14.0415 48.3169 14.0724C48.3071 14.0988 48.299 14.1074 48.2931 14.113L49.6769 15.557ZM50.345 13.86C50.345 13.2435 50.1626 12.6285 49.6769 12.163L48.2931 13.607C48.299 13.6126 48.3071 13.6212 48.3169 13.6476C48.3283 13.6785 48.345 13.7439 48.345 13.86H50.345ZM49.6769 12.163C49.1787 11.6856 48.517 11.54 47.89 11.54V13.54C48.243 13.54 48.3113 13.6244 48.2931 13.607L49.6769 12.163ZM47.89 11.54H46.495V13.54H47.89V11.54ZM45.495 12.54V15.18H47.495V12.54H45.495ZM46.495 16.18H47.89V14.18H46.495V16.18ZM55.8554 19.02H54.8554V20.02H55.8554V19.02ZM59.2154 19.02H60.2154V18.02H59.2154V19.02ZM59.2154 21V22H60.2154V21H59.2154ZM53.2904 21H52.2904V22H53.2904V21ZM53.2904 10.47V9.47H52.2904V10.47H53.2904ZM55.8554 10.47H56.8554V9.47H55.8554V10.47ZM55.8554 20.02H59.2154V18.02H55.8554V20.02ZM58.2154 19.02V21H60.2154V19.02H58.2154ZM59.2154 20H53.2904V22H59.2154V20ZM54.2904 21V10.47H52.2904V21H54.2904ZM53.2904 11.47H55.8554V9.47H53.2904V11.47ZM54.8554 10.47V19.02H56.8554V10.47H54.8554ZM66.9938 19.14L67.9409 18.8192L67.7109 18.14H66.9938V19.14ZM63.0638 19.14V18.14H62.3467L62.1166 18.8192L63.0638 19.14ZM62.4338 21V22H63.1509L63.3809 21.3208L62.4338 21ZM59.7488 21L58.8084 20.6598L58.3235 22H59.7488V21ZM63.5588 10.47V9.47H62.8572L62.6185 10.1298L63.5588 10.47ZM66.5288 10.47L67.4691 10.1298L67.2304 9.47H66.5288V10.47ZM70.3388 21V22H71.7641L71.2791 20.6598L70.3388 21ZM67.6238 21L66.6766 21.3208L66.9067 22H67.6238V21ZM66.3338 17.16V18.16H67.7281L67.281 16.8394L66.3338 17.16ZM65.0288 13.305L65.976 12.9844L65.0233 10.1701L64.0805 12.9877L65.0288 13.305ZM63.7388 17.16L62.7905 16.8427L62.3497 18.16H63.7388V17.16ZM66.9938 18.14H63.0638V20.14H66.9938V18.14ZM62.1166 18.8192L61.4866 20.6792L63.3809 21.3208L64.0109 19.4608L62.1166 18.8192ZM62.4338 20H59.7488V22H62.4338V20ZM60.6891 21.3402L64.4991 10.8102L62.6185 10.1298L58.8084 20.6598L60.6891 21.3402ZM63.5588 11.47H66.5288V9.47H63.5588V11.47ZM65.5884 10.8102L69.3985 21.3402L71.2791 20.6598L67.4691 10.1298L65.5884 10.8102ZM70.3388 20H67.6238V22H70.3388V20ZM68.5709 20.6792L67.9409 18.8192L66.0466 19.4608L66.6766 21.3208L68.5709 20.6792ZM67.281 16.8394L65.976 12.9844L64.0816 13.6256L65.3866 17.4806L67.281 16.8394ZM64.0805 12.9877L62.7905 16.8427L64.6871 17.4773L65.9771 13.6223L64.0805 12.9877ZM63.7388 18.16H66.3338V16.16H63.7388V18.16ZM80.5284 10.47L81.4167 10.9293L82.1711 9.47H80.5284V10.47ZM76.8834 17.52L75.9951 17.0607L75.8834 17.2768V17.52H76.8834ZM76.8834 21V22H77.8834V21H76.8834ZM74.3184 21H73.3184V22H74.3184V21ZM74.3184 17.52H75.3184V17.2768L75.2067 17.0607L74.3184 17.52ZM70.6734 10.47V9.47H69.0306L69.7851 10.9293L70.6734 10.47ZM73.5834 10.47L74.491 10.0502L74.2226 9.47H73.5834V10.47ZM75.6234 14.88L74.7158 15.2998L75.6267 17.2691L76.5321 15.2973L75.6234 14.88ZM77.6484 10.47V9.47H77.0072L76.7396 10.0527L77.6484 10.47ZM79.6401 10.0107L75.9951 17.0607L77.7717 17.9793L81.4167 10.9293L79.6401 10.0107ZM75.8834 17.52V21H77.8834V17.52H75.8834ZM76.8834 20H74.3184V22H76.8834V20ZM75.3184 21V17.52H73.3184V21H75.3184ZM75.2067 17.0607L71.5617 10.0107L69.7851 10.9293L73.4301 17.9793L75.2067 17.0607ZM70.6734 11.47H73.5834V9.47H70.6734V11.47ZM72.6758 10.8898L74.7158 15.2998L76.531 14.4602L74.491 10.0502L72.6758 10.8898ZM76.5321 15.2973L78.5571 10.8873L76.7396 10.0527L74.7146 14.4627L76.5321 15.2973ZM77.6484 11.47H80.5284V9.47H77.6484V11.47Z" fill="black" mask="url(#path-2-outside-1_558_574)"/>
</svg>
