<svg width="927" height="555" viewBox="0 0 927 555" fill="none" xmlns="http://www.w3.org/2000/svg">
<rect width="927" height="555" rx="2" fill="#D9D9D9"/>
<path d="M750.48 196.047C721.088 196.047 722.947 208.132 722.947 208.132V220.69H750.898V224.626H711.815C711.815 224.626 693 222.422 693 250.784C693 279.147 709.613 277.993 709.613 277.993H719.205V264.763C719.205 264.763 718.666 248.966 735.35 248.966H763.343C763.343 248.966 778.958 249.202 778.958 234.59V210.612C778.958 210.612 781.326 196 750.634 196L750.48 196.047ZM735.031 204.46C736.025 204.436 737.003 204.693 737.844 205.198C738.684 205.703 739.347 206.434 739.751 207.298C740.154 208.161 740.279 209.12 740.11 210.051C739.94 210.982 739.484 211.845 738.799 212.53C738.114 213.215 737.231 213.692 736.261 213.899C735.292 214.107 734.279 214.036 733.351 213.697C732.424 213.357 731.623 212.763 731.05 211.991C730.477 211.218 730.158 210.301 730.134 209.357V209.278C730.134 208.01 730.663 206.795 731.606 205.899C732.548 205.002 733.826 204.499 735.159 204.499L735.031 204.46Z" fill="url(#paint0_linear_24_27)"/>
<path d="M751.164 305.992C780.164 305.992 778.33 293.719 778.33 293.719V281.048H750.755V277.064H789.436C789.436 277.064 808 279.088 808 250.546C808 222.004 791.609 223.004 791.609 223.004H782.022V236.221C782.022 236.221 782.553 252.212 766.093 252.212H738.461C738.461 252.212 723.042 251.984 723.042 266.775V291.209C723.042 291.209 720.705 306 750.988 306H751.151L751.164 305.992ZM766.407 297.437C765.427 297.461 764.461 297.201 763.632 296.69C762.803 296.178 762.148 295.439 761.75 294.564C761.352 293.69 761.229 292.72 761.396 291.777C761.563 290.834 762.013 289.961 762.689 289.268C763.365 288.574 764.236 288.092 765.193 287.882C766.15 287.672 767.149 287.743 768.064 288.087C768.979 288.431 769.77 289.032 770.335 289.814C770.9 290.596 771.215 291.524 771.239 292.48V292.6C771.239 293.883 770.717 295.113 769.787 296.02C768.857 296.927 767.596 297.437 766.281 297.437H766.407Z" fill="url(#paint1_linear_24_27)"/>
<path d="M654 44H769V155H654V44Z" fill="#F5DE19"/>
<path d="M732.096 131.369C733.079 133.289 734.605 134.902 736.499 136.024C738.394 137.146 740.579 137.729 742.803 137.708C747.292 137.708 750.162 135.549 750.162 132.557C750.162 128.991 747.213 127.716 742.272 125.635L739.562 124.518C731.738 121.313 726.55 117.299 726.55 108.812C726.55 100.995 732.726 95.04 742.416 95.04C745.553 94.8221 748.686 95.4975 751.427 96.9821C754.167 98.4667 756.392 100.695 757.825 103.388L749.355 108.598C748.803 107.263 747.842 106.12 746.6 105.322C745.358 104.524 743.893 104.108 742.399 104.129C741.748 104.066 741.09 104.135 740.467 104.33C739.845 104.526 739.271 104.844 738.783 105.264C738.296 105.685 737.904 106.198 737.634 106.772C737.364 107.346 737.221 107.968 737.215 108.598C737.215 111.724 739.229 112.992 743.878 114.938L746.587 116.055C755.795 119.855 761 123.726 761 132.43C761 141.817 753.337 146.959 743.046 146.959C739.036 147.205 735.039 146.329 731.535 144.437C728.031 142.546 725.171 139.719 723.301 136.297L732.096 131.369ZM693.821 132.272C695.521 135.176 697.07 137.633 700.792 137.633C704.35 137.633 706.598 136.293 706.598 131.083V95.6343H717.433V131.222C717.433 142.015 710.844 146.928 701.253 146.928C697.863 147.106 694.497 146.293 691.596 144.596C688.695 142.899 686.395 140.397 685 137.419L693.821 132.272Z" fill="black"/>
<path d="M602.466 356.405L592 243H707L696.52 356.387L649.43 369L602.466 356.405Z" fill="#E44F26"/>
<path d="M650 360L688.049 349.721L697 252H650V360Z" fill="#F1662A"/>
<path d="M650 294.111H631.001L629.691 279.889H650V266H649.949H614L614.344 269.73L617.869 308H650V294.111Z" fill="#EBEBEB"/>
<path d="M650 330.386L649.934 330.404L633.686 326.188L632.648 315H624.75H618L620.044 337.021L649.934 345L650 344.982V330.386Z" fill="#EBEBEB"/>
<path d="M649.708 294.364V308.31H667.447L665.779 326.398L649.708 330.594V345.104L679.244 337.177L679.458 334.821L682.842 298.109L683.196 294.364H679.314H649.708Z" fill="white"/>
<path d="M649.708 266.139V274.801V280.053V280.084H684.459H684.506L684.795 276.953L685.452 269.883L685.797 266.139H649.708Z" fill="white"/>
<path d="M647.5 195C679.256 195 705 181.792 705 165.5C705 149.208 679.256 136 647.5 136C615.744 136 590 149.208 590 165.5C590 181.792 615.744 195 647.5 195Z" fill="url(#paint2_radial_24_27)"/>
<path d="M647.5 193C678.152 193 703 180.912 703 166C703 151.088 678.152 139 647.5 139C616.848 139 592 151.088 592 166C592 180.912 616.848 193 647.5 193Z" fill="#6280B6"/>
<path d="M658.92 174.461L661.652 160.766C662.041 159.594 662.105 158.343 661.838 157.139C661.57 155.935 660.98 154.821 660.129 153.911C657.75 152.266 654.839 151.522 651.938 151.817H647.216L648.571 145.037C648.596 144.911 648.592 144.781 648.559 144.656C648.526 144.532 648.466 144.416 648.382 144.317C648.297 144.218 648.192 144.138 648.073 144.083C647.953 144.029 647.823 144 647.691 144H641.138C640.93 144 640.729 144.07 640.568 144.199C640.407 144.328 640.298 144.507 640.258 144.706L637.354 159.247C637.131 157.692 636.453 156.233 635.401 155.043C634.23 153.901 632.817 153.021 631.261 152.465C629.705 151.91 628.043 151.691 626.391 151.825H613.769C613.561 151.825 613.359 151.895 613.199 152.024C613.038 152.153 612.929 152.332 612.889 152.531L607.016 181.963C606.991 182.089 606.995 182.219 607.028 182.344C607.061 182.468 607.122 182.584 607.206 182.683C607.29 182.782 607.395 182.862 607.515 182.917C607.634 182.971 607.764 183 607.896 183H614.461C614.669 183 614.871 182.93 615.032 182.801C615.192 182.672 615.302 182.493 615.342 182.294L616.763 175.175H621.677C623.847 175.232 626.013 174.963 628.099 174.378C629.857 173.811 631.466 172.873 632.808 171.63C633.909 170.654 634.848 169.518 635.593 168.264L634.418 174.146C634.393 174.273 634.397 174.403 634.43 174.527C634.463 174.652 634.524 174.767 634.608 174.866C634.692 174.965 634.797 175.045 634.917 175.1C635.036 175.155 635.166 175.183 635.298 175.183H641.851C642.059 175.183 642.261 175.113 642.421 174.984C642.582 174.855 642.692 174.676 642.731 174.477L645.955 158.321H650.435C652.343 158.321 652.892 158.692 653.056 158.852C653.22 159.011 653.465 159.51 653.158 161.121L650.558 174.142C650.533 174.269 650.537 174.399 650.57 174.523C650.603 174.648 650.663 174.763 650.748 174.862C650.832 174.961 650.937 175.041 651.057 175.096C651.176 175.151 651.306 175.179 651.438 175.179H658.073C658.277 175.172 658.472 175.096 658.626 174.966C658.78 174.835 658.884 174.657 658.92 174.461ZM628.635 163.159C628.435 164.833 627.619 166.38 626.338 167.514C624.729 168.489 622.842 168.937 620.952 168.794H618.036L620.146 158.222H623.917C626.69 158.222 627.804 158.8 628.254 159.283C628.598 159.865 628.81 160.512 628.875 161.181C628.941 161.849 628.859 162.524 628.635 163.159Z" fill="white"/>
<path d="M686.787 155.234C685.601 154.1 684.171 153.226 682.596 152.674C681.021 152.122 679.338 151.905 677.666 152.038H664.852C664.642 152.038 664.438 152.108 664.275 152.236C664.112 152.364 664.001 152.542 663.961 152.739L658.016 181.97C657.991 182.096 657.995 182.225 658.029 182.348C658.062 182.472 658.123 182.587 658.208 182.685C658.293 182.784 658.4 182.863 658.521 182.917C658.642 182.972 658.774 183 658.907 183H665.574C665.784 183 665.988 182.93 666.151 182.802C666.313 182.674 666.424 182.496 666.465 182.299L667.903 175.229H672.878C675.075 175.285 677.267 175.018 679.379 174.437C681.159 173.874 682.787 172.942 684.146 171.708C686.474 169.703 688.042 167.02 688.607 164.075C689.053 162.569 689.12 160.983 688.804 159.447C688.488 157.91 687.797 156.467 686.787 155.234ZM679.876 163.291C679.673 164.954 678.847 166.49 677.55 167.616C675.917 168.585 674.003 169.029 672.086 168.883H669.143L671.278 158.383H675.096C677.903 158.383 679.03 158.958 679.486 159.437C679.836 160.015 680.051 160.659 680.118 161.323C680.185 161.988 680.103 162.659 679.876 163.291Z" fill="white"/>
<path d="M623.61 157.439C624.497 157.331 625.397 157.394 626.258 157.625C627.12 157.856 627.925 158.25 628.628 158.784C629.082 159.46 629.371 160.227 629.475 161.027C629.578 161.827 629.492 162.639 629.224 163.403C628.989 165.282 628.051 167.014 626.586 168.268C624.819 169.37 622.731 169.886 620.635 169.74H616.615L619.081 157.451L623.61 157.439ZM607.512 182.169H614.121L615.686 174.363H621.346C623.429 174.418 625.508 174.162 627.511 173.603C629.154 173.078 630.656 172.206 631.908 171.049C634.075 169.162 635.535 166.632 636.059 163.856C636.474 162.476 636.547 161.02 636.272 159.607C635.997 158.194 635.382 156.864 634.477 155.724C633.385 154.679 632.072 153.877 630.627 153.374C629.183 152.871 627.642 152.679 626.113 152.812H613.426L607.512 182.169Z" fill="#000004"/>
<path d="M640.909 145.002H647.484L645.894 152.808H651.734C654.416 152.536 657.111 153.196 659.337 154.67C660.074 155.481 660.578 156.465 660.798 157.523C661.018 158.582 660.946 159.678 660.591 160.701L657.85 174.363H651.196L653.805 161.374C653.987 160.878 654.052 160.349 653.995 159.826C653.938 159.303 653.761 158.798 653.477 158.35C652.525 157.69 651.349 157.406 650.189 157.554H644.949L641.57 174.375H634.995L640.909 145.002Z" fill="#000004"/>
<path d="M675.185 157.439C676.072 157.331 676.972 157.394 677.833 157.625C678.694 157.856 679.5 158.25 680.203 158.784C680.657 159.46 680.946 160.227 681.049 161.027C681.152 161.827 681.067 162.639 680.799 163.403C680.564 165.282 679.625 167.014 678.16 168.268C676.39 169.372 674.297 169.889 672.197 169.74H668.178L670.643 157.451L675.185 157.439ZM659.087 182.169H665.695L667.261 174.363H672.92C675.003 174.418 677.083 174.162 679.085 173.603C680.728 173.078 682.231 172.206 683.483 171.049C685.65 169.162 687.11 166.632 687.634 163.856C688.048 162.476 688.121 161.02 687.846 159.607C687.571 158.194 686.956 156.864 686.051 155.724C684.96 154.679 683.646 153.877 682.202 153.374C680.757 152.871 679.217 152.679 677.688 152.812H664.98L659.087 182.169Z" fill="#000004"/>
<path d="M807.409 343C807.409 343 801.518 346.226 811.598 347.32C822.235 348.729 833.056 348.297 843.528 346.044C846.229 347.57 849.063 348.876 852 349.949C821.827 362.13 783.71 349.244 807.409 343.005" fill="#5382A1"/>
<path d="M803.393 326.011C803.393 326.011 796.71 330.711 806.919 331.716C820.822 333.288 834.903 332.646 848.584 329.816C850.434 331.455 852.617 332.716 855 333.521C818.091 343.779 776.978 334.331 803.393 326" fill="#5382A1"/>
<path d="M834.943 298.15C835.938 299.3 836.679 300.632 837.119 302.065C837.559 303.497 837.69 305.001 837.504 306.484C837.318 307.967 836.819 309.398 836.036 310.69C835.254 311.982 834.205 313.108 832.954 314C832.954 314 852.168 304.503 843.343 292.607C835.1 281.516 828.774 276 863 257C863 257 809.285 269.846 834.943 298.15Z" fill="#E76F00"/>
<path d="M875.114 354.745C875.114 354.745 879.528 358.262 870.255 360.986C852.623 366.154 796.876 367.719 781.384 361.191C775.812 358.845 786.255 355.592 789.542 354.912C791.304 354.496 793.113 354.3 794.925 354.33C788.734 350.106 754.909 362.621 777.745 366.197C840.024 375.972 891.269 361.801 875.114 354.745Z" fill="#5382A1"/>
<path d="M809.854 308.844C809.854 308.844 781.496 315.366 799.824 317.734C812.314 318.673 824.866 318.543 837.332 317.346C849.068 316.386 860.854 314.352 860.854 314.352C858.377 315.394 855.991 316.63 853.721 318.047C824.911 325.373 769.281 321.964 785.274 314.46C792.882 310.723 801.301 308.796 809.832 308.839" fill="#5382A1"/>
<path d="M860.726 336.372C889.999 321.645 876.463 307.496 867.017 309.4C865.881 309.604 864.763 309.894 863.674 310.269C864.294 309.416 865.166 308.766 866.176 308.402C884.866 302.042 899.238 327.164 860.141 337.111C860.385 336.902 860.586 336.649 860.732 336.367" fill="#5382A1"/>
<path d="M842.863 226.011C842.863 226.011 858.988 241.732 827.569 265.914C802.37 285.31 821.821 296.369 827.569 309C812.863 296.066 802.071 284.688 809.31 274.083C819.936 258.529 849.382 250.987 842.879 226" fill="#E76F00"/>
<path d="M812.98 376.502C840.979 378.328 883.984 375.49 885 362C885 362 883.04 367.088 861.86 371.176C838.439 375.274 814.536 375.655 791 372.307C791 372.307 794.582 375.32 812.985 376.524" fill="#5382A1"/>
<path d="M658.462 453.405L648 340H763L752.524 453.387L705.43 466L658.462 453.405Z" fill="#1572B6"/>
<path d="M705 456L743.049 445.816L752 349H705V456Z" fill="#33A9DC"/>
<path d="M705 390.111H723.999L725.309 375.889H705V362H705.051H741L740.656 365.725L737.131 404H705V390.111Z" fill="white"/>
<path d="M705 426.388L704.936 426.406L689.196 422.186L688.19 411H680.539H674L675.98 433.022L704.931 441L705 440.982V426.388Z" fill="#EBEBEB"/>
<path d="M723.212 404L721.438 422.484L705 426.638V441L735.215 433.158L735.439 430.827L738 404H723.212Z" fill="white"/>
<path d="M705.343 361.927V370.59V375.838V375.874H670.589H670.542L670.253 372.738L669.596 365.668L669.251 361.927H705.343Z" fill="#EBEBEB"/>
<path d="M705.291 390.155V398.818V404.066V404.102H689.495H689.448L689.159 400.966L688.506 393.896L688.161 390.155H705.291Z" fill="#EBEBEB"/>
<path d="M801.784 152.407C801.515 158.671 802.979 164.891 806.027 170.422C808.291 174.102 811.77 176.934 815.902 178.462C820.033 179.991 824.576 180.125 828.796 178.844C831.729 178.044 834.353 176.422 836.338 174.182C838.323 171.941 839.58 169.183 839.953 166.253C840.339 164.155 840.346 164.12 840.346 164.12C846.618 164.998 856.728 166.421 863 167.289L862.603 168.828C861.183 175.853 857.813 182.371 852.854 187.679C847.623 192.771 840.821 196.072 833.479 197.08C823.441 198.95 813.058 197.955 803.593 194.216C798.694 192.256 794.292 189.289 790.69 185.521C787.089 181.754 784.375 177.274 782.734 172.392C777.732 159.478 777.756 145.242 782.803 132.345C785.184 125.658 789.502 119.777 795.24 115.402C800.979 111.027 807.896 108.345 815.165 107.674C823.228 106.333 831.511 107.001 839.234 109.615C844.75 111.486 849.685 114.681 853.579 118.901C857.473 123.122 860.199 128.23 861.502 133.748C861.841 134.979 861.913 135.206 861.913 135.206C854.937 136.434 846.319 138.004 839.39 139.456C838.082 132.758 834.822 127.466 827.835 125.815C825.421 125.09 822.881 124.839 820.365 125.076C817.85 125.314 815.408 126.035 813.183 127.198C810.959 128.36 808.996 129.941 807.41 131.848C805.824 133.755 804.647 135.949 803.947 138.302C803.361 139.945 802.896 141.627 802.557 143.334C801.969 146.324 801.71 149.365 801.784 152.407Z" fill="#005F91"/>
<defs>
<linearGradient id="paint0_linear_24_27" x1="704.455" y1="206.766" x2="756.698" y2="261.582" gradientUnits="userSpaceOnUse">
<stop stop-color="#387EB8"/>
<stop offset="1" stop-color="#366994"/>
</linearGradient>
<linearGradient id="paint1_linear_24_27" x1="737.041" y1="240.439" x2="797.713" y2="294.735" gradientUnits="userSpaceOnUse">
<stop stop-color="#FFE052"/>
<stop offset="1" stop-color="#FFC331"/>
</linearGradient>
<radialGradient id="paint2_radial_24_27" cx="0" cy="0" r="1" gradientUnits="userSpaceOnUse" gradientTransform="translate(624.525 146.374) scale(75.5057 73.6358)">
<stop stop-color="white"/>
<stop offset="0.5" stop-color="#4C6B96"/>
<stop offset="1" stop-color="#231F20"/>
</radialGradient>
</defs>
</svg>
