<svg width="41" height="33" viewBox="0 0 41 33" fill="none" xmlns="http://www.w3.org/2000/svg">
<path d="M10.1943 6.10929L13.5926 2.03613" stroke="#E43535" stroke-width="2.86818" stroke-linecap="square"/>
<path fill-rule="evenodd" clip-rule="evenodd" d="M0 10.8613H4.07795V19.0076H0V10.8613Z" fill="#80D25B"/>
<path fill-rule="evenodd" clip-rule="evenodd" d="M16.9912 25.7969H23.7878V32.5855H16.9912V25.7969Z" fill="#E43535"/>
<path fill-rule="evenodd" clip-rule="evenodd" d="M36.7012 10.8613H40.7791V19.0076H36.7012V10.8613Z" fill="#80D25B"/>
<path d="M35.3424 6.10938H5.43738C3.93592 6.10938 2.71875 7.32512 2.71875 8.82481V23.7597C2.71875 25.2594 3.93592 26.4751 5.43738 26.4751H35.3424C36.8438 26.4751 38.061 25.2594 38.061 23.7597V8.82481C38.061 7.32512 36.8438 6.10938 35.3424 6.10938Z" fill="#ED9111"/>
<path d="M16.3115 22.4023C16.3115 20.1528 18.1373 18.3292 20.3895 18.3292C22.6417 18.3292 24.4674 20.1528 24.4674 22.4023" stroke="#0A3586" stroke-width="2.86818" stroke-linecap="round"/>
<path d="M14.2734 2.71543C15.0241 2.71543 15.6327 2.10756 15.6327 1.35772C15.6327 0.607871 15.0241 0 14.2734 0C13.5226 0 12.9141 0.607871 12.9141 1.35772C12.9141 2.10756 13.5226 2.71543 14.2734 2.71543Z" fill="#80D25B"/>
<path d="M10.8749 16.9719C12.3763 16.9719 13.5935 15.7561 13.5935 14.2565C13.5935 12.7568 12.3763 11.541 10.8749 11.541C9.37342 11.541 8.15625 12.7568 8.15625 14.2565C8.15625 15.7561 9.37342 16.9719 10.8749 16.9719Z" fill="#0A3586"/>
<path d="M29.9052 16.9719C31.4066 16.9719 32.6238 15.7561 32.6238 14.2565C32.6238 12.7568 31.4066 11.541 29.9052 11.541C28.4037 11.541 27.1865 12.7568 27.1865 14.2565C27.1865 15.7561 28.4037 16.9719 29.9052 16.9719Z" fill="#0A3586"/>
</svg>
